<svg width="16" height="16" viewBox="0 0 16 16" fill="none" xmlns="http://www.w3.org/2000/svg">
<path d="M10.7933 1.33334H5.20665C2.77998 1.33334 1.33331 2.78001 1.33331 5.20668V10.7867C1.33331 13.22 2.77998 14.6667 5.20665 14.6667H10.7866C13.2133 14.6667 14.66 13.22 14.66 10.7933V5.20668C14.6666 2.78001 13.22 1.33334 10.7933 1.33334ZM12 8.50001H8.49998V12C8.49998 12.2733 8.27331 12.5 7.99998 12.5C7.72665 12.5 7.49998 12.2733 7.49998 12V8.50001H3.99998C3.72665 8.50001 3.49998 8.27334 3.49998 8.00001C3.49998 7.72668 3.72665 7.50001 3.99998 7.50001H7.49998V4.00001C7.49998 3.72668 7.72665 3.50001 7.99998 3.50001C8.27331 3.50001 8.49998 3.72668 8.49998 4.00001V7.50001H12C12.2733 7.50001 12.5 7.72668 12.5 8.00001C12.5 8.27334 12.2733 8.50001 12 8.50001Z" fill="#6BAA55"/>
</svg>
