<svg width="16" height="16" viewBox="0 0 16 16" fill="none" xmlns="http://www.w3.org/2000/svg">
<path d="M14.6668 5.03327C14.6668 5.47327 14.3068 5.83327 13.8668 5.83327H2.1335C1.6935 5.83327 1.3335 5.47327 1.3335 5.03327V5.0266C1.3335 3.49993 2.56683 2.2666 4.0935 2.2666H11.9002C13.4268 2.2666 14.6668 3.5066 14.6668 5.03327Z" fill="#6BAA55"/>
<path d="M1.3335 7.63325V10.9733C1.3335 12.4999 2.56683 13.7333 4.0935 13.7333H11.9002C13.4268 13.7333 14.6668 12.4933 14.6668 10.9666V7.63325C14.6668 7.19325 14.3068 6.83325 13.8668 6.83325H2.1335C1.6935 6.83325 1.3335 7.19325 1.3335 7.63325ZM5.3335 11.4999H4.00016C3.72683 11.4999 3.50016 11.2733 3.50016 10.9999C3.50016 10.7266 3.72683 10.4999 4.00016 10.4999H5.3335C5.60683 10.4999 5.8335 10.7266 5.8335 10.9999C5.8335 11.2733 5.60683 11.4999 5.3335 11.4999ZM9.66683 11.4999H7.00016C6.72683 11.4999 6.50016 11.2733 6.50016 10.9999C6.50016 10.7266 6.72683 10.4999 7.00016 10.4999H9.66683C9.94016 10.4999 10.1668 10.7266 10.1668 10.9999C10.1668 11.2733 9.94016 11.4999 9.66683 11.4999Z" fill="#6BAA55"/>
</svg>
