<svg width="16" height="16" viewBox="0 0 16 16" fill="none" xmlns="http://www.w3.org/2000/svg">
<path d="M12.5 5.33325V6.73325C12.2067 6.69325 11.8733 6.67325 11.5 6.66658V5.33325C11.5 3.23325 10.9067 1.83325 8 1.83325C5.09333 1.83325 4.5 3.23325 4.5 5.33325V6.66658C4.12667 6.67325 3.79333 6.69325 3.5 6.73325V5.33325C3.5 3.39992 3.96667 0.833252 8 0.833252C12.0333 0.833252 12.5 3.39992 12.5 5.33325Z" fill="#6BAA55"/>
<path d="M12.5002 6.73341C12.2068 6.69341 11.8735 6.67341 11.5002 6.66675H4.50016C4.12683 6.67341 3.7935 6.69341 3.50016 6.73341C1.80016 6.94008 1.3335 7.77341 1.3335 10.0001V11.3334C1.3335 14.0001 2.00016 14.6667 4.66683 14.6667H11.3335C14.0002 14.6667 14.6668 14.0001 14.6668 11.3334V10.0001C14.6668 7.77341 14.2002 6.94008 12.5002 6.73341ZM5.80683 11.1401C5.68016 11.2601 5.50683 11.3334 5.3335 11.3334C5.24683 11.3334 5.16016 11.3134 5.08016 11.2801C4.9935 11.2467 4.92683 11.2001 4.86016 11.1401C4.74016 11.0134 4.66683 10.8401 4.66683 10.6667C4.66683 10.5801 4.68683 10.4934 4.72016 10.4134C4.7535 10.3334 4.80016 10.2601 4.86016 10.1934C4.92683 10.1334 4.9935 10.0867 5.08016 10.0534C5.32683 9.94675 5.62016 10.0067 5.80683 10.1934C5.86683 10.2601 5.9135 10.3334 5.94683 10.4134C5.98016 10.4934 6.00016 10.5801 6.00016 10.6667C6.00016 10.8401 5.92683 11.0134 5.80683 11.1401ZM8.6135 10.9201C8.58016 11.0001 8.5335 11.0734 8.4735 11.1401C8.34683 11.2601 8.1735 11.3334 8.00016 11.3334C7.82016 11.3334 7.6535 11.2601 7.52683 11.1401C7.46683 11.0734 7.42016 11.0001 7.38683 10.9201C7.3535 10.8401 7.3335 10.7534 7.3335 10.6667C7.3335 10.4867 7.40683 10.3201 7.52683 10.1934C7.7735 9.94675 8.22016 9.94675 8.4735 10.1934C8.5935 10.3201 8.66683 10.4867 8.66683 10.6667C8.66683 10.7534 8.64683 10.8401 8.6135 10.9201ZM11.1402 11.1401C11.0135 11.2601 10.8402 11.3334 10.6668 11.3334C10.4935 11.3334 10.3202 11.2601 10.1935 11.1401C10.0735 11.0134 10.0002 10.8467 10.0002 10.6667C10.0002 10.4867 10.0735 10.3201 10.1935 10.1934C10.4468 9.94675 10.8935 9.94675 11.1402 10.1934C11.1668 10.2267 11.1935 10.2601 11.2202 10.3001C11.2468 10.3334 11.2668 10.3734 11.2802 10.4134C11.3002 10.4534 11.3135 10.4934 11.3202 10.5334C11.3268 10.5801 11.3335 10.6267 11.3335 10.6667C11.3335 10.8401 11.2602 11.0134 11.1402 11.1401Z" fill="#6BAA55"/>
</svg>
