<svg width="16" height="16" viewBox="0 0 16 16" fill="none" xmlns="http://www.w3.org/2000/svg">
<path d="M13.8067 5.41332V11.6867C13.8067 13.3267 12.4667 14.6667 10.8267 14.6667H5.17336C3.53336 14.6667 2.19336 13.3267 2.19336 11.6867V5.41332C2.19336 4.27332 2.83336 3.27999 3.77336 2.77999C4.10003 2.60665 4.50669 2.83999 4.50669 3.21332C4.50669 4.27332 5.37336 5.13999 6.43336 5.13999H9.56669C10.6267 5.13999 11.4934 4.27332 11.4934 3.21332C11.4934 2.83999 11.8934 2.60665 12.2267 2.77999C13.1667 3.27999 13.8067 4.27332 13.8067 5.41332Z" fill="#6BAA55"/>
<path d="M9.56667 1.33325H6.43334C5.74001 1.33325 5.17334 1.89325 5.17334 2.58659V3.21325C5.17334 3.90659 5.73334 4.46659 6.42667 4.46659H9.56667C10.26 4.46659 10.82 3.90659 10.82 3.21325V2.58659C10.8267 1.89325 10.26 1.33325 9.56667 1.33325Z" fill="#6BAA55"/>
</svg>
