<svg width="16" height="16" viewBox="0 0 16 16" fill="none" xmlns="http://www.w3.org/2000/svg">
<path d="M12.6665 5.33325C13.7711 5.33325 14.6665 4.43782 14.6665 3.33325C14.6665 2.22868 13.7711 1.33325 12.6665 1.33325C11.5619 1.33325 10.6665 2.22868 10.6665 3.33325C10.6665 4.43782 11.5619 5.33325 12.6665 5.33325Z" fill="#6BAA55"/>
<path d="M14.0002 6.93333V10.9867C14.0002 11.08 13.9935 11.1733 13.9868 11.26C13.9802 11.34 13.9735 11.4133 13.9602 11.4933C13.9535 11.5733 13.9402 11.6533 13.9268 11.7267C13.6935 13.34 12.6668 14.36 11.0602 14.5933C10.9868 14.6067 10.9068 14.62 10.8268 14.6267C10.7468 14.64 10.6735 14.6467 10.5935 14.6533C10.5068 14.66 10.4135 14.6667 10.3202 14.6667H5.0135C4.92016 14.6667 4.82683 14.66 4.74016 14.6533C4.66016 14.6467 4.58683 14.64 4.50683 14.6267C4.42683 14.62 4.34683 14.6067 4.2735 14.5933C2.66683 14.36 1.64016 13.34 1.40683 11.7267C1.3935 11.6533 1.38016 11.5733 1.3735 11.4933C1.36016 11.4133 1.3535 11.34 1.34683 11.26C1.34016 11.1733 1.3335 11.08 1.3335 10.9867V5.68C1.3335 5.58667 1.34016 5.49333 1.34683 5.40667C1.3535 5.32667 1.36016 5.25333 1.3735 5.17333C1.38016 5.09333 1.3935 5.01333 1.40683 4.94C1.64016 3.32667 2.66683 2.30667 4.2735 2.07333C4.34683 2.06 4.42683 2.04667 4.50683 2.04C4.58683 2.02667 4.66016 2.02 4.74016 2.01333C4.82683 2.00667 4.92016 2 5.0135 2H9.06683C9.4935 2 9.80016 2.38667 9.72016 2.8C9.72016 2.81333 9.7135 2.82667 9.7135 2.84C9.70016 2.90667 9.6935 2.97333 9.68016 3.04667C9.6535 3.32667 9.66683 3.62667 9.72683 3.93333C9.74683 4.01333 9.76016 4.08 9.78683 4.15333C9.84016 4.37333 9.92683 4.58 10.0402 4.77333C10.0802 4.85333 10.1335 4.93333 10.1802 5.00667C10.4002 5.32667 10.6735 5.6 10.9935 5.82C11.0668 5.86667 11.1468 5.92 11.2268 5.96C11.4202 6.07333 11.6268 6.16 11.8468 6.21333C11.9202 6.24 11.9868 6.25333 12.0668 6.27333C12.3735 6.33333 12.6735 6.34667 12.9535 6.32C13.0268 6.30667 13.0935 6.3 13.1602 6.28667C13.1735 6.28667 13.1868 6.28 13.2002 6.28C13.6135 6.2 14.0002 6.50667 14.0002 6.93333Z" fill="#6BAA55"/>
</svg>
