<svg width="16" height="16" viewBox="0 0 16 16" fill="none" xmlns="http://www.w3.org/2000/svg">
<path d="M7.99998 1.33334C6.25331 1.33334 4.83331 2.75334 4.83331 4.50001C4.83331 6.21334 6.17331 7.60001 7.91998 7.66001C7.97331 7.65334 8.02665 7.65334 8.06665 7.66001C8.07998 7.66001 8.08665 7.66001 8.09998 7.66001C8.10665 7.66001 8.10665 7.66001 8.11331 7.66001C9.81998 7.60001 11.16 6.21334 11.1666 4.50001C11.1666 2.75334 9.74665 1.33334 7.99998 1.33334Z" fill="#6BAA55"/>
<path d="M11.3866 9.43333C9.52664 8.19333 6.49331 8.19333 4.61997 9.43333C3.77331 9.99999 3.30664 10.7667 3.30664 11.5867C3.30664 12.4067 3.77331 13.1667 4.61331 13.7267C5.54664 14.3533 6.77331 14.6667 7.99997 14.6667C9.22664 14.6667 10.4533 14.3533 11.3866 13.7267C12.2266 13.16 12.6933 12.4 12.6933 11.5733C12.6866 10.7533 12.2266 9.99333 11.3866 9.43333ZM9.33331 12.0867H8.49997V12.92C8.49997 13.1933 8.27331 13.42 7.99997 13.42C7.72664 13.42 7.49997 13.1933 7.49997 12.92V12.0867H6.66664C6.39331 12.0867 6.16664 11.86 6.16664 11.5867C6.16664 11.3133 6.39331 11.0867 6.66664 11.0867H7.49997V10.2533C7.49997 9.97999 7.72664 9.75333 7.99997 9.75333C8.27331 9.75333 8.49997 9.97999 8.49997 10.2533V11.0867H9.33331C9.60664 11.0867 9.83331 11.3133 9.83331 11.5867C9.83331 11.86 9.60664 12.0867 9.33331 12.0867Z" fill="#6BAA55"/>
</svg>
