<svg width="24" height="24" viewBox="0 0 24 24" fill="none" xmlns="http://www.w3.org/2000/svg">
<path d="M17.99 12L17.9901 19.5462C18.0001 20.4446 17.4025 21.2364 16.5359 21.4733C13.545 22.1811 10.4301 22.1811 7.43922 21.4733C6.5726 21.2365 5.97501 20.4446 5.98492 19.5462L5.98501 12" stroke="#485E74" stroke-width="1.5" stroke-linecap="round" stroke-linejoin="round"/>
<path d="M15.5015 3.01611V3.01611C15.5015 3.80682 15.1873 4.56515 14.6282 5.12426C14.0691 5.68338 13.3108 5.99748 12.5201 5.99748H11.4799C10.6892 5.99748 9.93087 5.68338 9.37176 5.12426C8.81264 4.56515 8.49854 3.80682 8.49854 3.01611V3.01611" stroke="#485E74" stroke-width="1.5" stroke-linecap="round" stroke-linejoin="round"/>
<path d="M5.98489 19.0029H2.99627C2.44375 19.0029 1.99585 18.555 1.99585 18.0025V12.5186C1.99585 12.1743 2.04029 11.8314 2.12806 11.4985L3.36611 6.80244C3.66781 5.65806 4.46059 4.70592 5.53139 4.20192L7.28351 3.37723C7.8166 3.12632 8.39851 2.99622 8.98769 2.99622H15.107C15.6962 2.99622 16.2781 3.12632 16.8112 3.37723L18.5353 4.18872C19.6221 4.70029 20.4217 5.67305 20.7132 6.8384L21.8846 11.5218C21.964 11.8394 22.0042 12.1655 22.0042 12.4928V18.0025C22.0042 18.555 21.5563 19.0029 21.0038 19.0029H17.9901" stroke="#485E74" stroke-width="1.5" stroke-linecap="round" stroke-linejoin="round"/>
</svg>
