<svg width="24" height="24" viewBox="0 0 24 24" fill="none" xmlns="http://www.w3.org/2000/svg">
<path d="M21 17H22.5" stroke="#485E74" stroke-width="1.5" stroke-linecap="round" stroke-linejoin="round"/>
<path fill-rule="evenodd" clip-rule="evenodd" d="M2 14H6.89206C7.61704 14 8.32839 14.197 8.95006 14.57L12.05 16.43C12.6717 16.803 13.383 17 14.108 17H22V15.7082C22 15.2425 21.8916 14.7831 21.6833 14.3666L21.6562 14.3123C21.2422 13.4843 20.469 12.8938 19.5612 12.7122L17.1876 12.2375C16.4132 12.0826 15.702 11.702 15.1436 11.1436L12.5858 8.58579C12.2107 8.21071 11.702 8 11.1716 8H9.618C9.23923 8 8.89297 8.214 8.72358 8.55278L8.27636 9.44721C8.10698 9.78597 7.76075 9.99997 7.382 10H5.60555C5.2107 10 4.82468 9.88312 4.49615 9.6641L3.5547 9.03647C3.24784 8.8319 2.8533 8.81283 2.52814 8.98685C2.20298 9.16086 2 9.49972 2 9.86852V14Z" stroke="#485E74" stroke-width="1.5" stroke-linecap="round" stroke-linejoin="round"/>
<path d="M8 14.1582V16.5C8 16.7761 7.77614 17 7.5 17H3C2.44772 17 2 16.5523 2 16V14" stroke="#485E74" stroke-width="1.5" stroke-linecap="round" stroke-linejoin="round"/>
</svg>
