<svg width="26" height="26" viewBox="0 0 26 26" fill="none" xmlns="http://www.w3.org/2000/svg">
<path d="M8.99834 9.99877V8.99835" stroke="#485E74" stroke-width="1.5" stroke-linecap="round" stroke-linejoin="round"/>
<path d="M18.0021 11.9996H19.0025" stroke="#485E74" stroke-width="1.5" stroke-linecap="round" stroke-linejoin="round"/>
<path d="M18.0021 15.0008H19.0025" stroke="#485E74" stroke-width="1.5" stroke-linecap="round" stroke-linejoin="round"/>
<path d="M18.0021 18.0021H19.0025" stroke="#485E74" stroke-width="1.5" stroke-linecap="round" stroke-linejoin="round"/>
<path fill-rule="evenodd" clip-rule="evenodd" d="M15.0008 8.9983V19.0025H4.99667C4.44415 19.0025 3.99625 19.4504 3.99625 20.0029V21.0033C3.99625 21.5558 4.44415 22.0037 4.99667 22.0037H20.0029C21.1079 22.0037 22.0037 21.1079 22.0037 20.0029V5.99705C22.0037 4.89202 21.1079 3.99622 20.0029 3.99622H5.99708C4.89205 3.99622 3.99625 4.89202 3.99625 5.99705V6.99747C3.99625 8.1025 4.89205 8.9983 5.99708 8.9983H15.0008Z" stroke="#485E74" stroke-width="1.5" stroke-linecap="round" stroke-linejoin="round"/>
<path fill-rule="evenodd" clip-rule="evenodd" d="M6.9975 13H10.9992C11.5517 13 11.9996 13.4479 11.9996 14.0004V16.0013C11.9996 17.6588 10.6559 19.0025 8.99833 19.0025V19.0025C7.34079 19.0025 5.99708 17.6588 5.99708 16.0013V14.0004C5.99708 13.4479 6.44499 13 6.9975 13Z" stroke="#485E74" stroke-width="1.5" stroke-linecap="round" stroke-linejoin="round"/>
<path d="M6.9975 13H4.99667" stroke="#485E74" stroke-width="1.5" stroke-linecap="round" stroke-linejoin="round"/>
</svg>
