<svg width="26" height="26" viewBox="0 0 26 26" fill="none" xmlns="http://www.w3.org/2000/svg">
<path fill-rule="evenodd" clip-rule="evenodd" d="M12.4998 9.99875H8.49811V7.99791C8.49811 7.4454 8.94601 6.9975 9.49852 6.9975H11.4994C12.0519 6.9975 12.4998 7.4454 12.4998 7.99791V9.99875Z" stroke="#485E74" stroke-width="1.5" stroke-linecap="round" stroke-linejoin="round"/>
<path d="M16.0012 13.7143C16.0012 12.7288 15.6098 11.7838 14.913 11.087C14.2162 10.3902 13.2711 9.99872 12.2857 9.99872H8.71219C6.66015 9.99872 4.99664 11.6622 4.99664 13.7143V20.0029C4.99664 21.1079 5.89245 22.0037 6.99748 22.0037H9.99873" stroke="#485E74" stroke-width="1.5" stroke-linecap="round" stroke-linejoin="round"/>
<path fill-rule="evenodd" clip-rule="evenodd" d="M18.5023 19.0025C19.6073 19.0025 20.5031 18.1067 20.5031 17.0017C20.5031 15.8967 19.6073 15.0009 18.5023 15.0009C18.5023 15.8296 17.6065 16.5015 16.5015 16.5015H15.7511C15.0605 16.5015 14.5006 17.0614 14.5006 17.752C14.5006 18.4426 15.0605 19.0025 15.7511 19.0025H14.5006C13.6719 19.0025 13 19.6744 13 20.5031V20.5031C13 21.3319 13.6719 22.0038 14.5006 22.0038H20.5031C21.3319 22.0038 22.0037 21.3319 22.0037 20.5031V20.5031C22.0037 19.6744 21.3319 19.0025 20.5031 19.0025H18.5023Z" stroke="#485E74" stroke-width="1.5" stroke-linecap="round" stroke-linejoin="round"/>
<path d="M14.5006 4.99663L14.0864 4.58246C13.7113 4.2072 13.2024 3.99633 12.6718 3.99622H7.49768" stroke="#485E74" stroke-width="1.5" stroke-linecap="round" stroke-linejoin="round"/>
<path d="M10.4989 6.99747V3.99622" stroke="#485E74" stroke-width="1.5" stroke-linecap="round" stroke-linejoin="round"/>
</svg>
