<svg width="16" height="12" viewBox="0 0 16 12" fill="none" xmlns="http://www.w3.org/2000/svg">
<path fill-rule="evenodd" clip-rule="evenodd" d="M8.00033 1.48584V1.48584C10.4937 1.48584 12.5143 3.50651 12.5143 5.99984V5.99984C12.5143 8.49317 10.4937 10.5138 8.00033 10.5138V10.5138C5.50699 10.5138 3.48633 8.49317 3.48633 5.99984V5.99984C3.48633 3.50651 5.50699 1.48584 8.00033 1.48584Z" stroke="white" stroke-linecap="round" stroke-linejoin="round"/>
<path d="M8.0013 6.2505V3.74316" stroke="white" stroke-linecap="round" stroke-linejoin="round"/>
<path d="M8.00064 8.03119C7.94531 8.03119 7.90064 8.07585 7.90131 8.13119C7.90131 8.18652 7.94597 8.23119 8.00131 8.23119C8.05664 8.23119 8.10131 8.18652 8.10131 8.13119C8.10131 8.07652 8.05664 8.03119 8.00064 8.03119" stroke="white" stroke-linecap="round" stroke-linejoin="round"/>
<path d="M13.5508 1.83789C15.4028 4.29922 15.4028 7.69989 13.5508 10.1612" stroke="white" stroke-linecap="round" stroke-linejoin="round"/>
<path d="M2.44564 10.1617C0.59364 7.70038 0.59364 4.29971 2.44564 1.83838" stroke="white" stroke-linecap="round" stroke-linejoin="round"/>
</svg>
