<svg width="20" height="20" viewBox="0 0 20 20" fill="none" xmlns="http://www.w3.org/2000/svg">
<path d="M4.6341 2.08337H3.70926C2.64327 2.08337 2.0835 2.64315 2.0835 3.70429V4.62913C2.0835 5.69027 2.64327 6.25004 3.7044 6.25004H4.62923C5.69036 6.25004 6.25013 5.69027 6.25013 4.62913V3.70429C6.255 2.64315 5.69523 2.08337 4.6341 2.08337Z" fill="#62809D"/>
<path d="M4.6341 7.91663H3.70926C2.64327 7.91663 2.0835 8.4764 2.0835 9.53754V10.4624C2.0835 11.5235 2.64327 12.0833 3.7044 12.0833H4.62923C5.69036 12.0833 6.25013 11.5235 6.25013 10.4624V9.53754C6.255 8.4764 5.69523 7.91663 4.6341 7.91663Z" fill="#62809D"/>
<path d="M4.6341 13.75H3.70926C2.64327 13.75 2.0835 14.3098 2.0835 15.3709V16.2958C2.0835 17.3569 2.64327 17.9167 3.7044 17.9167H4.62923C5.69036 17.9167 6.25013 17.3569 6.25013 16.2958V15.3709C6.255 14.3098 5.69523 13.75 4.6341 13.75Z" fill="#62809D"/>
<path d="M10.4623 2.08337H9.53742C8.47628 2.08337 7.9165 2.64315 7.9165 3.70429V4.62913C7.9165 5.69027 8.47628 6.25004 9.53742 6.25004H10.4623C11.5234 6.25004 12.0832 5.69027 12.0832 4.62913V3.70429C12.0832 2.64315 11.5234 2.08337 10.4623 2.08337Z" fill="#62809D"/>
<path d="M10.4623 7.91663H9.53742C8.47628 7.91663 7.9165 8.4764 7.9165 9.53754V10.4624C7.9165 11.5235 8.47628 12.0833 9.53742 12.0833H10.4623C11.5234 12.0833 12.0832 11.5235 12.0832 10.4624V9.53754C12.0832 8.4764 11.5234 7.91663 10.4623 7.91663Z" fill="#62809D"/>
<path d="M10.4623 13.75H9.53742C8.47628 13.75 7.9165 14.3098 7.9165 15.3709V16.2958C7.9165 17.3569 8.47628 17.9167 9.53742 17.9167H10.4623C11.5234 17.9167 12.0832 17.3569 12.0832 16.2958V15.3709C12.0832 14.3098 11.5234 13.75 10.4623 13.75Z" fill="#62809D"/>
<path d="M16.2958 2.08337H15.3709C14.3098 2.08337 13.75 2.64315 13.75 3.70429V4.62913C13.75 5.69027 14.3098 6.25004 15.3709 6.25004H16.2958C17.3569 6.25004 17.9167 5.69027 17.9167 4.62913V3.70429C17.9167 2.64315 17.3569 2.08337 16.2958 2.08337Z" fill="#62809D"/>
<path d="M16.2958 7.91663H15.3709C14.3098 7.91663 13.75 8.4764 13.75 9.53754V10.4624C13.75 11.5235 14.3098 12.0833 15.3709 12.0833H16.2958C17.3569 12.0833 17.9167 11.5235 17.9167 10.4624V9.53754C17.9167 8.4764 17.3569 7.91663 16.2958 7.91663Z" fill="#62809D"/>
<path d="M16.2958 13.75H15.3709C14.3098 13.75 13.75 14.3098 13.75 15.3709V16.2958C13.75 17.3569 14.3098 17.9167 15.3709 17.9167H16.2958C17.3569 17.9167 17.9167 17.3569 17.9167 16.2958V15.3709C17.9167 14.3098 17.3569 13.75 16.2958 13.75Z" fill="#62809D"/>
</svg>
