<svg width="16" height="16" viewBox="0 0 16 16" fill="none" xmlns="http://www.w3.org/2000/svg">
<path fill-rule="evenodd" clip-rule="evenodd" d="M15.1167 2.35833L13.9583 0.958333C13.7333 0.675 13.3917 0.5 13 0.5H3C2.60833 0.5 2.26667 0.675 2.03333 0.958333L0.883333 2.35833C0.641667 2.64167 0.5 3.01667 0.5 3.41667V13.8333C0.5 14.75 1.25 15.5 2.16667 15.5H13.8333C14.75 15.5 15.5 14.75 15.5 13.8333V3.41667C15.5 3.01667 15.3583 2.64167 15.1167 2.35833ZM7.70833 12.2917L3.41667 8H6.33333V6.33333H9.66667V8H12.5833L8.29167 12.2917C8.13333 12.45 7.86667 12.45 7.70833 12.2917ZM2.26667 2.16667L2.94167 1.33333H12.9417L13.725 2.16667H2.26667Z" fill="white"/>
</svg>
