<svg width="16" height="16" viewBox="0 0 16 16" fill="none" xmlns="http://www.w3.org/2000/svg">
<path d="M13.6523 9.99805C12.8075 12.3951 10.5425 13.9984 8.00094 13.9984C5.45941 13.9984 3.19436 12.3951 2.34961 9.99805" stroke="white" stroke-linecap="round" stroke-linejoin="round"/>
<path d="M14 8C14 4.68629 11.3137 2 8 2C4.68629 2 2 4.68629 2 8" stroke="white" stroke-linecap="round" stroke-linejoin="round"/>
<path d="M2 7.99984H3" stroke="white" stroke-linecap="round" stroke-linejoin="round"/>
<path d="M13 7.99984H14" stroke="white" stroke-linecap="round" stroke-linejoin="round"/>
<path fill-rule="evenodd" clip-rule="evenodd" d="M9.54313 6.02591L7.45544 6.88555C7.06229 7.04744 6.77607 7.3951 6.69268 7.81201C6.6093 8.22893 6.7398 8.65994 7.04044 8.96058V8.96058C7.34108 9.26123 7.77209 9.39173 8.189 9.30834C8.60592 9.22496 8.95358 8.93873 9.11547 8.54558L9.97511 6.45789C10.026 6.33437 9.99757 6.19237 9.90311 6.09791C9.80865 6.00345 9.66665 5.97505 9.54313 6.02591Z" stroke="white" stroke-linecap="round" stroke-linejoin="round"/>
<path d="M3.75781 3.75732L4.46495 4.46446" stroke="white" stroke-linecap="round" stroke-linejoin="round"/>
<path d="M7.99935 2V3" stroke="#323232" stroke-width="1.5" stroke-linecap="round" stroke-linejoin="round"/>
<path d="M12.2423 3.75732L11.5352 4.46446" stroke="#323232" stroke-width="1.5" stroke-linecap="round" stroke-linejoin="round"/>
</svg>
