<svg width="20" height="20" viewBox="0 0 20 20" fill="none" xmlns="http://www.w3.org/2000/svg">
<path opacity="0.4" d="M10.7417 4.90039H4.25831C2.83331 4.90039 1.66666 6.06705 1.66666 7.49205V16.9587C1.66666 18.1671 2.53332 18.6837 3.59165 18.092L6.86665 16.267C7.21665 16.0754 7.78332 16.0754 8.12499 16.267L11.4 18.092C12.4583 18.6837 13.325 18.1671 13.325 16.9587V7.49205C13.3333 6.06705 12.1667 4.90039 10.7417 4.90039Z" fill="white"/>
<path d="M18.3333 4.25865V13.7253C18.3333 14.9337 17.4667 15.442 16.4083 14.8586L13.3333 13.142V7.49198C13.3333 6.06698 12.1667 4.90033 10.7417 4.90033H6.66666V4.25865C6.66666 2.83365 7.83331 1.66699 9.25831 1.66699H15.7417C17.1667 1.66699 18.3333 2.83365 18.3333 4.25865Z" fill="white"/>
</svg>
