<svg width="16" height="16" viewBox="0 0 16 16" fill="none" xmlns="http://www.w3.org/2000/svg">
<path d="M6.0348 9.96606L3.9668 12.0341" stroke="white" stroke-linecap="round" stroke-linejoin="round"/>
<path d="M6.0348 12.0341L3.9668 9.96606" stroke="white" stroke-linecap="round" stroke-linejoin="round"/>
<path d="M2.66602 7.93727V5.39393C2.66602 4.56193 3.18135 3.8166 3.95935 3.5226L9.52802 1.41993C10.4007 1.09127 11.3327 1.73527 11.3327 2.66793V4.90127" stroke="white" stroke-linecap="round" stroke-linejoin="round"/>
<path d="M11.4987 9.40055C11.4067 9.40122 11.3327 9.47588 11.3327 9.56788C11.3327 9.65988 11.4073 9.73455 11.4993 9.73388C11.5913 9.73388 11.666 9.65922 11.666 9.56722C11.666 9.47522 11.5913 9.40055 11.4987 9.40055" stroke="white" stroke-linecap="round" stroke-linejoin="round"/>
<path d="M7.10735 14H11.9993C13.0993 14 13.9993 13.1 13.9993 12V6.90063C13.9993 5.79597 13.104 4.90063 11.9993 4.90063H3.99935C3.26268 4.90063 2.66602 5.4973 2.66602 6.23397V8.1713" stroke="white" stroke-linecap="round" stroke-linejoin="round"/>
</svg>
