<svg width="36" height="36" viewBox="0 0 36 36" fill="none" xmlns="http://www.w3.org/2000/svg">
<path d="M4.99414 8.39624C5.00512 10.8446 4.99414 13.293 4.99414 15.7815C4.99414 18.1897 5.00512 20.598 4.99414 23.0062C5.00512 20.598 4.99414 18.1897 4.99414 15.7815C4.99414 13.3331 5.00512 10.8848 4.99414 8.39624Z" fill="#FFFFFF"/>
<path d="M7.70312 7.67383C7.74703 10.3229 7.72508 12.9719 7.72508 15.6611C7.72508 17.668 7.73606 19.6347 7.72508 21.6416C7.73606 19.6347 7.72508 17.668 7.72508 15.6611C7.72508 12.9719 7.74703 10.3229 7.70312 7.67383Z" fill="#FFFFFF"/>
<path d="M2.25195 15.7815C2.25195 18.2299 2.25195 20.6782 2.25195 23.1668C2.26293 20.6782 2.25195 18.2299 2.25195 15.7815C2.25195 13.2529 2.25195 10.7242 2.25195 8.19556C2.26293 10.7242 2.25195 13.2529 2.25195 15.7815Z" fill="#FFFFFF"/>
<path d="M6.33789 9.68042C6.3818 11.6471 6.35985 13.654 6.35985 15.6207C6.35985 17.5875 6.39278 19.5943 6.34887 21.5611C6.39278 19.5943 6.37082 17.5875 6.35985 15.6207C6.34887 13.654 6.3818 11.6471 6.33789 9.68042Z" fill="#FFFFFF"/>
<path d="M14.3304 2.15938C14.3304 2.07409 14.2867 1.9888 14.2431 1.90351C13.8069 0.880009 12.3674 0.709426 11.5387 1.47705C11.3642 1.64763 11.1461 1.86086 10.9716 2.07409C10.7971 2.32997 10.928 2.79907 10.928 3.18289C10.928 12.8635 10.928 22.5015 10.928 32.1821C10.928 33.4614 11.0588 34.9114 12.6728 34.9967C14.5048 35.082 14.374 33.5041 14.374 32.2674C14.4176 27.4057 14.4176 22.5015 14.4176 17.6398C14.4176 14.0149 14.4176 10.39 14.4176 6.72249C14.4176 5.22989 14.5485 3.65199 14.3304 2.15938Z" fill="#FFFFFF"/>
<path d="M19.7827 17.7672C19.7827 15.1658 19.8263 12.5644 19.7827 9.92039C19.7827 9.06748 19.7391 8.17191 19.6954 7.319C19.6518 6.46608 18.8667 5.01612 18.2124 4.93083C16.7729 4.7176 16.2931 5.95433 16.3367 7.27635C16.3367 14.185 16.3367 21.051 16.3367 27.9596C16.3367 29.239 16.6856 30.5183 18.1251 30.3904C18.7358 30.3478 19.6518 28.8978 19.6954 28.0449C19.7391 27.192 19.7827 26.339 19.7827 25.4861C19.8263 22.8847 19.7827 20.326 19.7827 17.7672Z" fill="#FFFFFF"/>
<path d="M30.599 17.6397C30.599 14.8251 30.6862 11.9678 30.5118 9.15319C30.5118 8.93996 30.3809 8.68408 30.2064 8.47085C29.5957 7.70323 28.4616 7.61794 27.7201 8.25762C27.4583 8.5135 27.2402 8.76937 27.2402 8.9826C27.0658 14.6971 27.0658 20.4543 27.2402 26.1689C27.2402 26.4248 27.4147 26.638 27.6328 26.8512C28.418 27.6615 29.8575 27.5335 30.3809 26.5527C30.4681 26.3821 30.5118 26.2542 30.5118 26.0836C30.5554 25.3586 30.5554 24.6763 30.599 23.9513C30.6426 21.8616 30.599 19.7294 30.599 17.6397Z" fill="#FFFFFF"/>
<path d="M8.91931 9.70783C8.91931 8.51375 8.87569 7.23438 7.1745 7.23438C5.60417 7.27702 5.56055 8.42846 5.56055 9.5799C5.56055 14.9533 5.56055 20.3266 5.56055 25.6574C5.56055 26.8088 5.69141 28.0029 7.21812 28.0456C8.91931 28.0882 8.96293 26.7662 8.96293 25.5721C8.96293 22.9707 8.96293 20.3693 8.96293 17.7253C8.91931 15.0812 8.96293 12.3945 8.91931 9.70783Z" fill="#FFFFFF"/>
<path d="M25.1465 17.5973C25.1465 15.5076 25.2774 13.3753 25.0593 11.2857C25.0593 11.1151 25.0157 10.9872 24.9284 10.8592C24.405 9.87838 23.0091 9.79309 22.224 10.5607C22.0059 10.7739 21.875 10.9872 21.875 11.2004C21.7005 15.465 21.7005 19.7722 21.875 24.0368C21.875 24.25 22.0495 24.4633 22.2676 24.6765C23.0527 25.4441 24.405 25.3162 24.9284 24.3353C25.0157 24.2074 25.0593 24.0368 25.0593 23.9089C25.2774 21.8192 25.1901 19.6869 25.1465 17.5973Z" fill="#FFFFFF"/>
<path d="M35.8783 13.4177C35.8783 13.3324 35.8347 13.2472 35.7911 13.1619C35.3548 12.0957 33.8718 11.9251 33.043 12.6928C32.8249 12.906 32.6504 13.1192 32.6504 13.3324C32.4759 16.2324 32.4759 19.1323 32.6504 22.0322C32.6504 22.2454 32.8685 22.5013 33.0866 22.7145C33.7845 23.3116 34.9186 23.2689 35.5293 22.5439C35.7038 22.3307 35.8347 22.1601 35.8347 21.9043C36.0528 20.4969 35.9219 19.0043 35.9219 17.5544C35.9655 16.1471 36.0964 14.7824 35.8783 13.4177Z" fill="#FFFFFF"/>
<path d="M3.51143 15.7635C3.46781 15.6782 3.42419 15.5929 3.33695 15.5077C2.59541 14.4415 0.850596 14.3989 0.283532 15.5929C0.239912 15.6782 0.196291 15.7635 0.196291 15.8488C-0.0654304 17.0855 -0.0654304 18.4502 0.196291 19.6869C0.196291 19.7722 0.239912 19.8575 0.283532 19.9428C0.850596 21.1369 2.63903 21.0943 3.33695 19.9428C3.38057 19.9002 3.38057 19.8575 3.42419 19.7722C3.72954 19.1752 3.46781 18.3649 3.46781 17.6399H3.51143C3.55505 17.0003 3.77316 16.2753 3.51143 15.7635Z" fill="#FFFFFF"/>
</svg>
