<svg width="16" height="16" viewBox="0 0 16 16" fill="none" xmlns="http://www.w3.org/2000/svg">
<path d="M4 10.0003H4.66667" stroke="white" stroke-linecap="round" stroke-linejoin="round"/>
<path d="M6.82116 8.51217C6.17029 7.8613 6.17029 6.80602 6.82116 6.15515C7.47204 5.50427 8.52732 5.50427 9.17819 6.15515" stroke="white" stroke-linecap="round" stroke-linejoin="round"/>
<path d="M12.9831 8.68331C13.7087 9.41583 13.8682 10.5374 13.3757 11.4432C12.8832 12.349 11.855 12.8248 10.8458 12.614C9.83651 12.4032 9.0848 11.5556 8.99604 10.5284C8.90727 9.50119 9.50244 8.53725 10.4606 8.15642C11.3299 7.79816 12.3298 8.00701 12.9831 8.68329V8.68329V8.68329" stroke="white" stroke-linecap="round" stroke-linejoin="round"/>
<path d="M13 12L14 13" stroke="white" stroke-linecap="round" stroke-linejoin="round"/>
<path d="M6.66667 12.0003H4C2.89543 12.0003 2 11.1049 2 10.0003V4.66699C2 3.56242 2.89543 2.66699 4 2.66699H12C13.1046 2.66699 14 3.56242 14 4.66699V6.66699" stroke="white" stroke-linecap="round" stroke-linejoin="round"/>
</svg>
