<svg width="18" height="16" viewBox="0 0 18 16" fill="none" xmlns="http://www.w3.org/2000/svg">
<path d="M15.75 5.68336C14.2417 5.68336 13.625 4.6167 14.375 3.30836C14.8084 2.55003 14.55 1.58336 13.7917 1.15003L12.35 0.325028C11.6917 -0.0666382 10.8417 0.166695 10.45 0.825029L10.3584 0.983362C9.60835 2.2917 8.37502 2.2917 7.61669 0.983362L7.52502 0.825029C7.15002 0.166695 6.30002 -0.0666382 5.64169 0.325028L4.20002 1.15003C3.44169 1.58336 3.18335 2.55836 3.61669 3.3167C4.37502 4.6167 3.75835 5.68336 2.25002 5.68336C1.38335 5.68336 0.666687 6.3917 0.666687 7.2667V8.73336C0.666687 9.60003 1.37502 10.3167 2.25002 10.3167C3.75835 10.3167 4.37502 11.3834 3.61669 12.6917C3.18335 13.45 3.44169 14.4167 4.20002 14.85L5.64169 15.675C6.30002 16.0667 7.15002 15.8334 7.54169 15.175L7.63335 15.0167C8.38335 13.7084 9.61669 13.7084 10.375 15.0167L10.4667 15.175C10.8584 15.8334 11.7084 16.0667 12.3667 15.675L13.8084 14.85C14.5667 14.4167 14.825 13.4417 14.3917 12.6917C13.6334 11.3834 14.25 10.3167 15.7584 10.3167C16.625 10.3167 17.3417 9.60836 17.3417 8.73336V7.2667C17.3334 6.40003 16.625 5.68336 15.75 5.68336ZM9.00002 10.7084C7.50835 10.7084 6.29169 9.4917 6.29169 8.00003C6.29169 6.50836 7.50835 5.2917 9.00002 5.2917C10.4917 5.2917 11.7084 6.50836 11.7084 8.00003C11.7084 9.4917 10.4917 10.7084 9.00002 10.7084Z" fill="#969696"/>
</svg>
