<svg width="18" height="18" viewBox="0 0 18 18" fill="none" xmlns="http://www.w3.org/2000/svg">
<path d="M17.0582 4.7915C16.5249 2.98317 15.0166 1.47484 13.2082 0.941505C11.8332 0.541505 10.8832 0.574839 10.2249 1.06651C9.43322 1.65817 9.34155 2.72484 9.34155 3.48317V5.55817C9.34155 7.60817 10.2749 8.64984 12.1082 8.64984H14.4999C15.2499 8.64984 16.3249 8.55817 16.9166 7.76651C17.4249 7.11651 17.4666 6.16651 17.0582 4.7915Z" fill="white"/>
<path opacity="0.4" d="M14.7582 10.133C14.5416 9.88297 14.2249 9.7413 13.8999 9.7413H10.9166C9.44991 9.7413 8.25825 8.54964 8.25825 7.08297V4.09964C8.25825 3.77464 8.11658 3.45797 7.86658 3.2413C7.62492 3.02464 7.29158 2.92464 6.97492 2.9663C5.01658 3.2163 3.21658 4.2913 2.04158 5.90797C0.858249 7.53297 0.424915 9.5163 0.799915 11.4996C1.34158 14.3663 3.63325 16.658 6.50825 17.1996C6.96658 17.2913 7.42491 17.333 7.88325 17.333C9.39158 17.333 10.8499 16.8663 12.0916 15.958C13.7082 14.783 14.7832 12.983 15.0332 11.0246C15.0749 10.6996 14.9749 10.3746 14.7582 10.133Z" fill="white"/>
</svg>
