<svg width="20" height="20" viewBox="0 0 20 20" fill="none" xmlns="http://www.w3.org/2000/svg">
<path fill-rule="evenodd" clip-rule="evenodd" d="M13.75 10C14.9 10 15.825 9.06669 15.825 7.91669C15.825 6.76669 14.9 5.83335 13.75 5.83335C12.6 5.83335 11.6667 6.76669 11.6667 7.91669C11.6667 9.06669 12.6 10 13.75 10ZM7.50001 9.16669C8.88334 9.16669 9.99167 8.05002 9.99167 6.66669C9.99167 5.28335 8.88334 4.16669 7.50001 4.16669C6.11667 4.16669 5.00001 5.28335 5.00001 6.66669C5.00001 8.05002 6.11667 9.16669 7.50001 9.16669ZM13.75 11.6667C12.225 11.6667 9.16667 12.4334 9.16667 13.9584V15C9.16667 15.4584 9.54167 15.8334 10 15.8334H17.5C17.9583 15.8334 18.3333 15.4584 18.3333 15V13.9584C18.3333 12.4334 15.275 11.6667 13.75 11.6667ZM7.50001 10.8334C5.55834 10.8334 1.66667 11.8084 1.66667 13.75V15C1.66667 15.4584 2.04167 15.8334 2.50001 15.8334H7.50001V13.9584C7.50001 13.25 7.77501 12.0084 9.47501 11.0667C8.75001 10.9167 8.05001 10.8334 7.50001 10.8334Z" fill="#969696"/>
</svg>
