<svg width="16" height="16" viewBox="0 0 16 16" fill="none" xmlns="http://www.w3.org/2000/svg">
<path d="M6.33268 10.3333L4.66602 11.9999L3.66602 10.9999" stroke="white" stroke-linecap="round" stroke-linejoin="round"/>
<path fill-rule="evenodd" clip-rule="evenodd" d="M6.5 14H3.5C2.67133 14 2 13.3287 2 12.5V9.5C2 8.67133 2.67133 8 3.5 8H6.5C7.32867 8 8 8.67133 8 9.5V12.5C8 13.3287 7.32867 14 6.5 14Z" stroke="white" stroke-linecap="round" stroke-linejoin="round"/>
<path d="M9.33398 6.66675L11.334 4.66675" stroke="white" stroke-linecap="round" stroke-linejoin="round"/>
<path d="M11.334 6.66675V4.66675H9.33398" stroke="white" stroke-linecap="round" stroke-linejoin="round"/>
<path d="M10 14H11.3333C12.806 14 14 12.806 14 11.3333V4.66667C14 3.194 12.806 2 11.3333 2H4.66667C3.194 2 2 3.194 2 4.66667V6" stroke="white" stroke-linecap="round" stroke-linejoin="round"/>
</svg>
