<svg width="14" height="9" viewBox="0 0 14 9" fill="none" xmlns="http://www.w3.org/2000/svg">
<path d="M4.33301 2.66667H9.66634V4H4.33301V2.66667ZM12.3997 3.33333H13.6663C13.6663 1.49333 12.173 0 10.333 0H7.66634V1.26667H10.333C11.473 1.26667 12.3997 2.19333 12.3997 3.33333ZM1.59967 3.33333C1.59967 2.19333 2.52634 1.26667 3.66634 1.26667H6.33301V0H3.66634C1.82634 0 0.333008 1.49333 0.333008 3.33333C0.333008 5.17333 1.82634 6.66667 3.66634 6.66667H6.33301V5.4H3.66634C2.52634 5.4 1.59967 4.47333 1.59967 3.33333ZM11.6663 3.33333H10.333V5.33333H8.33301V6.66667H10.333V8.66667H11.6663V6.66667H13.6663V5.33333H11.6663V3.33333Z" fill="#2C5DE5"/>
</svg>
