<svg width="16" height="16" viewBox="0 0 16 16" fill="none" xmlns="http://www.w3.org/2000/svg">
<path d="M13.1198 3.86499V8.33795" stroke="#6BAA55" stroke-width="1.5" stroke-linecap="round" stroke-linejoin="round"/>
<path d="M13.7599 12.1779H9.91992" stroke="#6BAA55" stroke-width="1.5" stroke-linecap="round" stroke-linejoin="round"/>
<path d="M12.4805 10.8979L13.7605 12.1779L12.4805 13.4579" stroke="#6BAA55" stroke-width="1.5" stroke-linecap="round" stroke-linejoin="round"/>
<path d="M7.36023 10.8979H3.52023C2.81303 10.8979 2.24023 10.3251 2.24023 9.61795V3.86499" stroke="#6BAA55" stroke-width="1.5" stroke-linecap="round" stroke-linejoin="round"/>
<path fill-rule="evenodd" clip-rule="evenodd" d="M3.52727 2.57788H11.8338C12.5442 2.57788 13.1209 3.15388 13.1209 3.86492V3.86492C13.1209 4.2918 12.909 4.69052 12.5558 4.92988L9.12727 7.25372C8.25367 7.84572 7.10679 7.84572 6.23319 7.25372L2.80535 4.93052C2.45207 4.69116 2.24023 4.2918 2.24023 3.86556V3.86492C2.24023 3.15388 2.81623 2.57788 3.52727 2.57788Z" stroke="#6BAA55" stroke-width="1.5" stroke-linecap="round" stroke-linejoin="round"/>
</svg>
