<svg width="14" height="14" viewBox="0 0 14 14" fill="none" xmlns="http://www.w3.org/2000/svg">
<path d="M8.27397 5.72741C8.97692 6.43035 8.97692 7.57005 8.27397 8.27299C7.57102 8.97594 6.43133 8.97594 5.72838 8.27299C5.02544 7.57005 5.02544 6.43035 5.72838 5.72741C6.43133 5.02446 7.57102 5.02446 8.27397 5.72741" stroke="white" stroke-linecap="round" stroke-linejoin="round"/>
<path fill-rule="evenodd" clip-rule="evenodd" d="M2.50024 7C2.50024 7.198 2.51824 7.396 2.54224 7.588L1.48357 8.416C1.24891 8.6 1.18491 8.92867 1.33424 9.18667L2.27557 10.8153C2.42424 11.0733 2.74024 11.182 3.01691 11.0713L3.96491 10.6907C4.15224 10.6153 4.36091 10.6453 4.52891 10.7567C4.67557 10.854 4.82757 10.9433 4.98491 11.0233C5.16491 11.1147 5.29557 11.278 5.32424 11.478L5.46891 12.4867C5.51091 12.7813 5.76357 13 6.06091 13H7.93891C8.23624 13 8.48891 12.7813 8.53091 12.4867L8.67557 11.4787C8.70424 11.2787 8.83624 11.114 9.01691 11.0233C9.17357 10.9447 9.32491 10.856 9.47091 10.7593C9.64024 10.6473 9.84957 10.6153 10.0376 10.6913L10.9836 11.0713C11.2596 11.182 11.5756 11.0733 11.7249 10.8153L12.6662 9.18667C12.8156 8.92867 12.7516 8.59933 12.5169 8.416L11.4582 7.588C11.4822 7.396 11.5002 7.198 11.5002 7C11.5002 6.802 11.4822 6.604 11.4582 6.412L12.5169 5.584C12.7516 5.4 12.8156 5.07133 12.6662 4.81333L11.7249 3.18467C11.5762 2.92667 11.2602 2.818 10.9836 2.92867L10.0376 3.30867C9.84957 3.384 9.64024 3.35267 9.47091 3.24067C9.32491 3.144 9.17357 3.05533 9.01691 2.97667C8.83624 2.886 8.70424 2.72133 8.67557 2.52133L8.53157 1.51333C8.48957 1.21867 8.23691 1 7.93957 1H6.06157C5.76424 1 5.51157 1.21867 5.46957 1.51333L5.32424 2.52267C5.29557 2.722 5.16424 2.886 4.98491 2.97733C4.82757 3.05733 4.67557 3.14733 4.52891 3.244C4.36024 3.35467 4.15157 3.38467 3.96424 3.30933L3.01691 2.92867C2.74024 2.818 2.42424 2.92667 2.27557 3.18467L1.33424 4.81333C1.18491 5.07133 1.24891 5.40067 1.48357 5.584L2.54224 6.412C2.51824 6.604 2.50024 6.802 2.50024 7V7Z" stroke="white" stroke-linecap="round" stroke-linejoin="round"/>
</svg>
