<svg width="12" height="13" viewBox="0 0 12 13" fill="none" xmlns="http://www.w3.org/2000/svg">
<path d="M3.17072 3.19613H2.46484" stroke="white" stroke-linecap="round" stroke-linejoin="round"/>
<path d="M10.2313 3.19613H9.52539" stroke="white" stroke-linecap="round" stroke-linejoin="round"/>
<path d="M4.23134 1.07851L3.7322 0.579372" stroke="white" stroke-linecap="round" stroke-linejoin="round"/>
<path d="M8.46658 1.07851L8.96571 0.579372" stroke="white" stroke-linecap="round" stroke-linejoin="round"/>
<path d="M4.16732 6.25781V11.6668" stroke="white" stroke-width="1.5" stroke-linecap="round" stroke-linejoin="round"/>
<path d="M7.7793 6.25781H9.2776C9.70778 6.25781 10.1148 6.45284 10.3843 6.78812C10.6538 7.12341 10.7567 7.5628 10.6643 7.98292L10.0987 10.5522C9.9554 11.2031 9.37859 11.6668 8.71204 11.6668" stroke="white" stroke-width="1.5" stroke-linecap="round" stroke-linejoin="round"/>
<path d="M8.71213 11.6668H2.17868C1.7866 11.6668 1.46875 11.349 1.46875 10.9569V6.96774C1.46875 6.57566 1.7866 6.25781 2.17868 6.25781H4.17325" stroke="white" stroke-width="1.5" stroke-linecap="round" stroke-linejoin="round"/>
<path d="M7.77993 6.25788V4.28772C7.77993 3.92908 7.57725 3.60124 7.25643 3.44095L7.01694 3.32129C6.43957 3.03282 5.73754 3.26026 5.43903 3.8325L4.17383 6.25788" stroke="white" stroke-width="1.5" stroke-linecap="round" stroke-linejoin="round"/>
</svg>
