<svg width="20" height="20" viewBox="0 0 20 20" fill="none" xmlns="http://www.w3.org/2000/svg">
<path fill-rule="evenodd" clip-rule="evenodd" d="M4.16667 4.99998H15.8333C16.2917 4.99998 16.6667 4.62498 16.6667 4.16665C16.6667 3.70831 16.2917 3.33331 15.8333 3.33331H4.16667C3.70833 3.33331 3.33333 3.70831 3.33333 4.16665C3.33333 4.62498 3.70833 4.99998 4.16667 4.99998ZM16.8 6.49998C16.725 6.11665 16.3833 5.83331 15.9833 5.83331H4.01667C3.61667 5.83331 3.275 6.11665 3.2 6.49998L2.36667 10.6666C2.26667 11.1833 2.65833 11.6666 3.18333 11.6666H3.33333V15.8333C3.33333 16.2916 3.70833 16.6666 4.16667 16.6666H10.8333C11.2917 16.6666 11.6667 16.2916 11.6667 15.8333V11.6666H15V15.8333C15 16.2916 15.375 16.6666 15.8333 16.6666C16.2917 16.6666 16.6667 16.2916 16.6667 15.8333V11.6666H16.8167C17.3417 11.6666 17.7333 11.1833 17.6333 10.6666L16.8 6.49998ZM10 15H5V11.6666H10V15Z" fill="#969696"/>
</svg>
