<svg width="20" height="20" viewBox="0 0 20 20" fill="none" xmlns="http://www.w3.org/2000/svg">
<path d="M15.8333 6.66699C17.214 6.66699 18.3333 5.5477 18.3333 4.16699C18.3333 2.78628 17.214 1.66699 15.8333 1.66699C14.4525 1.66699 13.3333 2.78628 13.3333 4.16699C13.3333 5.5477 14.4525 6.66699 15.8333 6.66699Z" fill="white"/>
<path opacity="0.4" d="M15.8334 7.91667C13.7667 7.91667 12.0834 6.23333 12.0834 4.16667C12.0834 3.56667 12.2417 3.00833 12.4917 2.5H6.26675C3.39175 2.5 1.66675 4.21667 1.66675 7.1V13.725C1.66675 16.6167 3.39175 18.3333 6.26675 18.3333H12.8917C15.7751 18.3333 17.4917 16.6167 17.4917 13.7333V7.50833C16.9917 7.75833 16.4334 7.91667 15.8334 7.91667Z" fill="white"/>
<path d="M9.79167 11.667H5.625C5.28333 11.667 5 11.3837 5 11.042C5 10.7003 5.28333 10.417 5.625 10.417H9.79167C10.1333 10.417 10.4167 10.7003 10.4167 11.042C10.4167 11.3837 10.1333 11.667 9.79167 11.667Z" fill="white"/>
<path d="M13.125 15H5.625C5.28333 15 5 14.7167 5 14.375C5 14.0333 5.28333 13.75 5.625 13.75H13.125C13.4667 13.75 13.75 14.0333 13.75 14.375C13.75 14.7167 13.4667 15 13.125 15Z" fill="white"/>
</svg>
