<svg width="12" height="12" viewBox="0 0 12 12" fill="none" xmlns="http://www.w3.org/2000/svg">
<path d="M10.105 3.90997L6.25499 6.13997C6.09999 6.22997 5.90498 6.22997 5.74499 6.13997L1.89499 3.90997C1.61999 3.74997 1.54999 3.37497 1.75999 3.13997C1.90499 2.97497 2.06999 2.83997 2.24499 2.74497L4.95499 1.24497C5.53499 0.919971 6.47499 0.919971 7.05499 1.24497L9.76499 2.74497C9.93999 2.83997 10.105 2.97997 10.25 3.13997C10.45 3.37497 10.38 3.74997 10.105 3.90997Z" fill="#969696"/>
<path d="M5.71499 7.06994V10.4799C5.71499 10.8599 5.32999 11.1099 4.98999 10.9449C3.95999 10.4399 2.22499 9.49494 2.22499 9.49494C1.61499 9.14994 1.11499 8.27994 1.11499 7.56494V4.98494C1.11499 4.58994 1.52999 4.33994 1.86999 4.53494L5.46499 6.61994C5.61499 6.71494 5.71499 6.88494 5.71499 7.06994Z" fill="#969696"/>
<path d="M6.285 7.06994V10.4799C6.285 10.8599 6.67 11.1099 7.01 10.9449C8.04 10.4399 9.775 9.49494 9.775 9.49494C10.385 9.14994 10.885 8.27994 10.885 7.56494V4.98494C10.885 4.58994 10.47 4.33994 10.13 4.53494L6.535 6.61994C6.385 6.71494 6.285 6.88494 6.285 7.06994Z" fill="#969696"/>
</svg>
