<svg width="16" height="16" viewBox="0 0 16 16" fill="none" xmlns="http://www.w3.org/2000/svg">
<path d="M8.66759 14.0024H4.66592C3.92923 14.0024 3.33203 13.4052 3.33203 12.6685V7.9999C3.33203 7.26322 3.92923 6.66602 4.66592 6.66602H11.3354C12.0721 6.66602 12.6693 7.26322 12.6693 7.9999V8.66685" stroke="#6BAA55" stroke-width="1.5" stroke-linecap="round" stroke-linejoin="round"/>
<path fill-rule="evenodd" clip-rule="evenodd" d="M10.001 11.9469V11.0584C10.001 10.876 10.1195 10.7149 10.2935 10.6605L11.544 10.2697C11.625 10.2444 11.7117 10.2444 11.7927 10.2697L13.0432 10.6605C13.2172 10.7149 13.3357 10.876 13.3357 11.0584V11.9469C13.3357 12.8156 12.7968 13.5933 11.9833 13.8983L11.7415 13.989C11.6943 14.0067 11.6423 14.0067 11.5952 13.989L11.3534 13.8983C10.5399 13.5933 10.001 12.8156 10.001 11.9469Z" stroke="#6BAA55" stroke-width="1.5" stroke-linecap="round" stroke-linejoin="round"/>
<path d="M5.33301 6.66593V4.66509V4.66509C5.33301 3.19172 6.52741 1.99731 8.00079 1.99731V1.99731C9.47416 1.99731 10.6686 3.19172 10.6686 4.66509V4.66509V6.66593" stroke="#6BAA55" stroke-width="1.5" stroke-linecap="round" stroke-linejoin="round"/>
</svg>
