<?xml version="1.0" encoding="UTF-8"?>
<svg xmlns:xlink="http://www.w3.org/1999/xlink" xmlns="http://www.w3.org/2000/svg" width="120px" height="120px" viewBox="0 0 120 120" version="1.1">
<g id="surface1">
<path style="stroke:none;fill-rule:evenodd;fill:rgb(85.882353%,85.882353%,85.882353%);fill-opacity:1;" d="M 59.730469 119.996094 C 92.964844 119.972656 119.886719 93.109375 119.867188 59.996094 C 119.867188 26.863281 92.933594 -0.00390625 59.71875 -0.00390625 C 26.484375 0.0195312 -0.4375 26.882812 -0.414062 59.996094 C -0.414062 93.140625 26.515625 119.996094 59.71875 119.996094 Z M 59.730469 119.996094 "/>
<path style="stroke:none;fill-rule:nonzero;fill:rgb(58.823529%,58.823529%,58.823529%);fill-opacity:1;" d="M 18.000608 18.000608 C 15.054884 18.000608 12.669726 15.615451 12.669726 12.669726 C 12.669726 9.727666 15.054884 7.338845 18.000608 7.338845 C 20.942668 7.338845 23.331489 9.727666 23.331489 12.669726 C 23.331489 15.615451 20.942668 18.000608 18.000608 18.000608 Z M 18.000608 20.671544 C 21.558193 20.671544 28.669698 22.448505 28.669698 25.998762 L 28.669698 27.328734 C 28.669698 28.068829 28.068829 28.669698 27.328734 28.669698 L 8.668818 28.669698 C 7.939714 28.669698 7.331517 28.068829 7.331517 27.328734 L 7.331517 25.998762 C 7.331517 22.448505 14.439359 20.671544 18.000608 20.671544 Z M 18.000608 20.671544 " transform="matrix(1.066164,0,0,1.066164,40.8084,40.8084)"/>
</g>
</svg>
