<svg width="14" height="14" viewBox="0 0 14 14" fill="none" xmlns="http://www.w3.org/2000/svg">
<path d="M10.3005 3.70033C12.1229 5.52278 12.1229 8.47754 10.3005 10.3C8.47803 12.1224 5.52327 12.1224 3.70082 10.3C1.87837 8.47754 1.87837 5.52278 3.70082 3.70033C5.52327 1.87788 8.47803 1.87788 10.3005 3.70033" stroke="white" stroke-width="1.5" stroke-linecap="round" stroke-linejoin="round"/>
<path d="M7.94216 6.05703C8.46286 6.57773 8.46286 7.42195 7.94216 7.94265C7.42146 8.46335 6.57724 8.46335 6.05654 7.94265C5.53584 7.42195 5.53584 6.57773 6.05654 6.05703C6.57724 5.53633 7.42146 5.53633 7.94216 6.05703" stroke="white" stroke-width="1.5" stroke-linecap="round" stroke-linejoin="round"/>
<path d="M6.99935 13.0002V10.3335" stroke="white" stroke-width="1.5" stroke-linecap="round" stroke-linejoin="round"/>
<path d="M6.99935 1V3.66667" stroke="white" stroke-width="1.5" stroke-linecap="round" stroke-linejoin="round"/>
<path d="M3.66667 6.99984H1" stroke="white" stroke-width="1.5" stroke-linecap="round" stroke-linejoin="round"/>
<path d="M13.0007 6.99984H10.334" stroke="white" stroke-width="1.5" stroke-linecap="round" stroke-linejoin="round"/>
</svg>
