<svg width="20" height="20" viewBox="0 0 20 20" fill="none" xmlns="http://www.w3.org/2000/svg">
<g clip-path="url(#clip0_270_105812)">
<rect width="20" height="20" rx="2" fill="white"/>
<rect width="20" height="20" fill="#6BAA55"/>
<path d="M8.47058 3.39976C8.47058 3.36423 8.45241 3.32869 8.43423 3.29315C8.25248 2.86669 7.6527 2.79561 7.30738 3.11546C7.23468 3.18653 7.1438 3.27538 7.0711 3.36423C6.9984 3.47084 7.05292 3.6663 7.05292 3.82622C7.05292 7.85981 7.05292 11.8756 7.05292 15.9092C7.05292 16.4423 7.10745 17.0464 7.77993 17.082C8.54328 17.1175 8.48876 16.4601 8.48876 15.9448C8.50693 13.9191 8.50693 11.8756 8.50693 9.84995C8.50693 8.33957 8.50693 6.8292 8.50693 5.30106C8.50693 4.67914 8.56146 4.02168 8.47058 3.39976Z" fill="white"/>
<path d="M10.7428 9.90303C10.7428 8.81912 10.761 7.7352 10.7428 6.63352C10.7428 6.27814 10.7246 5.90498 10.7065 5.5496C10.6883 5.19422 10.3611 4.59007 10.0885 4.55453C9.48872 4.46569 9.2888 4.98099 9.30697 5.53183C9.30697 8.41043 9.30697 11.2713 9.30697 14.1498C9.30697 14.6829 9.45237 15.216 10.0522 15.1627C10.3066 15.1449 10.6883 14.5408 10.7065 14.1854C10.7246 13.83 10.7428 13.4746 10.7428 13.1192C10.761 12.0353 10.7428 10.9692 10.7428 9.90303Z" fill="white"/>
<path d="M15.2497 9.8499C15.2497 8.67714 15.286 7.48661 15.2133 6.31385C15.2133 6.225 15.1588 6.11839 15.0861 6.02954C14.8317 5.7097 14.3591 5.67416 14.0501 5.9407C13.9411 6.04731 13.8502 6.15393 13.8502 6.24277C13.7775 8.62383 13.7775 11.0227 13.8502 13.4037C13.8502 13.5103 13.9229 13.5992 14.0138 13.688C14.3409 14.0256 14.9407 13.9723 15.1588 13.5636C15.1952 13.4926 15.2133 13.4393 15.2133 13.3682C15.2315 13.0661 15.2315 12.7818 15.2497 12.4797C15.2679 11.609 15.2497 10.7206 15.2497 9.8499Z" fill="white"/>
<path d="M6.21671 6.54495C6.21671 6.04742 6.19854 5.51434 5.48971 5.51434C4.83541 5.53211 4.81723 6.01188 4.81723 6.49164C4.81723 8.73055 4.81723 10.9695 4.81723 13.1906C4.81723 13.6704 4.87176 14.1679 5.50788 14.1857C6.21671 14.2034 6.23489 13.6526 6.23489 13.1551C6.23489 12.0711 6.23489 10.9872 6.23489 9.88554C6.21671 8.78386 6.23489 7.6644 6.21671 6.54495Z" fill="white"/>
<path d="M12.9781 9.83224C12.9781 8.96155 13.0326 8.0731 12.9417 7.20241C12.9417 7.13134 12.9235 7.07803 12.8872 7.02472C12.6691 6.61603 12.0875 6.58049 11.7603 6.90034C11.6694 6.98918 11.6149 7.07803 11.6149 7.16687C11.5422 8.94378 11.5422 10.7385 11.6149 12.5154C11.6149 12.6042 11.6876 12.6931 11.7785 12.7819C12.1056 13.1018 12.6691 13.0484 12.8872 12.6398C12.9235 12.5864 12.9417 12.5154 12.9417 12.4621C13.0326 11.5914 12.9962 10.7029 12.9781 9.83224Z" fill="white"/>
<path d="M17.4489 8.09076C17.4489 8.05522 17.4307 8.01969 17.4125 7.98415C17.2308 7.53992 16.6128 7.46884 16.2675 7.78869C16.1766 7.87753 16.1039 7.96638 16.1039 8.05522C16.0312 9.26352 16.0312 10.4718 16.1039 11.6801C16.1039 11.769 16.1948 11.8756 16.2857 11.9644C16.5765 12.2132 17.049 12.1954 17.3035 11.8934C17.3762 11.8045 17.4307 11.7334 17.4307 11.6268C17.5216 11.0404 17.4671 10.4185 17.4671 9.81437C17.4852 9.22799 17.5398 8.65937 17.4489 8.09076Z" fill="white"/>
<path d="M3.96304 9.0682C3.94486 9.03266 3.92669 8.99712 3.89034 8.96158C3.58136 8.51736 2.85435 8.49959 2.61808 8.99712C2.5999 9.03266 2.58173 9.0682 2.58173 9.10374C2.47268 9.61904 2.47268 10.1877 2.58173 10.703C2.58173 10.7385 2.5999 10.774 2.61808 10.8096C2.85435 11.3071 3.59953 11.2893 3.89034 10.8096C3.90851 10.7918 3.90851 10.774 3.92669 10.7385C4.05391 10.4897 3.94486 10.1521 3.94486 9.85004H3.96304C3.98121 9.5835 4.07209 9.28143 3.96304 9.0682Z" fill="white"/>
</g>
<defs>
<clipPath id="clip0_270_105812">
<rect width="20" height="20" rx="2" fill="white"/>
</clipPath>
</defs>
</svg>
