<svg width="20" height="20" viewBox="0 0 20 20" fill="none" xmlns="http://www.w3.org/2000/svg">
<path opacity="0.4" d="M17.5 1.66699V11.7503C17.5 13.3337 16.6667 14.167 15.0833 14.167H4.91666C3.33333 14.167 2.5 13.3337 2.5 11.7503V1.66699H17.5Z" fill="white"/>
<path d="M18.3334 2.29199H1.66675C1.32508 2.29199 1.04175 2.00866 1.04175 1.66699C1.04175 1.32533 1.32508 1.04199 1.66675 1.04199H18.3334C18.6751 1.04199 18.9584 1.32533 18.9584 1.66699C18.9584 2.00866 18.6751 2.29199 18.3334 2.29199Z" fill="white"/>
<path d="M13.8917 18.617C13.7833 18.8337 13.5583 18.9587 13.3333 18.9587C13.2416 18.9587 13.1417 18.9337 13.0583 18.892L9.99998 17.367L6.94163 18.892C6.8583 18.9337 6.75831 18.9587 6.66664 18.9587C6.44164 18.9587 6.21663 18.8337 6.1083 18.617C5.94997 18.3003 6.07499 17.9253 6.39166 17.7753L9.37498 16.2837V14.167H10.625V16.2837L13.6083 17.7753C13.925 17.9253 14.05 18.3003 13.8917 18.617Z" fill="white"/>
<path d="M6.2501 9.79209C6.0751 9.79209 5.89178 9.7171 5.76678 9.5671C5.54178 9.30044 5.58343 8.90877 5.85009 8.68377L8.47511 6.4921C8.71678 6.2921 9.02509 6.20877 9.31676 6.25877C9.61676 6.30877 9.87511 6.49208 10.0334 6.75875L10.9084 8.21708L13.3501 6.18377C13.6168 5.95877 14.0084 6.00042 14.2334 6.26708C14.4584 6.53375 14.4168 6.92542 14.1501 7.15042L11.5251 9.34209C11.2834 9.54209 10.9751 9.62542 10.6834 9.57542C10.3834 9.52542 10.1251 9.3421 9.96676 9.07544L9.09177 7.61711L6.65011 9.65041C6.53344 9.74208 6.39177 9.79209 6.2501 9.79209Z" fill="white"/>
</svg>
