<svg width="14" height="12" viewBox="0 0 14 12" fill="none" xmlns="http://www.w3.org/2000/svg">
<path fill-rule="evenodd" clip-rule="evenodd" d="M5.61685 10.3162C5.39182 10.5416 5.08644 10.6684 4.76794 10.6685C4.44944 10.6687 4.14393 10.5423 3.91865 10.3171L1.34988 7.74972C1.12461 7.52457 0.998047 7.21913 0.998047 6.90063C0.998047 6.58214 1.12461 6.27669 1.34988 6.05154L5.68168 1.72173C5.93182 1.47173 6.27101 1.3313 6.62467 1.3313H9.00137C9.73806 1.3313 10.3353 1.9285 10.3353 2.66519V5.0385C10.3353 5.3919 10.195 5.73086 9.94532 5.98096L5.61685 10.3162Z" stroke="white" stroke-linecap="round" stroke-linejoin="round"/>
<path d="M13.003 3.33203V5.86469C13.003 6.21846 12.8625 6.55773 12.6123 6.80789L8.83594 10.5843" stroke="white" stroke-linecap="round" stroke-linejoin="round"/>
</svg>
