<svg width="20" height="20" viewBox="0 0 20 20" fill="none" xmlns="http://www.w3.org/2000/svg">
<path d="M17 9.58341C17 13.6795 13.6795 17.0001 9.58335 17.0001C5.48724 17.0001 2.16669 13.6795 2.16669 9.58341C2.16669 5.4873 5.48724 2.16675 9.58335 2.16675C13.6795 2.16675 17 5.4873 17 9.58341Z" fill="#969696" stroke="#969696"/>
<path d="M17.75 17.8332C17.7256 17.8332 17.7049 17.8227 17.6952 17.813L16.1452 16.263C16.1197 16.2375 16.1104 16.185 16.1481 16.1424C16.1749 16.1187 16.2262 16.1115 16.2676 16.1496L17.8131 17.6951C17.8374 17.7194 17.847 17.768 17.8155 17.8094C17.7924 17.8267 17.7682 17.8332 17.75 17.8332Z" fill="#969696" stroke="#969696"/>
</svg>
