<svg width="20" height="20" viewBox="0 0 20 20" fill="none" xmlns="http://www.w3.org/2000/svg">
<path d="M15.425 6.875C15.8417 6.875 16.175 6.54167 16.175 6.125V2.25C16.175 1.83333 15.8417 1.5 15.425 1.5C15.0083 1.5 14.675 1.83333 14.675 2.25V6.125C14.675 6.53333 15.0167 6.875 15.425 6.875Z" fill="#969696"/>
<path d="M10 13.125C9.58333 13.125 9.25 13.4583 9.25 13.875V17.75C9.25 18.1667 9.58333 18.5 10 18.5C10.4167 18.5 10.75 18.1667 10.75 17.75V13.875C10.75 13.4667 10.4167 13.125 10 13.125Z" fill="#969696"/>
<path d="M4.57501 6.875C4.99168 6.875 5.32501 6.54167 5.32501 6.125V2.25C5.32501 1.83333 4.99168 1.5 4.57501 1.5C4.15835 1.5 3.82501 1.83333 3.82501 2.25V6.125C3.82501 6.53333 4.15835 6.875 4.57501 6.875Z" fill="#969696"/>
<path d="M6.12499 8.47498H3.02499C2.60833 8.47498 2.27499 8.80831 2.27499 9.22498C2.27499 9.64164 2.60833 9.97498 3.02499 9.97498H3.82499V17.75C3.82499 18.1666 4.15833 18.5 4.57499 18.5C4.99166 18.5 5.32499 18.1666 5.32499 17.75V9.97498H6.12499C6.54166 9.97498 6.87499 9.64164 6.87499 9.22498C6.87499 8.80831 6.53333 8.47498 6.12499 8.47498Z" fill="#969696"/>
<path d="M16.975 8.47498H13.875C13.4583 8.47498 13.125 8.80831 13.125 9.22498C13.125 9.64164 13.4583 9.97498 13.875 9.97498H14.675V17.75C14.675 18.1666 15.0083 18.5 15.425 18.5C15.8417 18.5 16.175 18.1666 16.175 17.75V9.97498H16.975C17.3917 9.97498 17.725 9.64164 17.725 9.22498C17.725 8.80831 17.3917 8.47498 16.975 8.47498Z" fill="#969696"/>
<path d="M11.55 10.025H10.75V2.25C10.75 1.83333 10.4167 1.5 10 1.5C9.58335 1.5 9.25001 1.83333 9.25001 2.25V10.025H8.45001C8.03335 10.025 7.70001 10.3583 7.70001 10.775C7.70001 11.1917 8.03335 11.525 8.45001 11.525H11.55C11.9667 11.525 12.3 11.1917 12.3 10.775C12.3 10.3583 11.9667 10.025 11.55 10.025Z" fill="#969696"/>
</svg>
