<svg width="20" height="20" viewBox="0 0 20 20" fill="none" xmlns="http://www.w3.org/2000/svg">
<path opacity="0.4" d="M17.5417 9.75875V14.7504C17.5417 17.0504 15.675 18.9171 13.375 18.9171H6.09172C5.90005 18.9171 5.70839 18.9004 5.52505 18.8754C5.83339 18.7421 6.10839 18.5587 6.35839 18.3337C6.39172 18.3087 6.4167 18.2838 6.4417 18.2504C6.6667 18.0588 6.85837 17.8171 7.0167 17.5504C7.32504 17.0504 7.50005 16.4587 7.50005 15.8337C7.50005 14.9587 7.15838 14.1671 6.60838 13.5671C6.52504 13.4754 6.43336 13.3837 6.33336 13.3087C5.75003 12.8004 5.00005 12.5004 4.16672 12.5004C3.57505 12.5004 3.0167 12.6587 2.53337 12.9337C2.37503 13.0171 2.22505 13.1171 2.08338 13.2337C2.02505 13.2754 1.97505 13.3254 1.92505 13.3754V9.81709C2.55838 10.5004 3.45839 10.8921 4.43339 10.8921C5.48339 10.8921 6.49171 10.3671 7.12504 9.52539C7.69171 10.3671 8.65838 10.8921 9.73338 10.8921C10.8 10.8921 11.75 10.392 12.325 9.55871C12.9667 10.3837 13.9584 10.8921 14.9917 10.8921C16 10.8921 16.9167 10.4837 17.5417 9.75875Z" fill="white"/>
<path d="M12.225 1.30859H7.22502L6.60836 7.44192C6.55836 8.00858 6.64167 8.54194 6.85001 9.02527C7.33334 10.1586 8.46669 10.8919 9.73336 10.8919C11.0167 10.8919 12.1251 10.1753 12.6251 9.03361C12.7751 8.67528 12.8667 8.25861 12.875 7.83361V7.67527L12.225 1.30859Z" fill="white"/>
<path opacity="0.6" d="M18.3666 7.15816L18.1333 4.84147C17.7833 2.3248 16.6416 1.2998 14.2 1.2998H11L11.6167 7.5498C11.625 7.63314 11.6333 7.72482 11.6333 7.88316C11.6833 8.31649 11.8166 8.71649 12.0166 9.07482C12.6166 10.1748 13.7833 10.8831 15 10.8831C16.1083 10.8831 17.1083 10.3915 17.7333 9.5248C18.225 8.86647 18.45 8.02483 18.3666 7.15816Z" fill="white"/>
<path opacity="0.6" d="M5.22502 1.30859C2.77502 1.30859 1.64165 2.33357 1.28332 4.87523L1.05835 7.1669C0.975017 8.05857 1.21669 8.92527 1.74169 9.60027C2.37502 10.4253 3.35001 10.8919 4.43334 10.8919C5.65001 10.8919 6.81668 10.1836 7.40835 9.10024C7.62501 8.72524 7.76666 8.2919 7.80833 7.8419L8.45835 1.31694H5.22502V1.30859Z" fill="white"/>
<path d="M6.60825 13.5667C6.52491 13.475 6.43323 13.3833 6.33323 13.3083C5.7499 12.8 4.99992 12.5 4.16659 12.5C3.57492 12.5 3.01657 12.6583 2.53323 12.9333C2.3749 13.0167 2.22492 13.1167 2.08325 13.2333C1.31659 13.8417 0.833252 14.7833 0.833252 15.8333C0.833252 16.4583 1.00827 17.05 1.3166 17.55C1.3916 17.6833 1.48327 17.8083 1.58327 17.925C1.59994 17.95 1.62489 17.9667 1.64156 17.9917C2.24156 18.7084 3.14992 19.1667 4.16659 19.1667C5.00825 19.1667 5.77492 18.8583 6.35826 18.3333C6.39159 18.3083 6.41657 18.2834 6.44157 18.25C6.66657 18.0584 6.85824 17.8167 7.01657 17.55C7.3249 17.05 7.49992 16.4583 7.49992 15.8333C7.49992 14.9583 7.15825 14.1667 6.60825 13.5667ZM5.41658 16.4416H4.79159V17.0917C4.79159 17.4333 4.50825 17.7167 4.16659 17.7167C3.82492 17.7167 3.54159 17.4333 3.54159 17.0917V16.4416H2.91659C2.57492 16.4416 2.29159 16.1583 2.29159 15.8167C2.29159 15.475 2.57492 15.1917 2.91659 15.1917H3.54159V14.6C3.54159 14.2583 3.82492 13.975 4.16659 13.975C4.50825 13.975 4.79159 14.2583 4.79159 14.6V15.1917H5.41658C5.75825 15.1917 6.04158 15.475 6.04158 15.8167C6.04158 16.1583 5.75825 16.4416 5.41658 16.4416Z" fill="white"/>
</svg>
