<svg width="24" height="24" viewBox="0 0 24 24" fill="none" xmlns="http://www.w3.org/2000/svg">
<path opacity="0.4" d="M21.05 11.71V17.7C21.05 20.46 18.81 22.7 16.05 22.7H7.31C7.08 22.7 6.85 22.68 6.63 22.65C7 22.49 7.33 22.27 7.63 22C7.67 21.97 7.69998 21.94 7.72998 21.9C7.99998 21.67 8.22998 21.38 8.41998 21.06C8.78998 20.46 9 19.75 9 19C9 17.95 8.58999 17 7.92999 16.28C7.82999 16.17 7.71998 16.06 7.59998 15.97C6.89998 15.36 6 15 5 15C4.29 15 3.61998 15.19 3.03998 15.52C2.84998 15.62 2.67 15.74 2.5 15.88C2.43 15.93 2.37 15.99 2.31 16.05V11.78C3.07 12.6 4.15001 13.07 5.32001 13.07C6.58001 13.07 7.78999 12.44 8.54999 11.43C9.22999 12.44 10.39 13.07 11.68 13.07C12.96 13.07 14.1 12.47 14.79 11.47C15.56 12.46 16.75 13.07 17.99 13.07C19.2 13.07 20.3 12.58 21.05 11.71Z" fill="#485E74"/>
<path d="M14.67 1.57001H8.66996L7.92997 8.92999C7.86997 9.60999 7.96995 10.25 8.21995 10.83C8.79995 12.19 10.16 13.07 11.68 13.07C13.22 13.07 14.55 12.21 15.15 10.84C15.33 10.41 15.44 9.91002 15.45 9.40002V9.21002L14.67 1.57001Z" fill="#485E74"/>
<path opacity="0.6" d="M22.04 8.59003L21.76 5.81C21.34 2.79 19.97 1.56 17.04 1.56H13.2L13.94 9.06C13.95 9.16 13.96 9.27002 13.96 9.46002C14.02 9.98002 14.18 10.46 14.42 10.89C15.14 12.21 16.54 13.06 18 13.06C19.33 13.06 20.53 12.47 21.28 11.43C21.87 10.64 22.14 9.63003 22.04 8.59003Z" fill="#485E74"/>
<path opacity="0.6" d="M6.27001 1.57001C3.33001 1.57001 1.96997 2.79998 1.53997 5.84998L1.27001 8.59998C1.17001 9.66998 1.46002 10.71 2.09002 11.52C2.85002 12.51 4.02 13.07 5.32 13.07C6.78 13.07 8.18 12.22 8.89 10.92C9.15 10.47 9.31998 9.94997 9.36998 9.40997L10.15 1.58002H6.27001V1.57001Z" fill="#485E74"/>
<path d="M7.92999 16.28C7.82999 16.17 7.71998 16.06 7.59998 15.97C6.89998 15.36 6 15 5 15C4.29 15 3.61998 15.19 3.03998 15.52C2.84998 15.62 2.67 15.74 2.5 15.88C1.58 16.61 1 17.74 1 19C1 19.75 1.21002 20.46 1.58002 21.06C1.67002 21.22 1.78002 21.37 1.90002 21.51C1.92002 21.54 1.94997 21.56 1.96997 21.59C2.68997 22.45 3.78 23 5 23C6.01 23 6.93 22.63 7.63 22C7.67 21.97 7.69998 21.94 7.72998 21.9C7.99998 21.67 8.22998 21.38 8.41998 21.06C8.78998 20.46 9 19.75 9 19C9 17.95 8.58999 17 7.92999 16.28ZM6.5 19.73H5.75V20.51C5.75 20.92 5.41 21.26 5 21.26C4.59 21.26 4.25 20.92 4.25 20.51V19.73H3.5C3.09 19.73 2.75 19.39 2.75 18.98C2.75 18.57 3.09 18.23 3.5 18.23H4.25V17.52C4.25 17.11 4.59 16.77 5 16.77C5.41 16.77 5.75 17.11 5.75 17.52V18.23H6.5C6.91 18.23 7.25 18.57 7.25 18.98C7.25 19.39 6.91 19.73 6.5 19.73Z" fill="#485E74"/>
</svg>
