<svg width="16" height="12" viewBox="0 0 16 12" fill="none" xmlns="http://www.w3.org/2000/svg">
<path d="M13.8609 4.34912C14.3876 4.8758 14.3876 5.72973 13.8609 6.25642C13.3342 6.7831 12.4803 6.7831 11.9536 6.25642C11.4269 5.72973 11.4269 4.8758 11.9536 4.34912C12.4803 3.82243 13.3342 3.82243 13.8609 4.34912" stroke="white" stroke-width="1.5" stroke-linecap="round" stroke-linejoin="round"/>
<path d="M9.46697 1.94174C10.278 2.75272 10.278 4.0676 9.46697 4.87859C8.65598 5.68958 7.34111 5.68958 6.53011 4.87859C5.71913 4.0676 5.71913 2.75273 6.53011 1.94174C7.3411 1.13075 8.65597 1.13075 9.46697 1.94174" stroke="white" stroke-linecap="round" stroke-linejoin="round"/>
<path d="M4.0445 4.34912C4.57119 4.8758 4.57119 5.72973 4.0445 6.25642C3.51782 6.7831 2.66389 6.7831 2.1372 6.25642C1.61052 5.72973 1.61052 4.8758 2.1372 4.34912C2.66389 3.82243 3.51782 3.82243 4.0445 4.34912" stroke="white" stroke-linecap="round" stroke-linejoin="round"/>
<path d="M15.3335 10.6669V9.9362C15.3335 9.01553 14.5875 8.26953 13.6668 8.26953H13.1328" stroke="white" stroke-linecap="round" stroke-linejoin="round"/>
<path d="M0.666016 10.6669V9.9362C0.666016 9.01553 1.41202 8.26953 2.33268 8.26953H2.86668" stroke="white" stroke-linecap="round" stroke-linejoin="round"/>
<path d="M11.5588 10.6668V9.59945C11.5588 8.31078 10.5141 7.26611 9.22545 7.26611H6.77279C5.48412 7.26611 4.43945 8.31078 4.43945 9.59945V10.6668" stroke="white" stroke-linecap="round" stroke-linejoin="round"/>
</svg>
