<svg width="20" height="20" viewBox="0 0 20 20" fill="none" xmlns="http://www.w3.org/2000/svg">
<path d="M12.5 2.50033V10.0003C12.5 10.917 11.75 11.667 10.8333 11.667H1.66666V5.00033C1.66666 3.15866 3.15832 1.66699 4.99999 1.66699H11.6667C12.125 1.66699 12.5 2.04199 12.5 2.50033Z" fill="white"/>
<path opacity="0.4" d="M18.3333 11.667V14.167C18.3333 15.5503 17.2167 16.667 15.8333 16.667H15C15 15.7503 14.25 15.0003 13.3333 15.0003C12.4167 15.0003 11.6667 15.7503 11.6667 16.667H8.33332C8.33332 15.7503 7.58332 15.0003 6.66666 15.0003C5.74999 15.0003 4.99999 15.7503 4.99999 16.667H4.16666C2.78332 16.667 1.66666 15.5503 1.66666 14.167V11.667H10.8333C11.75 11.667 12.5 10.917 12.5 10.0003V4.16699H14.0333C14.6333 4.16699 15.1833 4.492 15.4833 5.00867L16.9083 7.50033H15.8333C15.375 7.50033 15 7.87533 15 8.33366V10.8337C15 11.292 15.375 11.667 15.8333 11.667H18.3333Z" fill="white"/>
<path d="M6.66667 18.3333C7.58714 18.3333 8.33333 17.5871 8.33333 16.6667C8.33333 15.7462 7.58714 15 6.66667 15C5.74619 15 5 15.7462 5 16.6667C5 17.5871 5.74619 18.3333 6.66667 18.3333Z" fill="white"/>
<path d="M13.3333 18.3333C14.2538 18.3333 15 17.5871 15 16.6667C15 15.7462 14.2538 15 13.3333 15C12.4128 15 11.6667 15.7462 11.6667 16.6667C11.6667 17.5871 12.4128 18.3333 13.3333 18.3333Z" fill="white"/>
<path d="M18.3333 10.4417V11.6667H15.8333C15.375 11.6667 15 11.2917 15 10.8333V8.33333C15 7.875 15.375 7.5 15.8333 7.5H16.9083L18.1167 9.61665C18.2583 9.86665 18.3333 10.15 18.3333 10.4417Z" fill="white"/>
</svg>
