<svg width="15" height="16" viewBox="0 0 15 16" fill="none" xmlns="http://www.w3.org/2000/svg">
<path d="M9 3.66699C9 4.75933 10.192 5.9262 10.872 6.50323C11.1406 6.72158 11.5254 6.72158 11.794 6.50323C12.4747 5.9262 13.6667 4.75933 13.6667 3.66699" stroke="white" stroke-linecap="round" stroke-linejoin="round"/>
<path d="M11.3335 3.6335C11.3519 3.63357 11.3667 3.64852 11.3667 3.66691C11.3666 3.68531 11.3517 3.70019 11.3333 3.70016C11.3149 3.70014 11.3 3.68522 11.3 3.66683C11.3 3.65795 11.3035 3.64943 11.3098 3.64316C11.316 3.6369 11.3246 3.63341 11.3335 3.6335" stroke="white" stroke-linecap="round" stroke-linejoin="round"/>
<path d="M9 3.66683V3.66683C9 2.37817 10.0447 1.3335 11.3333 1.3335V1.3335C12.622 1.3335 13.6667 2.37817 13.6667 3.66683V3.66683" stroke="white" stroke-linecap="round" stroke-linejoin="round"/>
<path d="M1.3418 10.6668H12.6573" stroke="white" stroke-linecap="round" stroke-linejoin="round"/>
<path d="M7.00448 2.66699C5.53068 2.66699 4.33594 5.35329 4.33594 8.66699C4.33594 11.9807 5.53068 14.667 7.00448 14.667" stroke="white" stroke-width="1.5" stroke-linecap="round" stroke-linejoin="round"/>
<path d="M7.00285 6.66683H1.3418" stroke="white" stroke-width="1.5" stroke-linecap="round" stroke-linejoin="round"/>
<path d="M13 8.66699C13 11.9807 10.3137 14.667 7 14.667C3.68629 14.667 1 11.9807 1 8.66699C1 5.35328 3.68629 2.66699 7 2.66699" stroke="white" stroke-width="1.5" stroke-linecap="round" stroke-linejoin="round"/>
<path d="M9.66854 8.66699C9.66854 11.9807 8.47379 14.667 7 14.667" stroke="white" stroke-width="1.5" stroke-linecap="round" stroke-linejoin="round"/>
</svg>
