<svg width="20" height="20" viewBox="0 0 20 20" fill="none" xmlns="http://www.w3.org/2000/svg">
<path fill-rule="evenodd" clip-rule="evenodd" d="M10 20C15.5228 20 20 15.5228 20 10C20 4.47715 15.5228 0 10 0C4.47715 0 0 4.47715 0 10C0 15.5228 4.47715 20 10 20Z" fill="#DBDBDB"/>
<path fill-rule="evenodd" clip-rule="evenodd" d="M10 5.33301C11.1067 5.33301 12 6.22634 12 7.33301C12 8.43967 11.1067 9.33301 10 9.33301C8.89333 9.33301 8 8.43967 8 7.33301C8 6.22634 8.89333 5.33301 10 5.33301ZM10 14.7997C8.33333 14.7997 6.86 13.9464 6 12.6531C6.02 11.3264 8.66667 10.5997 10 10.5997C11.3267 10.5997 13.98 11.3264 14 12.6531C13.14 13.9464 11.6667 14.7997 10 14.7997Z" fill="#969696"/>
</svg>
