<svg height="42.554001" viewBox="0 0 193.59 42.554" width="193.59" xmlns="http://www.w3.org/2000/svg"><path d="m0 0h193.59v42.554001h-193.59z" fill="#d71635"/><g fill="#fff"><path d="m123.937 23.79c2.076 0 3.063-.14 3.062-1.735 0-1.671-1.013-1.874-3.062-1.874l-7.724.004v-4.571h7.493c2.812-.001 4.86.226 6.354 1.214 1.698 1.139 2.508 2.81 2.508 5.113 0 4.05-2.456 6.304-7.012 6.305h-3.493v5.569l-5.846.001-.002-10.026z"/><path d="m142.665 29.737c2.479-.001 3.543-1.596 3.543-5.015 0-3.416-1.063-5.012-3.544-5.011-2.48 0-3.568 1.596-3.568 5.013s1.09 5.013 3.569 5.013m-.001-14.607c5.847-.001 9.442 3.669 9.442 9.592.002 5.924-3.593 9.595-9.44 9.596-5.848 0-9.468-3.67-9.47-9.593 0-5.924 3.618-9.595 9.468-9.595"/><path d="m158.863 27.784c.152 1.596 1.129 2.203 2.725 2.203 1.418 0 2.202-.532 2.202-1.317 0-1.139-1.063-1.239-3.216-1.796-2.532-.658-4.176-1.216-4.935-1.747-1.419-1.012-2.103-2.405-2.103-4.201-.001-3.519 2.784-5.798 7.643-5.798 4.71-.001 7.64 2.111 7.827 6.074l-5.544.001c-.015-1.42-.966-1.95-2.383-1.95-1.239.001-1.848.406-1.848 1.242 0 .962.937 1.139 2.708 1.594 2.253.582 4.052.936 5.216 1.721 1.595 1.062 2.329 2.379 2.329 4.252.002 3.949-2.835 6.254-8.15 6.254-4.887.001-7.942-2.312-8.12-6.531z"/><path d="m174.799 20.391-5.24.001v-4.785l16.224-.001.002 4.785h-5.139l.001 13.417h-5.847z"/><path d="m93.622 12.805c-4.615 1.389-7.976 5.671-7.975 10.739.001 5.067 3.365 9.347 7.981 10.733z"/><path d="m96.854 12.33c-.262 0-.521.01-.779.028l.001 1.15c.151-.01.308-.016.462-.016 3.852-.001 6.976 3.121 6.977 6.973.001 3.823-3.076 6.929-6.89 6.975l.002 7.307c.078.001.155.003.234.003 6.191-.002 11.207-5.023 11.207-11.214-.004-6.19-5.024-11.208-11.214-11.206"/><path d="m118.155 8.827-.668 2.216h1.313zm-.867 2.916-.351 1.231h-.834l1.622-5.167h.877l1.579 5.167h-.84l-.338-1.231z" fill-rule="evenodd"/><path d="m121.117 7.807v3.111.148c0 .57.023 1.005.307 1.401.295.408.698.591 1.313.591.524 0 .905-.126 1.163-.385.317-.316.463-.838.463-1.643v-3.223h-.743v3.217.112c0 .392-.008.665-.132.873-.157.263-.404.39-.751.39s-.583-.123-.743-.39c-.131-.215-.14-.488-.14-.881v-.104-3.217z"/><path d="m125.588 11.459c0 .028-.002.054-.003.079-.003.026-.005.05-.005.076 0 .461.124.817.366 1.059.255.255.646.385 1.163.385.531 0 .943-.141 1.22-.42.251-.251.379-.597.379-1.031 0-.638-.399-.947-1.009-1.343l-.283-.184c-.637-.406-.986-.63-.986-1.089 0-.161.063-.312.177-.427.137-.136.335-.211.558-.211.221 0 .389.058.502.172.128.129.193.331.193.6v.105.051h.052.696.052v-.051-.127c0-.428-.121-.764-.357-1.001-.251-.252-.624-.379-1.107-.379-.927 0-1.55.541-1.55 1.345 0 .751.396 1.04 1.156 1.527l.207.131c.57.356.916.572.916.979 0 .419-.336.722-.801.722-.222 0-.384-.052-.492-.162-.135-.135-.201-.369-.201-.715v-.091-.052h-.052-.737-.053v.052z"/><path d="m131.195 8.431v4.543h-.77v-4.543h-1.245v-.624h3.224v.624z" fill-rule="evenodd"/><path d="m135.392 8.618c-.12-.12-.309-.181-.56-.181h-.7v1.571h.439c.709 0 .998-.245.998-.848 0-.243-.059-.425-.177-.542m.218 1.681c.497.129.61.525.61 1.076 0 .105-.003.202-.003.294-.003.077-.005.152-.005.219 0 .38.044.713.132 1.02l.019.066h-.068-.689-.037l-.011-.037c-.107-.347-.11-.735-.114-1.145-.003-.14-.003-.286-.009-.438-.015-.526-.148-.695-.552-.695h-.751v2.262.052h-.053-.667-.052v-.052-5.063-.051h.052 1.328c.618 0 1.041.123 1.294.377.206.206.304.497.304.891 0 .621-.238 1.021-.728 1.224" fill-rule="evenodd"/><path d="m139.315 8.827-.668 2.216h1.31zm.848 2.916h-1.716l-.352 1.231h-.833l1.622-5.167h.877l1.58 5.167h-.841z" fill-rule="evenodd"/><path d="m143.111 12.287v-4.48h-.762v5.167h2.493v-.687z" fill-rule="evenodd"/><path d="m145.687 12.974h.681.054v-.052-5.064-.051h-.054-.681-.05v.051 5.064.052z"/><path d="m149.476 8.827-.669 2.216h1.312zm.848 2.916h-1.716l-.352 1.231h-.833l1.621-5.167h.879l1.577 5.167h-.84z" fill-rule="evenodd"/></g></svg>
