<svg enable-background="new 0 0 485.13 212.47" viewBox="0 0 485.13 212.47" xmlns="http://www.w3.org/2000/svg" xmlns:xlink="http://www.w3.org/1999/xlink"><linearGradient id="a" gradientUnits="userSpaceOnUse" x1="29.5889" x2="188.8781" y1="151.2073" y2="59.2416"><stop offset="0" stop-color="#af1e45"/><stop offset=".0205" stop-color="#af1e45"/><stop offset=".1523" stop-color="#af1e45"/><stop offset=".205" stop-color="#bc213e"/><stop offset=".2748" stop-color="#c92535"/><stop offset=".3573" stop-color="#d3272f"/><stop offset=".4593" stop-color="#db292a"/><stop offset=".6025" stop-color="#e02a28"/><stop offset="1" stop-color="#e12a27"/></linearGradient><path clip-rule="evenodd" d="m107.1 13.47-73.46 40.07 81.54 47.42c.74.43 1.58 1.29 1.58 2.22l-.01 69.86c0 .98-.86 1.64-.96 1.7l-4.86 2.71c-.76.42-1.86.46-2.96-.15l-4.34-2.4c-.63-.35-1.17-1.2-1.17-2.1v-61.8c0-1.09-1.18-1.61-1.98-2.07l-70.8-41.21v82.66c0 1.83 1.76 3.92 3.24 4.79l73.55 43.39c2.36 1.39 3.76 1.16 7.03-.47l72.68-42.9c1.7-1 3.35-2.87 3.35-4.93v-82.56l-48.76 28.5c-.61.36-1.72.49-2.36.12l-4.41-2.55c-.88-.51-1.67-1.52-1.69-2.58l-.1-5.16c-.01-.77.5-1.79 1.18-2.18l52.16-30.37-73.45-40c-1.14-.62-3.8-.65-5-.01z" fill="url(#a)" fill-rule="evenodd"/><g fill="#3c3d3b"><path d="m305.93 150.18v-97.24h-18.18v31.89c-1.69-.99-9.13-2.32-14.97-2.16-19.44.54-33.89 15.89-33.49 34.63.52 24.52 14.97 34.8 37.63 36.24 11.61.74 25.54-2.8 29.01-3.36zm-18.11-13.13c-1.19.27-9.08 1.1-12.02.62-11.98-1.95-17.74-8.08-17.87-18.74-.13-11.36 4.59-19.61 18.63-20.19 2.38-.1 10.23 1.29 11.19 2.19z"/><path d="m455.45 150.18v-97.24h-18.18v31.89c-1.69-.99-9.13-2.32-14.97-2.16-19.44.54-33.89 15.89-33.49 34.63.52 24.52 14.97 34.8 37.63 36.24 11.62.74 25.55-2.8 29.01-3.36zm-18.11-13.13c-1.19.27-9.08 1.1-12.02.62-11.98-1.95-17.74-8.08-17.87-18.74-.13-11.36 4.59-19.61 18.63-20.19 2.38-.1 10.23 1.29 11.19 2.19z"/><path d="m316.13 88.38v91.31h18.4l-.07-79.41c1.19-.27 9.02-1.32 11.99-1.14 12.13.71 17.65 7.48 17.93 18.15.18 6.82-2.09 12.47-6.54 16-3.35 2.66-8.02 4.04-13.42 4.19l.03 15.97c8.47.25 17.05-1.54 23.84-5.92 8.81-5.68 15.07-18.27 14.72-30.25-.62-21.65-12.82-33.97-37.63-34.5-11.61-.24-25.72 3.83-29.25 5.6z"/></g></svg>
