<svg xmlns="http://www.w3.org/2000/svg" version="1" width="200" height="132.547"><g transform="translate(-775.017 -1145.07) scale(1.49393)"><path d="M649.29 810.999c0 23.351-28.503 42.194-63.6 42.194-35.088 0-63.55-18.843-63.55-42.194 0-23.268 28.462-42.08 63.55-42.08 35.097 0 63.6 18.812 63.6 42.08" fill="#fcc707"/><path d="M585.69 768.909c-13.76 0-26.433 2.825-36.824 7.824l.873 1.877c10.132-4.74 22.511-7.607 35.951-7.607 19.677 0 37.182 6.107 48.466 15.416l1.311-1.555c-11.62-9.734-29.596-15.955-49.777-15.955" fill="#231f20"/><path d="M643.55 797.55c2.329 4.257 3.567 8.776 3.567 13.45 0 22.14-27.495 40.043-61.427 40.043-33.888 0-61.416-17.904-61.416-40.044 0-8.063 3.676-15.62 10.098-21.885l-1.51-1.588c-6.763 6.71-10.738 14.872-10.738 23.473 0 23.355 28.473 42.198 63.566 42.198 35.107 0 63.615-18.843 63.615-42.198 0-5.086-1.393-9.947-3.9-14.526l-1.855 1.076" fill="#231f20"/><path d="M578.793 841.168l5.805-1.96-3.291-15.228-8.897 7.77 6.383 9.418z" fill="#231f20"/><path d="M581.39 775.675l-14.744 9.504H550.37l-12.083-9.155s-.46 6.74 2.07 15.136c2.033 7.076 6.803 9.562 6.803 9.562h9.395l11.476-4.89-.115 1.994c-.242 3.445-.869 6.275-2.062 8.816.547.004 2.803-.132 6.147-2.362 4.93-3.035 6.379-8.991 8.039-14.709 1.582-5.736 1.351-13.896 1.351-13.896m-26.157 18.224c-.397.606-1.248.875-1.92.448-1.36-.755-3.975-1.145-5.313-.922a1.42 1.42 0 0 1-1.621-1.163 1.422 1.422 0 0 1 1.161-1.625c2.11-.341 5.309.254 7.181 1.339.677.394.915 1.256.512 1.923m15.622-1.637a1.374 1.374 0 0 1-1.577 1.163c-1.27-.223-3.937.167-5.36.922-.678.427-1.53.158-1.957-.448a1.4 1.4 0 0 1 .545-1.923c1.875-1.085 5.118-1.68 7.227-1.339.76.135 1.25.863 1.122 1.625" fill="#231f20"/><path d="M643.93 792.25l-1.867-4.219-29.315 10.935H578.03c-1.182 2.558-2.825 4.753-5.392 6.318-1.7 1.112-3.121 1.731-4.194 2.084-.986.32-2.012.525-3.242.548a15.164 15.164 0 0 1-1.193 1.792c-2.919 3.897-7.097 6.072-12.016 6.072-2.989 0-5.828-1.069-8.216-2.881l-2.333.624.063 2.48 4.4.872-2.04.551.211 2.51 5.036 1.492v4.537l-4.469 4.714 1.623 1.891 1.732-.476-.85 1.56 1.658 1.97 9.741-5.011-4.615 6.76 6.025 3.71 22.201-19.414h12.76l-5.033 16.881 5.275 2.639 12.246-14.714 14.531 13.426 4.545-2.828-9.177-28.984 26.623-15.839m-82.668 34.218v-10.675l3.696 5.102-3.696 5.573z" fill="#231f20"/><path d="M557.041 802.064h-10.327l-9.563-6.61c0 10.575 6.66 19.141 14.84 19.141 4.326 0 8.333-1.783 11.066-5.545 2.47-3.42 3.44-7.173 3.67-11.287l-9.686 4.301m-7.625 6.539a1.027 1.027 0 0 1-1.409.325c-.788-.493-2.298-.718-3.143-.718-.573 0-.973-.463-.973-1.032 0-.576.4-1.043.973-1.043.917 0 2.937.22 4.241 1.032.447.302.59.94.311 1.436m8.765-.425c-.81 0-2.351.224-3.134.715a1.035 1.035 0 0 1-1.423-.331 1.043 1.043 0 0 1 .322-1.433c1.303-.812 3.353-1.022 4.235-1.022.538 0 1.004.466 1.004 1.025 0 .582-.466 1.046-1.004 1.046" fill="#231f20"/></g></svg>
