<svg xmlns="http://www.w3.org/2000/svg" width="141.578" height="51.45"><defs><clipPath id="a"><path d="M256.104 26.275h329.682v77.387H256.104V26.275z"/></clipPath></defs><g transform="matrix(1.25 0 0 -1.25 -587.313 105.618)"><path d="M590.365 88.253H467.487V43.214h122.878v45.04z" fill="#ed2929"/><g clip-path="url(#a)"><path d="M554.432 48.113a102.761 102.761 0 0 1-14.973 4.643c4.364-.36 9.857-1.039 15.765-3.069.128-.24.158-.438.128-.564-.076-.36-.397-.7-.92-1.01m-4.376-1.209a85.119 85.119 0 0 1-11.074 5.472 102.724 102.724 0 0 0 14.88-4.552c-.911-.396-2.203-.715-3.806-.92m-5.773-.218c-2.155 2.142-4.35 4.037-6.574 5.664a83.406 83.406 0 0 0 11.54-5.538 38.071 38.071 0 0 0-4.966-.126m-6.083.577c-.52 1.986-1.085 3.77-1.69 5.346 2.389-1.66 4.746-3.63 7.055-5.895-1.67.085-3.473.26-5.365.55m-3.213.58a56.35 56.35 0 0 0-2.922.697c1.333 1.647 2.617 3.081 3.849 4.286.632-1.598 1.169-3.43 1.715-5.483-.88.144-1.725.308-2.642.5m-3.48.841a52.758 52.758 0 0 0-5.027 1.654c3.007 1.126 5.949 1.974 8.8 2.532a51.717 51.717 0 0 1-3.773-4.186m-10.121 4.013c4.272.453 8.508.594 12.678.412-2.684-.592-5.446-1.43-8.258-2.509a37.834 37.834 0 0 0-4.42 2.097m-3.642 2.665a100.72 100.72 0 0 0 15.128-1.718c-4.007.115-8.083-.076-12.178-.54-1.294.783-2.297 1.552-2.95 2.258m-13.513-5.628c-.94 1.552-1.314 3.054-1.022 4.421.04.193.12.412.228.64a93.64 93.64 0 0 0 13.65.597c.578-.73 1.53-1.54 2.82-2.373-5.223-.637-10.477-1.745-15.676-3.285m-14.844 2.775c.735.571 1.696 1.11 2.983 1.582a86.152 86.152 0 0 0 12.333 3.015 5.926 5.926 0 0 1-1.651-1.872 90.106 90.106 0 0 1-13.665-2.725m-1.216-.338a89.239 89.239 0 0 1-5.134-1.71 85.251 85.251 0 0 0 6.078 2.51 7.357 7.357 0 0 1-.944-.8m25.235 5.941a35.96 35.96 0 0 0 3.344-.282c-.167-.183-.28-.372-.322-.559-.088-.42.027-.89.324-1.395a94.805 94.805 0 0 1-13.033-.568c.555.877 1.47 1.773 2.489 2.033a86.72 86.72 0 0 0 7.198.771m3.492-.942c.035.17.199.382.475.58 4.795-.674 10.466-2.14 14.797-3.478-4.976.904-9.93 1.431-14.834 1.588-.032.044-.074.09-.102.132-.293.452-.41.848-.336 1.178m1.967 1.114a87.282 87.282 0 0 0 6.088-.205c2.847-.733 6.196-2.184 9.15-3.922-4.311 1.413-10.634 3.133-16.03 3.948.229.08.494.142.792.18m14.968-1.292c.596-.903 1.25-2.275 1.63-3.108-2.572 1.64-5.53 3.07-8.274 4.01a87.127 87.127 0 0 0 6.644-.902m2.855-.543a84.954 84.954 0 0 0 2.207-.494c-1.067-.745-2.29-1.83-2.804-2.297-.283.638-.956 2.116-1.624 3.225a86.13 86.13 0 0 0 2.22-.434m9.155-2.435c-2.804.23-5.973.094-9.08-.397.688.611 1.848 1.6 2.763 2.185a87.003 87.003 0 0 0 6.317-1.788m7.6-2.877a5.721 5.721 0 0 0 1.15-.729c-6.275 2.046-12.033 2.6-16.427 2.928 3.392.435 6.786.467 9.595.024a83.631 83.631 0 0 0 5.683-2.223m10.005-5.148a85.24 85.24 0 0 0 4.3-2.777h.835c-9.537 6.671-20.215 11.281-31.796 13.705a86.839 86.839 0 0 1-43.758-2.109v.006c-.175-.054-.334-.11-.497-.168a86.717 86.717 0 0 1-14.853-6.327l-.023-.009v-.004a86.793 86.793 0 0 1-7.805-4.778v-.316h.402a86.656 86.656 0 0 0 7.634 4.676 87.202 87.202 0 0 0 9.698 3.601c-.634-.857-.945-1.748-1.128-2.609-.377-1.762-.192-3.66.533-5.668h.674c-.748 1.971-.946 3.832-.584 5.535.212.983.59 2.045 1.522 3.047a89.285 89.285 0 0 0 14.207 2.932 3.098 3.098 0 0 1-.142-.456c-.32-1.483.044-3.076.993-4.703a103.925 103.925 0 0 1-15.996-6.355h1.089a103.28 103.28 0 0 0 15.157 5.931c1.278-1.973 3.436-3.99 6.336-5.93h1.063c-3.126 1.994-5.46 4.067-6.82 6.1 5.336 1.57 10.726 2.678 16.083 3.296 1.273-.766 2.813-1.537 4.58-2.272-4.533-1.794-9.185-4.166-13.843-7.125h.953c4.555 2.844 9.103 5.153 13.529 6.868a51.033 51.033 0 0 1 5.383-1.803 93.478 93.478 0 0 1-3.748-5.065h.774c1.239 1.796 2.359 3.441 3.532 4.916a59.781 59.781 0 0 1 3.158-.754 57.002 57.002 0 0 1 2.87-.534c.295-1.143.539-2.358.806-3.628h.68c-.263 1.24-.63 2.43-.914 3.552a55.582 55.582 0 0 1 5.742-.546 72.674 72.674 0 0 0 2.827-3.006h.636a72.243 72.243 0 0 1-2.77 2.986c1.91-.05 3.678.017 5.216.197a94.748 94.748 0 0 0 5.022-3.183h.849a93.75 93.75 0 0 1-5.103 3.286c1.57.233 2.858.594 3.744 1.074a92.977 92.977 0 0 0 9.324-4.36h1.025a92.797 92.797 0 0 1-9.853 4.678c.449.333.739.71.832 1.132.027.137.02.294-.017.462a48.265 48.265 0 0 0 5.633-2.415l2.009-1.08" fill="#ffffff"/><path d="M493.226 70.26l1.242 2.155.728.014s.586-.047.47-.625V71.8a2.308 2.308 0 0 0-.195-.48c-.235-.433-.767-.847-1.193-.972-.022-.007-.048-.011-.073-.018-.422-.101-.979-.07-.979-.07m-.475-.844s.996-.058 1.67.14c.678.198 1.523.859 1.897 1.55.134.244.436.866.256 1.483v.004c-.22.76-.984.676-.984.676l-1.692-.071-3.39-5.755.922-.037.137-.005 1.184 2.015z" fill="#ffffff"/><path d="M554.45 57.655l.036.302-.86.087-.674.07.373 3.336.037.333-.728.043-.496-4.355.669-.069 1.6-.164.044.417z" fill="#ffffff"/><path d="M538.968 70.605c.548 1.901 1.99 3.127 4.232 3.224 1.425.06 2.183-.633 2.548-1.499.354-.85.325-1.868.156-2.514-.23-.88-1.267-2.893-4.102-3-.75-.027-1.47.135-2.023.507-.847.57-1.292 1.63-.81 3.282m2.802-5.62c4.574.343 5.798 2.78 6.32 5.29a4.273 4.273 0 0 1-.424 2.856c-.687 1.28-2.089 2.263-4.328 2.18-1.952-.073-3.413-.937-4.42-1.923a7.573 7.573 0 0 1-.787-.9c-.455-.617-.747-1.206-.873-1.612a7.851 7.851 0 0 1-.165-.65 5.745 5.745 0 0 1-.14-1.504c.058-1.176.55-2.042 1.254-2.649.973-.845 2.36-1.179 3.563-1.088" fill="#ffffff"/><path d="M533.69 69.71l2.827-.002.133.517.254.988-1.606-.004h-1.175l.575 2.174 3.093.111.093.366.25 1.02-4.84-.18-1.479-5.286-.087-.312-.964-3.45 1.17-.053.607-.026 1.15 4.137z" fill="#ffffff"/><path d="M516.86 73.246l.321.827-1.376-.04-.35-.84-.47-1.127-.747-1.797-.475-1.142-.9-2.15-.218-.525.556-.024.584-.022 2.995-.12.187.527.287.803-1.407.06-1.134.049 2.147 5.52z" fill="#ffffff"/><path d="M512.395 66.996l.295.768-1.347.056-1.064.042.947 2.077 2.058.004.124.319.326.823-.97-.007-1.06-.011.742 1.763 2.268.064.12.28.349.83-3.61-.13-.41-.901-.545-1.192-2.064-4.544-.264-.583.668-.03.378-.017 2.852-.13.207.519z" fill="#ffffff"/><path d="M508.05 66.966l.061.151.514 1.244c-1.124-.55-1.84-.594-2.295-.43a1.14 1.14 0 0 0-.735.855c-.112.484.18 1.375.798 2.227.21.29.472.57.758.834.015.017.04.035.056.053.086.077.158.156.248.227.146.114.287.204.424.284 1.582.932 2.528-.222 2.528-.222l.414.872.17.362c-.314.497-2.54 1.066-4.538-.755a7.153 7.153 0 0 1-.594-.633c-.734-.87-1.352-1.999-1.53-2.927-.056-.292-.079-.568-.037-.803.152-.808.515-1.259.956-1.503 1.135-.626 2.801.164 2.801.164" fill="#ffffff"/><path d="M520.216 70.083l-.055.13 1.68 1.398-4.942-1.238-.743-.186.592-.203 1.293-.443 2.84-.976-.665 1.518z" fill="#ffffff"/><path d="M525.511 72.165l.05.377.362 2.99.365 3.002-3.63-6.257 1.866 1.464.186-.294.477-.759.324-.523z" fill="#ffffff"/><path d="M523.172 67.407l-.934-.681-.316-.231-.065.124-.594 1.196-.179.356-.045-.28-1.049-6.643 1.387 2.32 1.326 2.223.962 1.612.384.642-.877-.638z" fill="#ffffff"/><path d="M531.515 70.192l-5.113 1.405-.304.085-.38.104.944-1.631-.829-.67-1.25-1.013.764.19 2.106.52 2.736.682 1.326.328z" fill="#ffffff"/><path d="M567.864 65.59l.019-1.6.23-.008.792-.036 6.843-.307-.05.839-.074 1.282-4.193.16-.988.039-.112 3.408 4.474-.025-.03.725-.053 1.31h-4.48l-.071 2.817 4.58.11-.041.637-.088 1.344-6.871-.266.018-1.83.022-2.082.073-6.517z" fill="#ffffff"/><path d="M522.904 70.47l1.025 1.741-2.286-1.772-.283-.219 1.544.25z" fill="none" stroke="#ffffff" stroke-width="0.16" stroke-linecap="round" stroke-linejoin="round"/><path d="M498.064 69.832l-1.27.012 1.843 2.275-.573-2.287zm1.613 2.898l.148.689-1.225-.037-1.399-1.704-.003-.002-2.267-2.763-.067-.08-1.26-1.531 1.055-.035.117-.005 1.29 1.658 1.733-.064-.155-.641-.25-1.078.715-.025.357-.014 1.211 5.632z" fill="#ffffff"/><path d="M502.327 70.3a3.502 3.502 0 0 0-1.013-.06l1.199 2.315.969.043c.548-.066.652-.375.587-.712-.072-.36-.337-.753-.484-.915-.355-.402-.831-.585-1.258-.671m.16-.913c1.896.29 2.483 1.784 2.659 2.295.148.45.162.79.099 1.052-.211.9-1.36.85-1.36.85l-1.967-.08-2.326-4.467-1.017-1.953.587-.022.38-.014.119-.005 1.643 3.178.28-1.362.39-1.931.486-.015.776-.023-.748 2.497z" fill="#ffffff"/><path d="M556.954 68.617c.215-.954.768-1.897 1.582-2.692 1.866-1.83 5.074-2.841 8.553-1.197l-.005.514-.016 1.807c-.515-.36-1.916-.92-3.209-.945-1.302-.03-2.468.367-3.33 1.104-.794.675-1.334 1.637-1.484 2.832-.256 2.05 2.052 3.669 3.026 3.94 2.958.83 4.907-.703 4.907-.703l-.007 1.149-.005.974c-.338.244-2.457.74-3.897.636-.847-.06-3.829-.586-5.332-3.034-.567-.92-.93-2.1-.885-3.638a4.1 4.1 0 0 1 .102-.747" fill="#ffffff"/><path d="M547.718 64.898l1.559-.073.572-.027 1.19 8.94s1.468.084 2.14.09c.52.009 1.174-.401 1.355-1.117.049-.206.07-.434.027-.687-.254-1.263-1.44-1.74-2.455-1.914-.822-.14-1.531-.086-1.531-.086l1.263-1.904 2.336-3.511.692-.03 1.98-.084-3.123 4.218c1.639.65 2.797 1.547 2.985 2.97.144 1.11-.048 1.889-.394 2.443-.911 1.456-2.913 1.333-2.913 1.333l-4.228-.148-.501-3.58-.717-5.14-.237-1.693z" fill="#ffffff"/><path d="M576.278 55.33l-.028.492-1.8.177-.695.07-.075 1.536 2.34-.194-.015.26-.028.506-1.633.135-.694.056-.067 1.353 2.503-.175-.017.236-.039.518-3.279.226.226-5.193.701-.07 2.624-.262-.024.33z" fill="#ffffff"/><path d="M568.87 56.527l-.06 3.468.114-.005c.878-.053 1.365-.221 1.733-.517a1.5 1.5 0 0 0 .236-.235c.21-.258.314-.593.343-1.078.047-.692-.193-1.065-.55-1.322-.162-.114-.442-.324-1.115-.343-.165-.003-.345 0-.566.024 0 0-.05.001-.135.008m3.147 1.522c.008.848-.272 1.434-.673 1.842-.614.624-1.525.823-2.161.857l-1.154.078.057-4.995.708-.074.318-.033c1.028-.104 2.882.269 2.905 2.325" fill="#ffffff"/><path d="M567.01 60.45l-.002.451-.773.049v-4.924l.678-.062.125-.012-.028 4.498z" fill="#ffffff"/><path d="M543.483 62.432l-.81.046-.756-1.473-.308-.61-.402 1.537-.206.795-1.043-1.731-.378-.636-.444 2.129-.044.216-.718.05.871-3.986.366.576 1.09 1.716.206-.786.452-1.716.321.587 1.667 3.034.136.252z" fill="#ffffff"/><path d="M544.322 59.25c-.23.272-.312.586-.248.964.079.386.262.705.575.976.31.272.669.403 1.077.393.362-.01.64-.123.852-.333.029-.03.063-.054.088-.086.224-.28.314-.606.26-.995a1.47 1.47 0 0 0-.556-.978 1.616 1.616 0 0 0-1.092-.367 1.767 1.767 0 0 0-.343.057 1.206 1.206 0 0 0-.613.37m2.504-.583c.473.382.754.868.823 1.455.07.577-.078 1.086-.45 1.5a1.656 1.656 0 0 1-.248.24 1.784 1.784 0 0 1-1.155.41c-.566.003-1.098-.194-1.564-.584a2.338 2.338 0 0 1-.874-1.42c-.097-.578.032-1.078.385-1.48.21-.23.465-.392.756-.5a2.437 2.437 0 0 1 2.327.379" fill="#ffffff"/><path d="M550.325 59.266v.004c.6.123.966.57 1.047 1.246.053.427-.045.779-.272 1.036-.235.267-.609.429-1.103.453l-1.341.092-.543-4.216.553-.056.172-.018.47 3.538.734-.05c.285-.018.483-.134.572-.352a.766.766 0 0 0 .041-.418c-.071-.485-.57-.593-.975-.604-.286-.005-.528.036-.528.036l.427-.776.857-1.541.334-.035.571-.055-1.016 1.716z" fill="#ffffff"/><path d="M556.272 60.873l.222-.016c.467-.028 1.145-.132 1.544-.572.224-.245.359-.592.314-1.097-.111-1.215-.87-1.446-1.704-1.425-.133.002-.267.01-.403.024l-.26.037.287 3.05zm2.805-1.775c.066.846-.197 1.412-.602 1.787-.51.47-1.238.643-1.84.686l-1.037.071-.42-4.483.666-.068.302-.03c1.08-.113 2.766.03 2.93 2.037" fill="#ffffff"/><path d="M565.364 61.005l-.766.05-.876-2.182-.25-.619-.798 2.21-.305.843-.98-2.213-.274-.62-.8 2.457-.135.412-.79.056 1.62-4.888.27.638.996 2.366.37-1.066.758-2.193.257.624 1.528 3.696.175.43z" fill="#ffffff"/><path d="M522.567 68.58l.209 1.179.128.71-1.543-.248.225-.434.89-1.711.09.504z" fill="#ffffff" stroke="#ffffff" stroke-width="0.16" stroke-linecap="round" stroke-linejoin="round"/><path d="M523.539 70.362l1.622-.272-.617 1.064-.413.707-.17.295-.033.055-1.024-1.741.635-.108z" fill="#ffffff" stroke="#ffffff" stroke-width="0.16" stroke-linecap="round" stroke-linejoin="round"/><path d="M522.904 70.47l-.13-.712-.207-1.179-.092-.503.252.19 2.433 1.822-1.621.274-.635.107z" fill="none" stroke="#ffffff" stroke-width="0.16" stroke-linecap="round" stroke-linejoin="round"/></g></g></svg>
