<svg width="1000" height="243" fill="none" xmlns="http://www.w3.org/2000/svg">
  <path fill-rule="evenodd" clip-rule="evenodd" d="m888.774 61.8667 49.897 86.6113-49.897 86.613h60.93l49.898-86.613-49.898-86.6113h-60.93Z" fill="#FF6800"/>
  <path fill-rule="evenodd" clip-rule="evenodd" d="m888.774 61.8667 49.897 86.6113h60.931l-49.898-86.6113h-60.93Z" fill="#FF8E40"/>
  <path fill-rule="evenodd" clip-rule="evenodd" d="M773.095 127.856c4.033-16.498 20.485-29.5429 39.099-29.5429 18.609 0 35.041 13.0449 39.078 29.5429h-78.177Zm129.679 22.317c0-51.9257-38.547-95.3551-91.279-95.3551-42.272 0-75.223 29.7741-87.569 68.7661V20.631c0-9.5768-7.049-16.50579-16.617-16.50579h-32.765V235.09h32.765c9.568 0 16.617-9.643 16.617-19.219v-44.787c12.346 38.979 46.379 68.877 88.486 68.877 38.786 0 69.58-25.493 84.469-58.488h-52.744c-8.375 8.249-17.367 16.16-31.342 16.16-20.153 0-37.215-12.035-40.313-32.657h129.041c.934-4.124 1.251-10.146 1.251-14.803ZM562.069 190.699c-25.741 0-43.111-19.286-43.111-44.456 0-25.184 18.914-43.219 43.729-43.219 24.827 0 43.444 18.344 43.444 43.219 0 25.492-18.304 44.456-44.062 44.456Zm-378.794-62.843c4.029-16.498 20.473-29.5429 39.091-29.5429 18.617 0 35.04 13.0449 39.082 29.5429h-78.173ZM604.584 20.6351v54.718C588.123 61.0416 573.25 54.822 553.395 54.822c-43.622 0-74.568 29.539-83.169 68.737-.21-19.673-4.049-40.5345-20-53.7985-11.165-9.3334-29.539-14.9385-44.116-14.9385-20.786 0-36.069 7.0445-46.93 23.542h-1.51v-.2021c0-9.5892-6.934-16.2954-16.493-16.2954h-28.775V126.66c-12.345-41.1652-44.481-71.838-89.383-71.838-50.563 0-90.753 42.6133-90.753 92.663 0 1.884-.164 3.745-.053 5.604-21.617-29.308-78.432-23.513-78.432-45.405 0-7.7705 7.6996-10.4389 14.5268-10.4389 8.9959 0 15.7531 1.7405 16.0656 14.1139h50.5726C131.53 74.2396 103.3 54.822 68.8592 54.822c-33.1851 0-66.69133 21.3767-66.69133 57.44 0 24.248 20.47733 37.355 40.95473 44.812 7.4362 2.796 14.8889 5.151 22.3375 7.642 9.2962 3.721 23.2672 7.395 23.2672 19.83 0 9.024-10.2508 13.083-17.9998 13.083-10.2427 0-17.9876-3.782-19.5473-16.156H-.0008545C4.03207 222.717 34.1226 239.961 70.1062 239.961c33.5598 0 67.0868-19.125 69.8968-54.779 14.399 31.559 46.181 54.779 82.988 54.779 38.765 0 69.173-25.493 84.061-58.488h-52.744c-8.371 8.249-17.367 16.16-31.317 16.16-20.177 0-37.231-12.035-40.342-32.657h129.753v70.114h49.383V139.4c0-20.526 6.152-36.067 30.049-36.067 23.264 0 27.564 16.481 27.564 35.754v76.788c0 9.576 6.857 19.215 16.416 19.215h32.967v-65.132c8.231 39.656 39.967 70.003 84.342 70.003 19.814 0 40.457-4.735 51.461-24.449v1.386c0 9.028 9.049 18.192 18.613 18.192h30.769V4.12521h-33.25c-9.552 0-16.132 6.92899-16.132 16.50989Z" fill="#000"/>
</svg>
