<svg xmlns="http://www.w3.org/2000/svg" style="width:500px; height:500px;">
<g id="startrack-logo" viewBox="0 0 133 29">
            <path d="M99.57 15.02l.014.002-.035-.008.021.006z" fill="#00AEEF"></path>
            <path d="M106.905 8.961h-3.134l-3.172 4.591c.966.214 1.901.441 2.802.684l.984-1.51.437 3.595a57.647 57.647 0 00-2.309-.631c-.064-.016-.131-.031-.195-.05-.104-.025-.206-.048-.308-.076a35.676 35.676 0 00-.539-.127l-.008-.002a59.023 59.023 0 00-1.875-.411l-.014-.002-.021-.004a75.472 75.472 0 00-2.252-.421h-.01l-.007-.002h-.008a88.997 88.997 0 00-9.944-1.106l-1.913 7.113h3.2l1.233-4.563c.344.031.69.062 1.028.098l1.852 4.465h6.486l2.627-3.729c1.19.541 2.279 1.133 3.253 1.77l.243 1.957h3.368l-1.804-11.639zM95.932 20.308l-1.65-3.605c1.199-.325 2.073-.878 2.645-1.595l.006-.01a38.02 38.02 0 012.136.67l-3.137 4.54zM79.776 13.34l-1.958 7.26h3.218l1.947-7.265a106.71 106.71 0 00-3.207.005zM86.867 11.773l.723-2.73H77.47l-.731 2.712a101.653 101.653 0 0110.128.018z" fill="#00AEEF"></path>
            <path d="M97.748 12.61c0-.925-.28-1.75-.892-2.362-.777-.777-2.045-1.205-3.977-1.205h-4.362l-.745 2.783c3.521.213 6.868.611 9.96 1.158.01-.122.016-.249.016-.374zM116.745 16.752c-.745.745-1.472 1.172-2.477 1.172-1.338 0-2.312-.908-2.312-2.377 0-2.014 1.536-3.813 3.451-3.813 1.138 0 1.865.544 2.328 1.485l2.772-1.483c-.693-1.783-2.326-2.922-4.687-2.922-4.44 0-7.215 3.55-7.215 6.968 0 .057.002.112.004.168.018.67.145 1.284.365 1.837.764 1.906 2.657 3.046 5.096 3.046.122 0 .241-.003.359-.01a6.701 6.701 0 001.544-.246c1.221-.353 2.171-1.039 2.935-1.905l-2.163-1.92zM132.426 9.04h-3.699l-5.051 5.625 1.516-5.626h-3.221l-3.106 11.565h3.212l1.597-5.931 2.905 5.931h3.478l-2.935-5.935 5.304-5.63z" fill="#00AEEF"></path>
            <path d="M75.418 10.252c-.776-.776-2.048-1.205-3.98-1.205H67.08l-1.032 3.84a89.768 89.768 0 0110.173-1.102c-.121-.588-.38-1.111-.803-1.533z" fill="#003767"></path>
            <path d="M76.23 13.468c-3.163.168-6.19.482-9.026.92l-.21.032-.603.098c-.11.018-.218.035-.325.055-.165.027-.328.057-.49.084-.032.004-.06.01-.09.016a66.867 66.867 0 00-1.07.198l-.13.023c-.258.051-.515.102-.77.155-.094.02-.19.041-.284.059-.172.035-.345.072-.517.112l-.03.007c-.101.024-.203.043-.303.067l-.55.125a39.837 39.837 0 00-1.03.249l-.172.043-.601.157-.277.075a2.942 2.942 0 01-.125.033c-.088.025-.175.047-.26.072h-.003l-.105.03c-.093.025-.185.053-.277.078-.178.051-.354.102-.529.155l-.21.06c-.235.073-.47.144-.699.218-.072.024-.143.045-.212.069l-.492.16-.26.089c-.033.01-.067.023-.1.035l2.745-4.215.2 1.617a59.96 59.96 0 013.04-.755l-.716-4.626h-3.137l-8.04 11.64h3.464c1.474-1.263 3.412-2.407 5.72-3.399l.425 3.398h3.369l-.706-4.558c.821-.27 1.678-.52 2.561-.756L63.98 20.6h3.198l1.072-3.968c.433-.064.872-.127 1.312-.184l1.707 4.152h3.36l-1.783-3.895c1.997-.541 3.094-1.717 3.384-3.237zM54.988 11.851l.743-2.806H45.61l-.761 2.806h3.468l-2.361 8.753h3.22l2.345-8.753h3.466zM40.6 11.522c1.311-.157 2.599.14 3.31.35l.703-2.594c-.596-.19-1.738-.454-3.444-.43-2.824.04-4.905 1.634-4.905 3.93 0 1.699 1.174 2.492 3.006 3.186 1.616.627 1.932.86 1.932 1.305 0 .527-.545.858-1.305.858-.21 0-.418-.015-.621-.043h.002l-.024-.004a4.633 4.633 0 01-.364-.068c-1.162-.241-2.172-.682-3-1.278l-.75 2.73c1.177.86 2.71 1.342 4.492 1.342 2.873 0 4.922-1.62 4.922-3.995 0-1.735-1.222-2.546-3.005-3.22-1.586-.627-1.932-.793-1.932-1.256 0-.401.364-.729.97-.805h.003l.01-.008z" fill="#003767"></path>
            <path d="M0 14.499c0 6.262 4.015 11.6 9.667 13.695V.806C4.015 2.9 0 8.236 0 14.499zM14.112 0c-.41 0-.82.014-1.223.043v1.019h.075c5.673.039 10.24 4.255 10.2 9.413-.038 5.136-4.634 9.271-10.275 9.265v9.215c.403.033.812.045 1.223.045C22.332 29 29 22.509 29 14.498 29.002 6.491 22.332 0 14.112 0z" fill="#DC1928"></path>
        </g>
</svg>
