<svg xmlns="http://www.w3.org/2000/svg" width="154" height="40" fill="none"><path fill="#6BAA55" fill-rule="evenodd" d="M20 40a20 20 0 1 0 0-40 20 20 0 0 0 0 40Z" clip-rule="evenodd"/><rect width="2.67" height="4.26" x="8" y="18.3" fill="#fff" rx="1.33"/><rect width="2.67" height="15.33" x="11.56" y="12.33" fill="#fff" rx="1.33"/><rect width="2.67" height="23.85" x="15.11" y="8.07" fill="#fff" rx="1.33"/><rect width="2.67" height="17.89" x="18.67" y="11.48" fill="#fff" rx="1.33"/><rect width="2.67" height="10.22" x="22.22" y="14.89" fill="#fff" rx="1.33"/><rect width="2.67" height="13.63" x="25.78" y="13.19" fill="#fff" rx="1.33"/><rect width="2.67" height="7.67" x="29.33" y="16.59" fill="#fff" rx="1.33"/><path fill="#1C1C1C" d="M55.7 29c5.32 0 8.54-3.29 8.54-8.74 0-5.44-3.22-8.72-8.48-8.72h-6.24V29h6.18Zm-2.5-3.16V14.7h2.36c3.27 0 5 1.67 5 5.55 0 3.89-1.73 5.58-5 5.58H53.2ZM66.51 29h3.63v-7.4c0-1.62 1.18-2.73 2.78-2.73.5 0 1.2.09 1.53.2v-3.22a5.45 5.45 0 0 0-1.14-.13c-1.46 0-2.67.85-3.14 2.47h-.14v-2.28h-3.52V29ZM81.24 29.26c3.97 0 6.44-2.72 6.44-6.75 0-4.06-2.47-6.77-6.44-6.77-3.98 0-6.45 2.7-6.45 6.77 0 4.03 2.47 6.75 6.45 6.75Zm.01-2.82c-1.83 0-2.77-1.68-2.77-3.96 0-2.28.94-3.97 2.77-3.97 1.8 0 2.74 1.69 2.74 3.97 0 2.28-.94 3.96-2.74 3.96ZM89.64 33.9h3.63v-7h.11c.5 1.1 1.6 2.31 3.72 2.31 2.98 0 5.3-2.36 5.3-6.74 0-4.5-2.42-6.73-5.3-6.73a3.86 3.86 0 0 0-3.72 2.37h-.16v-2.2h-3.58v18Zm3.55-11.45c0-2.33 1-3.82 2.76-3.82 1.8 0 2.75 1.56 2.75 3.82 0 2.29-.97 3.87-2.75 3.87-1.75 0-2.76-1.53-2.76-3.87ZM104.43 29h3.63V15.9h-3.63V29Zm1.82-14.78c1.08 0 1.97-.83 1.97-1.84 0-1-.89-1.83-1.97-1.83-1.07 0-1.96.82-1.96 1.83 0 1.01.89 1.84 1.96 1.84ZM117.6 15.9H115v-.87c0-.89.36-1.4 1.43-1.4.43 0 .88.09 1.17.18l.64-2.73a9.57 9.57 0 0 0-2.57-.35c-2.46 0-4.3 1.39-4.3 4.23v.95h-1.84v2.73h1.85V29H115V18.64h2.6V15.9ZM119.42 29h3.64V15.9h-3.64V29Zm1.83-14.78c1.08 0 1.97-.83 1.97-1.84 0-1-.89-1.83-1.97-1.83s-1.96.82-1.96 1.83c0 1.01.88 1.84 1.96 1.84ZM131.53 29.26c3.24 0 5.42-1.58 5.93-4.01l-3.36-.22c-.36 1-1.3 1.52-2.51 1.52-1.82 0-2.97-1.2-2.97-3.16h8.92v-1c0-4.45-2.7-6.65-6.16-6.65-3.85 0-6.34 2.73-6.34 6.77 0 4.15 2.46 6.75 6.49 6.75Zm-2.9-8.13a2.76 2.76 0 0 1 2.81-2.68 2.58 2.58 0 0 1 2.68 2.68h-5.5ZM144.33 29.21a3.87 3.87 0 0 0 3.72-2.3h.15V29h3.58V11.55h-3.62v6.56h-.11a3.86 3.86 0 0 0-3.73-2.37c-2.87 0-5.3 2.23-5.3 6.73 0 4.38 2.33 6.74 5.31 6.74Zm1.15-2.89c-1.78 0-2.75-1.58-2.75-3.87 0-2.26.95-3.82 2.75-3.82 1.77 0 2.75 1.49 2.75 3.82 0 2.34-1 3.87-2.75 3.87Z"/></svg>