<svg width="52" height="52" viewBox="0 0 52 52" fill="none" xmlns="http://www.w3.org/2000/svg">
<path fill-rule="evenodd" clip-rule="evenodd" d="M37.2448 17.3333H43.3333V21.6667H38.805C38.9133 22.3817 39 23.0967 39 23.8333V26H43.3333V30.3333H39V32.5C39 33.2367 38.9133 33.9517 38.805 34.6667H43.3333V39H37.2448C34.9917 42.8783 30.81 45.5 26 45.5C21.1901 45.5 17.0083 42.8783 14.7551 39H8.66667V34.6667H13.1949C13.0868 33.9517 13 33.2367 13 32.5V30.3333H8.66667V26H13V23.8333C13 23.0967 13.0868 22.3817 13.1949 21.6667H8.66667V17.3333H14.7551C15.73 15.6433 17.0733 14.1916 18.6767 13.0867L15.1667 9.555L18.2217 6.5L22.945 11.2017C23.92 10.9633 24.9383 10.8333 26 10.8333C27.0617 10.8333 28.08 10.9633 29.0767 11.2017L33.7783 6.5L36.8333 9.555L33.3017 13.0867C34.9267 14.1916 36.27 15.6433 37.2448 17.3333ZM34.6667 32.5V26V23.8333C34.6667 23.3567 34.6017 22.815 34.5152 22.3383L34.2983 20.93L33.475 19.5217C32.825 18.3734 31.9367 17.42 30.8533 16.6834L29.5317 15.7733L28.0583 15.4267C27.365 15.2534 26.6931 15.1667 26 15.1667C25.3281 15.1667 24.635 15.2534 23.9635 15.4267L22.3598 15.8166L21.125 16.6617C20.0634 17.3983 19.1533 18.3734 18.5034 19.5L17.7018 20.9083L17.4849 22.3167C17.3984 22.7933 17.3333 23.335 17.3333 23.8333V32.5C17.3333 32.9983 17.3984 33.54 17.4849 34.0383L17.7018 35.4467L18.5034 36.8333C20.0634 39.4983 22.9233 41.1667 26 41.1667C29.0767 41.1667 31.9367 39.52 33.4967 36.8333L34.2983 35.425L34.5152 34.0167C34.6017 33.5183 34.6667 32.9767 34.6667 32.5ZM21.6667 30.3333H30.3333V34.6667H21.6667V30.3333ZM30.3333 21.6667H21.6667V26H30.3333V21.6667Z" fill="#828282"/>
</svg>
