<svg width="52" height="52" viewBox="0 0 52 52" fill="none" xmlns="http://www.w3.org/2000/svg">
<path fill-rule="evenodd" clip-rule="evenodd" d="M32.5 6.5H28.1667V10.8333H32.5V6.5ZM49.8334 23.8333H45.5V28.1667H49.8334V23.8333ZM49.8334 32.5H45.5V36.8333H49.8334V32.5ZM49.8334 41.1667H45.5V45.5C47.6667 45.5 49.8334 43.3333 49.8334 41.1667ZM45.5 15.1667H49.8334V19.5H45.5V15.1667ZM45.5 10.8333V6.5C47.6667 6.5 49.8334 8.66667 49.8334 10.8333H45.5ZM2.16669 15.1667H6.50002V19.5H2.16669V15.1667ZM41.1667 6.5H36.8334V10.8333H41.1667V6.5ZM36.8334 41.1667H41.1667V45.5H36.8334V41.1667ZM2.16669 10.8333C2.16669 8.66667 4.33335 6.5 6.50002 6.5V10.8333H2.16669ZM19.5 6.5H23.8334V10.8333H19.5V6.5ZM15.1667 6.5H10.8334V10.8333H15.1667V6.5ZM2.16669 23.8333V41.1667C2.16669 43.55 4.11673 45.5 6.50002 45.5H32.5V23.8333H2.16669ZM11.9167 34.2117L6.50002 41.1667H28.1667L21.2118 31.8933L15.7951 38.87L11.9167 34.2117Z" fill="black" fill-opacity="0.54"/>
</svg>
