<svg width="52" height="52" viewBox="0 0 52 52" fill="none" xmlns="http://www.w3.org/2000/svg">
<path fill-rule="evenodd" clip-rule="evenodd" d="M41.1667 3.25H10.8333C8.45004 3.25 6.5 5.19998 6.5 7.58333V37.9167C6.5 40.3 8.45004 42.25 10.8333 42.25H19.5L26 48.75L32.5 42.25H41.1667C43.55 42.25 45.5 40.3 45.5 37.9167V7.58333C45.5 5.19998 43.55 3.25 41.1667 3.25ZM41.1667 37.9167H30.7017L29.4233 39.195L26 42.6183L22.555 39.1733L21.2982 37.9167H10.8333V7.58333H41.1667V37.9167ZM30.0733 26.8233L26 35.75L21.9267 26.8233L13 22.75L21.9267 18.6767L26 9.75L30.0733 18.6767L39 22.75L30.0733 26.8233Z" fill="#E5E5E5"/>
</svg>
