<svg width="52" height="52" viewBox="0 0 52 52" fill="none" xmlns="http://www.w3.org/2000/svg">
<path fill-rule="evenodd" clip-rule="evenodd" d="M15.1667 2.16669H45.5C47.8833 2.16669 49.8333 4.11667 49.8333 6.50002V36.8334C49.8333 39.2167 47.8833 41.1667 45.5 41.1667H15.1667C12.7834 41.1667 10.8333 39.2167 10.8333 36.8334V6.50002C10.8333 4.11667 12.7834 2.16669 15.1667 2.16669ZM2.16666 10.8334H6.5V45.5H41.1667V49.8334H6.5C4.11671 49.8334 2.16666 47.8834 2.16666 45.5V10.8334ZM45.5 36.8334H15.1667V6.50002H45.5V36.8334ZM28.1667 28.1667H36.8333V32.5H23.8333V23.8334C23.8333 21.4284 25.7833 19.5 28.1667 19.5H32.5V15.1667H23.8333V10.8334H32.5C34.8833 10.8334 36.8333 12.7617 36.8333 15.1667V19.5C36.8333 21.905 34.8833 23.8334 32.5 23.8334H28.1667V28.1667Z" fill="#828282"/>
</svg>
