<svg xmlns="http://www.w3.org/2000/svg" width="18" height="20" fill="none" viewBox="0 0 18 20">
    <path fill="#8BB670" fill-rule="evenodd" d="M10.69 7.619H8.908V4.762H6.236V2.857h2.672V0h1.782v2.857h2.672v1.905H10.69v2.857zM3.572 18.095c0-1.047.793-1.904 1.773-1.904.98 0 1.781.857 1.781 1.904 0 1.048-.801 1.905-1.781 1.905-.98 0-1.773-.857-1.773-1.905zm10.68-1.904c-.979 0-1.772.857-1.772 1.904 0 1.048.793 1.905 1.773 1.905.98 0 1.781-.857 1.781-1.905 0-1.047-.801-1.904-1.781-1.904zm-1.29-4.762H6.324l-.98 1.904h10.69v1.905H5.344c-1.354 0-2.21-1.552-1.56-2.829l1.203-2.323-3.206-7.229H0V.952h2.913l3.795 8.572h6.253l3.448-6.667 1.55.914-3.439 6.677c-.303.59-.89.98-1.559.98z" clip-rule="evenodd"/>
</svg>
