<svg xmlns="http://www.w3.org/2000/svg" width="21" height="21" fill="none" viewBox="0 0 21 21">
    <path fill="#8BB670" fill-rule="evenodd" d="M10.5 6.125h8.75v12.25H1.75V2.625h8.75v3.5zm-7 10.5h1.75v-1.75H3.5v1.75zm1.75-3.5H3.5v-1.75h1.75v1.75zm-1.75-3.5h1.75v-1.75H3.5v1.75zm1.75-3.5H3.5v-1.75h1.75v1.75zM7 16.625h1.75v-1.75H7v1.75zm1.75-3.5H7v-1.75h1.75v1.75zM7 9.625h1.75v-1.75H7v1.75zm1.75-3.5H7v-1.75h1.75v1.75zm8.75 10.5v-8.75h-7v1.75h1.75v1.75H10.5v1.75h1.75v1.75H10.5v1.75h7zm-1.75-7H14v1.75h1.75v-1.75zm-1.75 3.5h1.75v1.75H14v-1.75z" clip-rule="evenodd"/>
</svg>
