<svg width="26" height="26" viewBox="0 0 26 26" fill="none" xmlns="http://www.w3.org/2000/svg">
<path d="M6.07611 12.4998C7.46069 11.3053 10.0398 10.499 13 10.499C15.9602 10.499 18.5393 11.3053 19.9239 12.4998" stroke="#485E74" stroke-width="1.5" stroke-linecap="round" stroke-linejoin="round"/>
<path d="M13 6.49731C8.5799 6.49731 4.99667 8.28883 4.99667 10.499C4.99667 12.1887 7.09423 13.6307 10.0559 14.2175" stroke="#485E74" stroke-width="1.5" stroke-linecap="round" stroke-linejoin="round"/>
<path d="M15.9441 14.2175C18.9058 13.6307 21.0033 12.1887 21.0033 10.499C21.0033 8.28883 17.4201 6.49731 13 6.49731" stroke="#485E74" stroke-width="1.5" stroke-linecap="round" stroke-linejoin="round"/>
<path d="M21.0033 10.499V14.5006C21.0033 16.1794 18.933 17.6146 16.0013 18.2086" stroke="#485E74" stroke-width="1.5" stroke-linecap="round" stroke-linejoin="round"/>
<path d="M9.99876 18.2086C7.067 17.6146 4.99667 16.1794 4.99667 14.5006V10.499" stroke="#485E74" stroke-width="1.5" stroke-linecap="round" stroke-linejoin="round"/>
<rect x="9.99875" y="13.5002" width="6.0025" height="6.0025" rx="1" stroke="#485E74" stroke-width="1.5" stroke-linecap="round" stroke-linejoin="round"/>
<path d="M16.0013 16.5014H14.0004" stroke="#485E74" stroke-width="1.5" stroke-linecap="round" stroke-linejoin="round"/>
</svg>
