<svg width="26" height="26" viewBox="0 0 26 26" fill="none" xmlns="http://www.w3.org/2000/svg">
<path fill-rule="evenodd" clip-rule="evenodd" d="M12.4998 9.99869H8.49811V7.99785C8.49811 7.44534 8.94601 6.99744 9.49852 6.99744H11.4994C12.0519 6.99744 12.4998 7.44534 12.4998 7.99785V9.99869Z" stroke="#485E74" stroke-width="1.5" stroke-linecap="round" stroke-linejoin="round"/>
<path d="M16.0013 13.7143C16.0013 12.7289 15.6098 11.7838 14.913 11.087C14.2162 10.3902 13.2711 9.99878 12.2857 9.99878H8.71222C6.66018 9.99878 4.99667 11.6623 4.99667 13.7143V20.0029C4.99667 21.108 5.89248 22.0038 6.99751 22.0038H9.99876" stroke="#485E74" stroke-width="1.5" stroke-linecap="round" stroke-linejoin="round"/>
<path fill-rule="evenodd" clip-rule="evenodd" d="M18.5023 19.0025C19.6073 19.0025 20.5031 18.1067 20.5031 17.0017C20.5031 15.8967 19.6073 15.0009 18.5023 15.0009C18.5023 15.8296 17.6065 16.5015 16.5015 16.5015H15.7511C15.0605 16.5015 14.5006 17.0614 14.5006 17.752C14.5006 18.4426 15.0605 19.0025 15.7511 19.0025H14.5006C13.6719 19.0025 13 19.6744 13 20.5031V20.5031C13 21.3319 13.6719 22.0038 14.5006 22.0038H20.5031C21.3319 22.0038 22.0037 21.3319 22.0037 20.5031V20.5031C22.0037 19.6744 21.3319 19.0025 20.5031 19.0025H18.5023Z" stroke="#485E74" stroke-width="1.5" stroke-linecap="round" stroke-linejoin="round"/>
<path d="M14.5006 4.99663L14.0865 4.58246C13.7113 4.2072 13.2025 3.99633 12.6719 3.99622H7.49771" stroke="#485E74" stroke-width="1.5" stroke-linecap="round" stroke-linejoin="round"/>
<path d="M10.499 6.99747V3.99622" stroke="#485E74" stroke-width="1.5" stroke-linecap="round" stroke-linejoin="round"/>
</svg>
