<svg width="26" height="26" viewBox="0 0 26 26" fill="none" xmlns="http://www.w3.org/2000/svg">
<path d="M10.9992 20.0029V23.0042" stroke="#485E74" stroke-width="1.5" stroke-linecap="round" stroke-linejoin="round"/>
<path fill-rule="evenodd" clip-rule="evenodd" d="M8.49812 9.99878H17.5019C18.3306 9.99878 19.0025 10.6706 19.0025 11.4994V17.0017C19.0025 18.6592 17.6588 20.0029 16.0012 20.0029H9.99875C8.3412 20.0029 6.9975 18.6592 6.9975 17.0017V11.4994C6.9975 10.6706 7.66935 9.99878 8.49812 9.99878Z" stroke="#485E74" stroke-width="1.5" stroke-linecap="round" stroke-linejoin="round"/>
<path d="M8.99832 9.99872V4.99663C8.99832 4.44412 9.44622 3.99622 9.99874 3.99622H16.0012C16.5538 3.99622 17.0017 4.44412 17.0017 4.99663V9.99872" stroke="#485E74" stroke-width="1.5" stroke-linecap="round" stroke-linejoin="round"/>
<path d="M11.4438 7.39767H11.8884" stroke="#485E74" stroke-width="1.5" stroke-linecap="round" stroke-linejoin="round"/>
<path d="M14.1116 7.39767H14.5562" stroke="#485E74" stroke-width="1.5" stroke-linecap="round" stroke-linejoin="round"/>
<path d="M15.0008 20.0029V23.0042" stroke="#485E74" stroke-width="1.5" stroke-linecap="round" stroke-linejoin="round"/>
</svg>
