<svg width="24" height="24" viewBox="0 0 24 24" fill="none" xmlns="http://www.w3.org/2000/svg">
<path d="M15.6497 19.3699L14.9875 18.9875C14.534 18.7257 14.2031 18.2945 14.0676 17.7887C13.9321 17.2829 14.003 16.744 14.2648 16.2906L16.2804 12.7994C16.5422 12.3459 16.9735 12.0151 17.4793 11.8795C17.985 11.744 18.5239 11.815 18.9774 12.0768L19.6397 12.4591" stroke="#485E74" stroke-width="1.5" stroke-linecap="round" stroke-linejoin="round"/>
<path fill-rule="evenodd" clip-rule="evenodd" d="M16.0148 20.7324V20.7324C15.5377 20.4569 15.3742 19.8469 15.6497 19.3698L19.6396 12.4591C19.9151 11.982 20.5251 11.8185 21.0022 12.094V12.094C21.4604 12.3585 21.7948 12.7943 21.9317 13.3053C22.0686 13.8164 21.9969 14.3609 21.7324 14.8191L18.7399 20.0022C18.189 20.9564 16.969 21.2833 16.0148 20.7324Z" stroke="#485E74" stroke-width="1.5" stroke-linecap="round" stroke-linejoin="round"/>
<path d="M8.3503 19.3699L9.01254 18.9875C9.46601 18.7257 9.7969 18.2945 9.93243 17.7887C10.0679 17.2829 9.997 16.744 9.73519 16.2906L7.71959 12.7994C7.45778 12.3459 7.02654 12.0151 6.52076 11.8795C6.01497 11.744 5.47606 11.815 5.02259 12.0768L4.36035 12.4591" stroke="#485E74" stroke-width="1.5" stroke-linecap="round" stroke-linejoin="round"/>
<path fill-rule="evenodd" clip-rule="evenodd" d="M2.99781 12.094V12.094C3.4749 11.8185 4.08495 11.982 4.3604 12.4591L8.35032 19.3698C8.62577 19.8469 8.46231 20.457 7.98522 20.7324V20.7324C7.52701 20.9969 6.98248 21.0686 6.47141 20.9317C5.96035 20.7948 5.52461 20.4604 5.26007 20.0022L2.26761 14.8191C2.00306 14.3609 1.93137 13.8164 2.06831 13.3053C2.20525 12.7942 2.53961 12.3585 2.99783 12.0939L2.99781 12.094Z" stroke="#485E74" stroke-width="1.5" stroke-linecap="round" stroke-linejoin="round"/>
<path d="M21.0076 12.094V11.0075C21.0076 8.61858 20.0585 6.32748 18.3693 4.63824C16.6801 2.949 14.389 2 12 2V2C9.61107 2 7.31997 2.94901 5.63073 4.63825C3.94149 6.32748 2.99249 8.61859 2.99249 11.0075V12.094" stroke="#485E74" stroke-width="1.5" stroke-linecap="round" stroke-linejoin="round"/>
</svg>
