<svg width="24" height="24" viewBox="0 0 24 24" fill="none" xmlns="http://www.w3.org/2000/svg">
<path d="M7.99833 21.0038H4.71096C3.76418 21.0032 2.9968 20.2359 2.99625 19.2891V16.0017" stroke="#485E74" stroke-width="1.5" stroke-linecap="round" stroke-linejoin="round"/>
<path d="M16.0017 3.9967H19.289C20.2358 3.99726 21.0032 4.76464 21.0037 5.71142V8.99879" stroke="#485E74" stroke-width="1.5" stroke-linecap="round" stroke-linejoin="round"/>
<path d="M6.99792 2.49604V1.99583" stroke="#485E74" stroke-width="1.5" stroke-linecap="round" stroke-linejoin="round"/>
<path d="M6.99792 11.9999V11.4997" stroke="#485E74" stroke-width="1.5" stroke-linecap="round" stroke-linejoin="round"/>
<path d="M10.1792 3.81658L10.5344 3.46143" stroke="#485E74" stroke-width="1.5" stroke-linecap="round" stroke-linejoin="round"/>
<path d="M3.46144 10.5343L3.81659 10.1792" stroke="#485E74" stroke-width="1.5" stroke-linecap="round" stroke-linejoin="round"/>
<path d="M11.4998 6.99789H12" stroke="#485E74" stroke-width="1.5" stroke-linecap="round" stroke-linejoin="round"/>
<path d="M1.99583 6.99789H2.49604" stroke="#485E74" stroke-width="1.5" stroke-linecap="round" stroke-linejoin="round"/>
<path d="M10.1792 10.1792L10.5344 10.5343" stroke="#485E74" stroke-width="1.5" stroke-linecap="round" stroke-linejoin="round"/>
<path d="M11.909 14.1829V21.0037H21.0037V14.1829" stroke="#485E74" stroke-width="1.5" stroke-linecap="round" stroke-linejoin="round"/>
<path d="M10.7715 14.9783L16.4559 10.9996L22.1402 14.9783" stroke="#485E74" stroke-width="1.5" stroke-linecap="round" stroke-linejoin="round"/>
<path d="M18.1616 21.0038V17.8204C18.1616 17.1928 17.6527 16.684 17.0251 16.684H15.8886C15.261 16.684 14.7521 17.1928 14.7521 17.8204V21.0038" stroke="#485E74" stroke-width="1.5" stroke-linecap="round" stroke-linejoin="round"/>
<path d="M3.46144 3.46143L3.81659 3.81658" stroke="#485E74" stroke-width="1.5" stroke-linecap="round" stroke-linejoin="round"/>
<circle cx="6.99792" cy="6.99797" r="2.10588" stroke="#485E74" stroke-width="1.5" stroke-linecap="round" stroke-linejoin="round"/>
</svg>
