<svg width="24" height="24" viewBox="0 0 24 24" fill="none" xmlns="http://www.w3.org/2000/svg">
<path fill-rule="evenodd" clip-rule="evenodd" d="M12.986 14C13.832 14 14.4 14.745 14.4 15.439C14.4 16.847 12.043 18 12 18C11.957 18 9.60001 16.847 9.60001 15.439C9.60001 14.745 10.168 14 11.014 14C11.498 14 11.816 14.226 12 14.428C12.184 14.226 12.502 14 12.986 14Z" stroke="#485E74" stroke-width="1.5" stroke-linecap="round" stroke-linejoin="round"/>
<path d="M12 12V14.43" stroke="#485E74" stroke-width="1.5" stroke-linecap="round" stroke-linejoin="round"/>
<path fill-rule="evenodd" clip-rule="evenodd" d="M12 20.9971C6.83299 20.9971 2.58199 17.0781 2.05599 12.0511C1.99899 11.5041 2.38499 11.0091 2.92999 10.9431C6.21999 10.5421 8.65499 7.98306 8.96499 3.90206C9.00399 3.39006 9.44699 3.00206 9.95999 3.00406L12 3.01006L14.04 3.00306C14.554 3.00106 14.997 3.39006 15.035 3.90206C15.345 7.98306 17.78 10.5411 21.069 10.9431C21.615 11.0101 22.002 11.5051 21.944 12.0531C21.418 17.0791 17.166 20.9971 12 20.9971Z" stroke="#485E74" stroke-width="1.5" stroke-linecap="round" stroke-linejoin="round"/>
<path d="M17.219 9.10303C15.981 10.857 14.118 12 12 12" stroke="#485E74" stroke-width="1.5" stroke-linecap="round" stroke-linejoin="round"/>
<path d="M6.78101 9.10303C8.01901 10.857 9.88201 12 12 12" stroke="#485E74" stroke-width="1.5" stroke-linecap="round" stroke-linejoin="round"/>
</svg>
