<svg width="24" height="24" viewBox="0 0 24 24" fill="none" xmlns="http://www.w3.org/2000/svg">
<path d="M13.86 13.83H10.14" stroke="#485E74" stroke-width="1.5" stroke-linecap="round" stroke-linejoin="round"/>
<path fill-rule="evenodd" clip-rule="evenodd" d="M9.965 13.659C8.92 12.921 8.294 11.632 8.514 10.213C8.753 8.67902 10.031 7.45502 11.573 7.27502C13.713 7.02402 15.529 8.69002 15.529 10.779C15.529 11.97 14.937 13.021 14.033 13.66C13.871 13.775 13.764 13.952 13.764 14.151V15.779C13.764 16.591 13.106 17.25 12.293 17.25H11.705C10.893 17.25 10.234 16.592 10.234 15.779V14.154C10.235 13.953 10.128 13.775 9.965 13.659Z" stroke="#485E74" stroke-width="1.5" stroke-linecap="round" stroke-linejoin="round"/>
<path d="M3.616 8.72699C2.357 11.954 3.027 15.758 5.633 18.364C9.149 21.879 14.85 21.879 18.366 18.364C20.973 15.758 21.642 11.953 20.384 8.72699" stroke="#485E74" stroke-width="1.5" stroke-linecap="round" stroke-linejoin="round"/>
<path d="M5.633 5.63601C9.149 2.12101 14.85 2.12101 18.366 5.63601" stroke="#485E74" stroke-width="1.5" stroke-linecap="round" stroke-linejoin="round"/>
</svg>
