<svg width="26" height="26" viewBox="0 0 26 26" fill="none" xmlns="http://www.w3.org/2000/svg">
<path d="M18.99 13L18.9901 20.5462C19 21.4446 18.4025 22.2364 17.5359 22.4733C14.5449 23.1811 11.4301 23.1811 8.43919 22.4733C7.57257 22.2365 6.97498 21.4446 6.98489 20.5462L6.98498 13" stroke="#485E74" stroke-width="1.5" stroke-linecap="round" stroke-linejoin="round"/>
<path d="M16.5015 4.01611V4.01611C16.5015 4.80682 16.1873 5.56515 15.6282 6.12426C15.0691 6.68338 14.3108 6.99748 13.5201 6.99748H12.4799C11.6892 6.99748 10.9309 6.68338 10.3718 6.12426C9.81264 5.56515 9.49854 4.80682 9.49854 4.01611V4.01611" stroke="#485E74" stroke-width="1.5" stroke-linecap="round" stroke-linejoin="round"/>
<path d="M6.98486 20.0029H3.99624C3.44372 20.0029 2.99582 19.555 2.99582 19.0025V13.5186C2.99582 13.1743 3.04026 12.8314 3.12803 12.4985L4.36608 7.80244C4.66778 6.65806 5.46056 5.70592 6.53136 5.20192L8.28348 4.37723C8.81657 4.12632 9.39848 3.99622 9.98766 3.99622H16.107C16.6962 3.99622 17.2781 4.12632 17.8111 4.37723L19.5352 5.18872C20.6221 5.70029 21.4217 6.67305 21.7131 7.8384L22.8846 12.5218C22.964 12.8394 23.0042 13.1655 23.0042 13.4928V19.0025C23.0042 19.555 22.5563 20.0029 22.0037 20.0029H18.9901" stroke="#485E74" stroke-width="1.5" stroke-linecap="round" stroke-linejoin="round"/>
</svg>
