<svg width="26" height="26" viewBox="0 0 26 26" fill="none" xmlns="http://www.w3.org/2000/svg">
<path d="M14.5136 11.4073V3.75816C17.6144 3.72612 20.4278 5.56934 21.6367 8.42495C22.8455 11.2806 22.2108 14.5835 20.0295 16.7876C17.8482 18.9916 14.552 19.6607 11.684 18.4815C8.81597 17.3024 6.94364 14.5083 6.94348 11.4073V8.37909C6.94348 7.58733 6.30163 6.94549 5.50988 6.94549V6.94549C5.12949 6.94522 4.7646 7.09615 4.49553 7.36503C4.22646 7.63391 4.07528 7.9987 4.07528 8.37909V8.85729" stroke="#485E74" stroke-width="1.5" stroke-linecap="round" stroke-linejoin="round"/>
<path d="M7.74081 11.4073H22.0828" stroke="#485E74" stroke-width="1.5" stroke-linecap="round" stroke-linejoin="round"/>
<path d="M19.0535 21.5796C18.9157 21.5807 18.8047 21.6931 18.8054 21.831C18.8062 21.9689 18.9183 22.0801 19.0562 22.0798C19.194 22.0794 19.3056 21.9675 19.3056 21.8297C19.3054 21.7631 19.2787 21.6993 19.2314 21.6524C19.1841 21.6055 19.1201 21.5793 19.0535 21.5796" stroke="#485E74" stroke-width="1.5" stroke-linecap="round" stroke-linejoin="round"/>
<path d="M9.97074 21.5816C9.83274 21.5821 9.72127 21.6944 9.72163 21.8324C9.722 21.9704 9.83407 22.082 9.97207 22.0818C10.1101 22.0816 10.2218 21.9697 10.2218 21.8317C10.2221 21.7651 10.1957 21.7012 10.1485 21.6542C10.1014 21.6072 10.0373 21.5811 9.97074 21.5816" stroke="#485E74" stroke-width="1.5" stroke-linecap="round" stroke-linejoin="round"/>
</svg>
