<svg width="26" height="26" viewBox="0 0 26 26" fill="none" xmlns="http://www.w3.org/2000/svg">
<path d="M15.0018 13.081H17.868" stroke="#485E74" stroke-width="1.5" stroke-linecap="round" stroke-linejoin="round"/>
<path d="M15.0018 18.8135L17.822 18.8125" stroke="#485E74" stroke-width="1.5" stroke-linecap="round" stroke-linejoin="round"/>
<path d="M15.0018 15.9472L16.9116 15.9462" stroke="#485E74" stroke-width="1.5" stroke-linecap="round" stroke-linejoin="round"/>
<path d="M15.0018 10.2148H16.9116" stroke="#485E74" stroke-width="1.5" stroke-linecap="round" stroke-linejoin="round"/>
<path d="M15.0018 7.42062H17.822" stroke="#485E74" stroke-width="1.5" stroke-linecap="round" stroke-linejoin="round"/>
<rect x="15.0008" y="3.99622" width="6.0025" height="18.0075" rx="1" stroke="#485E74" stroke-width="1.5" stroke-linecap="round" stroke-linejoin="round"/>
<path d="M4.99667 7.51074H10.0288C10.8354 7.51185 11.4888 8.16575 11.4894 8.97235V13" stroke="#485E74" stroke-width="1.5" stroke-linecap="round" stroke-linejoin="round"/>
<path fill-rule="evenodd" clip-rule="evenodd" d="M8.99834 6.02415V18.8585C8.9983 19.1823 8.91968 19.5012 8.76925 19.7879L7.88788 21.4686C7.71526 21.7984 7.37378 22.0051 7.00151 22.0051C6.62924 22.0051 6.28776 21.7984 6.11514 21.4686L5.23377 19.7879C5.08056 19.5019 4.99919 19.1829 4.99667 18.8585V6.03115C4.99612 4.92476 5.89112 4.02662 6.99751 4.02332V4.02332C8.10254 4.02332 8.99834 4.91912 8.99834 6.02415Z" stroke="#485E74" stroke-width="1.5" stroke-linecap="round" stroke-linejoin="round"/>
</svg>
