<svg width="26" height="26" viewBox="0 0 26 26" fill="none" xmlns="http://www.w3.org/2000/svg">
<path fill-rule="evenodd" clip-rule="evenodd" d="M14.9779 8.38452L17.6151 11.0217L11.0214 17.6154L8.38419 14.9782L14.9779 8.38452Z" stroke="#485E74" stroke-width="1.5" stroke-linecap="round" stroke-linejoin="round"/>
<path fill-rule="evenodd" clip-rule="evenodd" d="M4.42856 12.3403C4.79253 11.9763 5.38264 11.9763 5.74661 12.3403L13.6594 20.2531C14.0234 20.6171 14.0234 21.2072 13.6594 21.5712L12.9996 22.231C12.6356 22.595 12.0455 22.595 11.6815 22.231L3.76871 14.3182C3.40475 13.9542 3.40475 13.3641 3.76871 13.0001L4.42856 12.3403Z" stroke="#485E74" stroke-width="1.5" stroke-linecap="round" stroke-linejoin="round"/>
<path fill-rule="evenodd" clip-rule="evenodd" d="M4.42871 16.2971C4.79268 15.9331 5.38279 15.9331 5.74676 16.2971L9.70381 20.2541C10.0678 20.6181 10.0678 21.2082 9.70381 21.5722L9.04396 22.232C8.67999 22.596 8.08988 22.596 7.72591 22.232L3.76887 18.275C3.4049 17.911 3.4049 17.3209 3.76887 16.9569L4.42871 16.2971Z" stroke="#485E74" stroke-width="1.5" stroke-linecap="round" stroke-linejoin="round"/>
<path fill-rule="evenodd" clip-rule="evenodd" d="M21.5712 13.6603C21.2072 14.0243 20.6171 14.0243 20.2531 13.6603L12.3403 5.74748C11.9763 5.38351 11.9763 4.7934 12.3403 4.42943L13.0001 3.76958C13.3641 3.40562 13.9542 3.40562 14.3182 3.76958L22.231 11.6824C22.595 12.0464 22.595 12.6365 22.231 13.0005L21.5712 13.6603Z" stroke="#485E74" stroke-width="1.5" stroke-linecap="round" stroke-linejoin="round"/>
<path fill-rule="evenodd" clip-rule="evenodd" d="M21.5715 9.70292C21.2075 10.0669 20.6174 10.0669 20.2534 9.70291L16.2964 5.74587C15.9324 5.3819 15.9324 4.79179 16.2964 4.42782L16.9562 3.76798C17.3202 3.40401 17.9103 3.40401 18.2743 3.76798L22.2313 7.72502C22.5953 8.08899 22.5953 8.6791 22.2313 9.04307L21.5715 9.70292Z" stroke="#485E74" stroke-width="1.5" stroke-linecap="round" stroke-linejoin="round"/>
</svg>
