<svg width="24" height="24" viewBox="0 0 24 24" fill="none" xmlns="http://www.w3.org/2000/svg">
<path d="M10.5 10.5L3.62132 17.3787C3.2235 17.7765 3 18.3161 3 18.8787C3 19.4413 3.2235 19.9808 3.62132 20.3787V20.3787C4.01915 20.7765 4.55871 21 5.12132 21C5.68393 21 6.2235 20.7765 6.62132 20.3787L13.5 13.5" stroke="#485E74" stroke-width="1.5" stroke-linecap="round" stroke-linejoin="round"/>
<path d="M10 10L14 14" stroke="#485E74" stroke-width="1.5" stroke-linecap="round" stroke-linejoin="round"/>
<path d="M6 10L3.82841 7.82843C2.72384 6.72386 2.72384 4.933 3.82841 3.82843V3.82843C4.35884 3.298 5.07826 3 5.82841 3C6.57856 3 7.29798 3.298 7.82841 3.82843L12 8.00001" stroke="#485E74" stroke-width="1.5" stroke-linecap="round" stroke-linejoin="round"/>
<path d="M5 9L9 5" stroke="#485E74" stroke-width="1.5" stroke-linecap="round" stroke-linejoin="round"/>
<path fill-rule="evenodd" clip-rule="evenodd" d="M19.6292 3.03273L17.1768 3.84989C16.7684 3.98597 16.4929 4.36812 16.4929 4.79858V6.50709C16.4929 7.05937 16.9406 7.50709 17.4929 7.50709H19.2025C19.6331 7.50708 20.0153 7.23145 20.1513 6.82291L20.9674 4.37109C21.0271 4.19152 20.9804 3.99361 20.8466 3.85975L20.1409 3.15367C20.007 3.01968 19.8089 2.97285 19.6292 3.03273Z" stroke="#485E74" stroke-width="1.5" stroke-linecap="round" stroke-linejoin="round"/>
<path d="M11.9999 11.9999L16.7857 7.21405" stroke="#485E74" stroke-width="1.5" stroke-linecap="round" stroke-linejoin="round"/>
<path d="M16 12L19.7089 15.7089C19.9881 15.9881 20.1784 16.3437 20.2559 16.7309L20.99 20.4017C21.0228 20.5656 20.9715 20.7351 20.8533 20.8533C20.7351 20.9715 20.5656 21.0228 20.4016 20.99L16.7309 20.2559C16.3437 20.1784 15.9881 19.9881 15.7089 19.7089L14 18" stroke="#485E74" stroke-width="1.5" stroke-linecap="round" stroke-linejoin="round"/>
</svg>
