<svg width="24" height="24" viewBox="0 0 24 24" fill="none" xmlns="http://www.w3.org/2000/svg">
<path d="M6 10H9" stroke="#485E74" stroke-width="1.5" stroke-linecap="round" stroke-linejoin="round"/>
<path d="M7.5 8.5V11.5" stroke="#485E74" stroke-width="1.5" stroke-linecap="round" stroke-linejoin="round"/>
<path fill-rule="evenodd" clip-rule="evenodd" d="M19.6493 5.37613C14.7148 3.54129 9.28521 3.54129 4.35074 5.37613C3.48456 5.72306 2.83458 6.46068 2.59939 7.36364C1.77226 10.933 1.80125 14.6473 2.684 18.2033C2.86282 18.8469 3.35078 19.3589 3.985 19.5685L5.124 19.948C5.62477 20.1171 6.17036 19.8654 6.36693 19.3748C6.7674 18.3736 7.41473 16.7552 7.76839 15.8712C7.92006 15.4924 8.28755 15.2445 8.69562 15.2457H15.3041C15.7131 15.2457 16.0808 15.4946 16.2327 15.8743L17.631 19.3706C17.8277 19.8622 18.3735 20.1154 18.8758 19.9479L20.0152 19.568C20.6494 19.3584 21.1372 18.8464 21.316 18.2029C22.1987 14.6471 22.2277 10.9329 21.4006 7.36368C21.1655 6.46071 20.5155 5.72307 19.6493 5.37613Z" stroke="#485E74" stroke-width="1.5" stroke-linecap="round" stroke-linejoin="round"/>
<path d="M14.35 10.0002C14.3499 10.0968 14.2715 10.175 14.1749 10.175C14.0783 10.175 14 10.0967 14 10.0001C14 9.90348 14.0782 9.82512 14.1748 9.825C14.2213 9.82494 14.2659 9.84338 14.2987 9.87626C14.3316 9.90913 14.3501 9.95373 14.35 10.0002" stroke="#485E74" stroke-width="1.5" stroke-linecap="round" stroke-linejoin="round"/>
<path d="M18 10.0002C17.9999 10.0968 17.9215 10.175 17.8249 10.175C17.7283 10.175 17.65 10.0967 17.65 10.0001C17.65 9.90348 17.7282 9.82512 17.8248 9.825C17.8713 9.82494 17.9159 9.84338 17.9487 9.87626C17.9816 9.90913 18.0001 9.95373 18 10.0002" stroke="#485E74" stroke-width="1.5" stroke-linecap="round" stroke-linejoin="round"/>
<path d="M16.0002 11.65C16.0968 11.6501 16.175 11.7284 16.175 11.825C16.175 11.9216 16.0967 11.9999 16.0001 12C15.9035 12 15.8251 11.9218 15.825 11.8252C15.8249 11.7787 15.8434 11.7341 15.8763 11.7012C15.9091 11.6683 15.9537 11.6499 16.0002 11.65" stroke="#485E74" stroke-width="1.5" stroke-linecap="round" stroke-linejoin="round"/>
<path d="M16.0002 8.00005C16.0968 8.00017 16.175 8.07853 16.175 8.17512C16.175 8.27171 16.0967 8.35001 16.0001 8.35005C15.9035 8.35009 15.8251 8.27186 15.825 8.17527C15.8249 8.12878 15.8434 8.08418 15.8763 8.05131C15.9091 8.01843 15.9537 7.99999 16.0002 8.00005" stroke="#485E74" stroke-width="1.5" stroke-linecap="round" stroke-linejoin="round"/>
</svg>
