<svg width="24" height="24" viewBox="0 0 24 24" fill="none" xmlns="http://www.w3.org/2000/svg">
<path fill-rule="evenodd" clip-rule="evenodd" d="M9.8198 20H14.1802C14.6569 20 15.0673 19.6635 15.1608 19.1961L15.2155 18.9223C15.6717 16.6417 17.6742 15 20 15V15C20.5523 15 21 14.5523 21 14V7C21 6.44772 20.5523 6 20 6H4C3.44772 6 3 6.44772 3 7V14C3 14.5523 3.44772 15 4 15V15C6.32583 15 8.32833 16.6417 8.78446 18.9223L8.83922 19.1961C8.93271 19.6635 9.34312 20 9.8198 20Z" stroke="#485E74" stroke-width="1.5" stroke-linecap="round" stroke-linejoin="round"/>
<path d="M21 9H3" stroke="#485E74" stroke-width="1.5" stroke-linecap="round" stroke-linejoin="round"/>
<path d="M17 16V16C15.7194 14.7194 15 12.9826 15 11.1716V9" stroke="#485E74" stroke-width="1.5" stroke-linecap="round" stroke-linejoin="round"/>
<path d="M7 16V16C8.28058 14.7194 9 12.9826 9 11.1716V9" stroke="#485E74" stroke-width="1.5" stroke-linecap="round" stroke-linejoin="round"/>
</svg>
