<svg width="24" height="24" viewBox="0 0 24 24" fill="none" xmlns="http://www.w3.org/2000/svg">
<path fill-rule="evenodd" clip-rule="evenodd" d="M19.99 19.6C19.285 11.896 14.264 9.04898 14.264 9.04898C14.264 6.89298 15.858 5.46598 16.895 4.76598C17.379 4.43898 17.537 3.78898 17.278 3.25698L16.99 2.66498C16.753 2.17898 16.221 1.90098 15.708 2.03398C14.479 2.35298 13.369 3.11198 12.691 3.65498C12.283 3.98198 11.718 3.98198 11.309 3.65498C10.63 3.11198 9.51999 2.35298 8.29199 2.03398C7.77899 1.89998 7.24699 2.17798 7.00999 2.66498L6.72199 3.25698C6.46299 3.78898 6.62199 4.43998 7.10499 4.76598C8.14199 5.46598 9.73599 6.89298 9.73599 9.04898C9.73599 9.04898 4.71399 11.896 4.00999 19.6C3.84499 21.401 5.83799 22.537 7.19999 21.392L7.22499 21.371C8.06199 20.668 9.50099 20.582 10.291 21.342C11.195 22.212 12.772 22.219 13.687 21.364C14.5 20.605 15.951 20.677 16.801 21.392V21.392C18.162 22.538 20.155 21.402 19.99 19.6V19.6Z" stroke="#485E74" stroke-width="1.5" stroke-linecap="round" stroke-linejoin="round"/>
<path d="M9.73999 9.04999H14.26" stroke="#485E74" stroke-width="1.5" stroke-linecap="round" stroke-linejoin="round"/>
</svg>
