<svg xmlns="http://www.w3.org/2000/svg" style="enable-background:new 0 0 652 652" xml:space="preserve" viewBox="20.92 253.33 600.08 135.07"><path d="M196.5 333.7c-2.3-3.2-6.3-5.8-11.2-5.8-9 0-15.4 6.8-15.4 16.1s6.5 16.1 15.4 16.1c4.2 0 8.1-1.8 10.1-3.6.1-.1.2-.3.2-.5v-5c0-.3-.3-.6-.6-.6h-11.5c-.5 0-.8-.4-.8-.8v-7.5c0-.5.4-.8.8-.8h20.7v-11.1l-6.7 3.7c-.2.2-.7.1-1-.2zm-97 5.2h12.3c3.5 0 5.7-2 5.7-5.1 0-3-2.2-5.1-5.7-5.1H99.5c-.4 0-.8.3-.8.8v8.8c.1.3.4.6.8.6zm50.1 28.9c0 .4-.3.7-.7.7h-9.1c-.4 0-.7-.3-.7-.7v-47.7c0-.4.3-.7.7-.7h9.1c.4 0 .7.3.7.7v47.7zm52.1-114.2-89.9 65.8h2.3c9.3 0 14.1 6 14.1 12.5 0 5.1-2.7 8.9-6.2 10.5-.6.3-.6 1.1 0 1.4 4.2 1.7 7.1 6.2 7.1 11.4 0 7.4-4.8 13.3-14.2 13.3H89.1c-.4 0-.8-.3-.8-.8v-31.1l-66.7 48.8c-1.3.9-.6 3 1 3h180c.9 0 1.6-.7 1.6-1.6v-24.7c-4.8 4.5-11.2 7.3-18.9 7.3-14.4 0-26.1-9.9-26.1-25.4 0-15.5 11.8-25.4 26.1-25.4 9.1 0 15.1 4.1 18.9 9.1V255c.1-1.4-1.4-2.1-2.5-1.4zM99.5 359.3h12.7c3.9 0 6.2-2.1 6.2-5.6 0-3.1-2.2-5.6-6.2-5.6H99.5c-.4 0-.8.3-.8.8v9.6c.1.5.4.8.8.8zm157-1.5-5.6-2.9c-.4-.2-.8-.1-1 .3-2.4 3.7-6.8 6.5-11.5 6.5-9.4 0-16.3-7.5-16.3-17.7 0-10.4 6.9-17.7 16.3-17.7 4.8 0 9.1 2.7 11.5 6.5.2.4.7.5 1 .3l5.6-3c.4-.2.6-.8.3-1.2-3.5-5.6-9.4-10.2-18.5-10.2-14 0-24.8 10.2-24.8 25.4 0 15.1 10.8 25.4 24.8 25.4 9.1 0 14.9-4.8 18.5-10.3.3-.6.2-1.2-.3-1.4zm29.3 3.9c-9.6 0-15.7-7.6-15.7-17.7s6.1-17.7 15.7-17.7c9.5 0 15.7 7.6 15.7 17.7 0 10-6.2 17.7-15.7 17.7zm-6.7-42.3c-10.5 2.8-17.5 12.3-17.5 24.5 0 14.6 10 25.4 24.2 25.4 12.1 0 21.2-7.9 23.6-19.3 3.8-18.6-12.5-35.3-30.3-30.6zm89.7 0H358c-.5 0-.9.3-1.1.7l-13 33.7-13.1-33.7c-.2-.4-.6-.7-1.1-.7h-10.8c-.3 0-.6.3-.6.6v47.9c0 .3.3.6.6.6h7.4c.3 0 .6-.3.6-.6v-37.3l15 37.6c.1.2.2.3.4.3h3.1c.2 0 .3-.1.4-.3l14.9-37.6v37.3c0 .3.3.6.6.6h7.4c.3 0 .6-.3.6-.6V320c.1-.3-.2-.6-.5-.6zm109.9 0h-31.8c-.5 0-.9.4-.9.9v47.3c0 .5.4.9.9.9h31.8c.5 0 .9-.4.9-.9v-5.8c0-.5-.4-.9-.9-.9h-23.2a.9.9 0 0 1-.9-.9v-11.9c0-.5.4-.9.9-.9h22.7c.5 0 .9-.4.9-.9v-5.8c0-.5-.4-.9-.9-.9h-22.7a.9.9 0 0 1-.9-.9v-10.9c0-.5.4-.9.9-.9h23.2c.5 0 .9-.4.9-.9v-5.8c0-.4-.4-.8-.9-.8zm33.5 23.2h-10.9a.9.9 0 0 1-.9-.9v-13.8c0-.5.4-.9.9-.9h10.9c4.8 0 8.4 3 8.4 7.7 0 4.8-3.5 7.9-8.4 7.9zm6.8 6.3c5.5-1.4 10.4-6.1 10.4-14.2 0-9.1-6.4-15.4-16.1-15.4h-20.6c-.5 0-.9.4-.9.9v47.3c0 .5.4.9.9.9h6.8c.5 0 .9-.4.9-.9V351c0-.5.4-.9.9-.9h7.2c.3 0 .6.2.8.4l10.3 17.4c.2.3.4.4.8.4h7.9c.7 0 1.1-.8.7-1.3-2.3-3.6-8.5-13.6-10.5-16.9-.4-.4-.1-1 .5-1.2zm77.9-21.9h23.2c.5 0 .9-.4.9-.9v-5.8c0-.5-.4-.9-.9-.9h-31.8c-.5 0-.9.4-.9.9v47.3c0 .5.4.9.9.9h31.8c.5 0 .9-.4.9-.9v-5.8c0-.5-.4-.9-.9-.9h-23.2a.9.9 0 0 1-.9-.9v-11.9c0-.5.4-.9.9-.9h22.7c.5 0 .9-.4.9-.9v-5.8c0-.5-.4-.9-.9-.9h-22.7a.9.9 0 0 1-.9-.9v-10.9c0-.4.4-.8.9-.8zm-18.2 30.6-5.6-2.9c-.4-.2-.8-.1-1 .3-2.4 3.7-6.8 6.5-11.5 6.5-9.4 0-16.3-7.5-16.3-17.7 0-10.4 6.9-17.7 16.3-17.7 4.8 0 9.1 2.7 11.5 6.5.2.4.7.5 1 .3l5.6-3c.4-.2.6-.8.3-1.2-3.5-5.6-9.4-10.2-18.5-10.2-14 0-24.8 10.2-24.8 25.4 0 15.1 10.8 25.4 24.8 25.4 9.1 0 14.9-4.8 18.5-10.3.3-.6.1-1.2-.3-1.4zm-146.4-38.2h-10.8c-.5 0-.9.3-1.1.7l-13 33.7-13.1-33.7c-.2-.4-.6-.7-1.1-.7h-10.8c-.3 0-.6.3-.6.6v47.9c0 .3.3.6.6.6h7.4c.3 0 .6-.3.6-.6v-37.3l15 37.6c.1.2.2.3.4.3h3.1c.2 0 .3-.1.4-.3l14.9-37.6v37.3c0 .3.3.6.6.6h7.4c.3 0 .6-.3.6-.6V320c0-.3-.2-.6-.5-.6z" style="fill:#34313f"/></svg>