<svg width="177" height="25" fill="none" xmlns="http://www.w3.org/2000/svg"><path d="M36.86 13c0-.84.14-1.66.43-2.48.3-.83.73-1.57 1.29-2.22a6.5 6.5 0 0 1 2.04-1.58 6.07 6.07 0 0 1 2.8-.63c1.23 0 2.28.29 3.15.86a5.28 5.28 0 0 1 1.95 2.17l-.82.46a4.53 4.53 0 0 0-3.14-2.43c-.41-.1-.82-.14-1.23-.14-.88 0-1.66.18-2.34.55-.67.35-1.24.8-1.71 1.38a6.2 6.2 0 0 0-1.08 1.95 6.92 6.92 0 0 0 .08 4.5c.29.75.68 1.4 1.17 1.97.5.56 1.08 1.01 1.76 1.35.67.34 1.4.5 2.18.5a5.61 5.61 0 0 0 2.56-.64 4.68 4.68 0 0 0 2-2.07l.86.42c-.23.52-.55.98-.95 1.38a6 6 0 0 1-2.93 1.64c-.54.13-1.08.2-1.62.2-.95 0-1.82-.21-2.6-.63a7.01 7.01 0 0 1-2.04-1.62 7.6 7.6 0 0 1-1.81-4.9ZM56.66 20.11c-.96 0-1.84-.2-2.63-.6a6.8 6.8 0 0 1-3.37-3.82 7.43 7.43 0 0 1 1.38-7.49 6.52 6.52 0 0 1 2.07-1.54c.8-.4 1.65-.59 2.57-.59a6.37 6.37 0 0 1 4.68 2.22 7.3 7.3 0 0 1 1.33 2.27 7.17 7.17 0 0 1-.04 5.2c-.32.85-.78 1.6-1.37 2.25a6.69 6.69 0 0 1-2.04 1.54c-.8.38-1.65.56-2.58.56Zm-5.48-7.02a6.6 6.6 0 0 0 1.52 4.25c.5.56 1.08 1.01 1.76 1.35.68.34 1.42.5 2.22.5.84 0 1.58-.17 2.25-.52a5.41 5.41 0 0 0 1.71-1.38 6.54 6.54 0 0 0 1.5-4.2 6.44 6.44 0 0 0-1.56-4.23 5.46 5.46 0 0 0-1.71-1.36c-.67-.34-1.4-.5-2.19-.5-.83 0-1.58.17-2.26.52-.68.35-1.25.82-1.73 1.4a6.56 6.56 0 0 0-1.5 4.17ZM78.37 20.02V8.04l-5.46 9.34h-.63l-5.46-9.34v11.98h-1V6.17h1l5.77 9.9 5.78-9.9h.99v13.85h-1ZM95.52 20.02V8.04l-5.46 9.34h-.62l-5.46-9.34v11.98h-1V6.17h1l5.77 9.9 5.77-9.9h1v13.85h-1ZM109.37 19.12v.9h-9.23V6.17h9.05v.9h-8.05v5.44h7.04v.86h-7.04v5.75h8.23ZM112.08 20.02V6.17h5.75c.59 0 1.13.13 1.62.37.5.25.92.58 1.27 1 .36.4.64.86.84 1.38.2.5.31 1.02.31 1.54a4.36 4.36 0 0 1-.9 2.75 3.74 3.74 0 0 1-2.36 1.42l3.46 5.39h-1.15l-3.36-5.23h-4.48v5.23h-1Zm1-6.15h4.85c.44 0 .85-.1 1.21-.29a3.13 3.13 0 0 0 1.52-1.85c.15-.42.22-.84.22-1.27 0-.44-.09-.86-.26-1.27a3.33 3.33 0 0 0-1.64-1.83c-.36-.2-.76-.3-1.18-.3h-4.72v6.81ZM123.8 13a7.01 7.01 0 0 1 1.72-4.7 6.5 6.5 0 0 1 2.03-1.58 6.07 6.07 0 0 1 2.8-.63c1.23 0 2.28.29 3.15.86a5.28 5.28 0 0 1 1.95 2.17l-.82.46a4.53 4.53 0 0 0-3.14-2.43c-.41-.1-.82-.14-1.23-.14-.88 0-1.66.18-2.33.55-.68.35-1.25.8-1.72 1.38a6.2 6.2 0 0 0-1.07 1.95 6.92 6.92 0 0 0 .07 4.5c.29.75.68 1.4 1.17 1.97.5.56 1.08 1.01 1.76 1.35.68.34 1.4.5 2.18.5a5.61 5.61 0 0 0 2.56-.64 4.68 4.68 0 0 0 2-2.07l.86.42c-.23.52-.55.98-.95 1.38a6 6 0 0 1-2.93 1.64c-.54.13-1.08.2-1.62.2-.94 0-1.81-.21-2.6-.63a7.01 7.01 0 0 1-2.04-1.62 7.6 7.6 0 0 1-1.81-4.9ZM147.43 19.12v.9h-9.22V6.17h9.05v.9h-8.06v5.44h7.04v.86h-7.04v5.75h8.23ZM161.26 6.17v13.85h-2.2v-6.1h-6.98v6.1h-2.18V6.17h2.18v5.8h6.98v-5.8h2.2ZM173.75 19a6.6 6.6 0 0 1-3.61 1.11c-.99 0-1.9-.2-2.71-.6a6.97 6.97 0 0 1-3.45-3.82 7.43 7.43 0 0 1 .04-5.25 6.68 6.68 0 0 1 3.5-3.78c.8-.4 1.7-.59 2.66-.59a6.53 6.53 0 0 1 4.78 2.22 7.1 7.1 0 0 1 1.34 2.27 6.97 6.97 0 0 1 0 5.19 7.28 7.28 0 0 1-1.36 2.2l1.81 2.07h-2.1l-.9-1.02Zm-3.59-.86a4.06 4.06 0 0 0 2.24-.66l-1.97-2.28h2.1l1 1.15c.34-.45.6-.96.76-1.52a6.1 6.1 0 0 0-.05-3.63c-.21-.6-.51-1.15-.9-1.62a4.12 4.12 0 0 0-5.05-1.09c-.55.29-1.01.67-1.39 1.15-.37.47-.67 1.01-.87 1.62a5.88 5.88 0 0 0 .9 5.34 4.04 4.04 0 0 0 3.24 1.54Z" fill="#333"/><path fill-rule="evenodd" clip-rule="evenodd" d="M18.13 6.47v2.59c0 .91.55 1.45 1.34 1.45h.96c.1 0 .18-.07.18-.17V4.86c0-.54-.3-1.03-.76-1.3l-3.58-2.04A7.6 7.6 0 0 0 10.2.87l7 4c.58.34.93.94.93 1.6Zm-6.55.14L9.9 5.66a1.63 1.63 0 0 0-1.62 0L1.75 9.4c-.46.27-.75.76-.75 1.29v4.1c0 2.13.92 4.13 2.47 5.52v-8c0-.66.36-1.27.93-1.6l7.18-4.1Zm5.62 2.16-7.17-4.1a1.87 1.87 0 0 0-1.86 0l-7 4a7.47 7.47 0 0 1 3.6-4.88l3.58-2.05a1.51 1.51 0 0 1 1.5 0l6.55 3.74c.5.28.8.81.8 1.38v1.9Zm-10.32 9.8v-8.21l-1.67.95c-.5.29-.8.82-.8 1.39v7.48c0 .53.28 1.02.74 1.29l3.59 2.05a7.6 7.6 0 0 0 6.07.64l-7-4a1.84 1.84 0 0 1-.93-1.6ZM21.53 4.71C23.1 5.65 24 7.09 24 8.6v.53c0 .73-.59 1.37-1.27 1.37H21.7a.17.17 0 0 1-.18-.17l.01-5.62ZM24 16.29c0 1.82-.8 3.16-2.48 4.24-1.2.78-4.87 2.77-4.87 2.77-.46.26-1.03.26-1.5 0L8.6 19.54c-.49-.27-.79-.79-.79-1.35v-1.93l7.17 4.1c.58.33 1.29.33 1.86 0l3.77-2.15c.57-.33.93-.94.93-1.6v-2.09c0-.1.07-.17.17-.17h1.03c.68 0 1.27.64 1.27 1.37v.57Zm-3.57-1.94c.1 0 .17.08.17.17v1.73c0 .56-.3 1.07-.78 1.35l-3.1 1.77c-.5.3-1.12.3-1.62 0l-1.67-.95s3.02-1.74 4.03-2.3c.29-.16.56-.36.71-.73.24-.57.6-1.04 1.46-1.04h.8Z" fill="#333"/><mask id="a" style="mask-type:alpha" maskUnits="userSpaceOnUse" x="1" y="0" width="23" height="25"><path fill-rule="evenodd" clip-rule="evenodd" d="M18.13 6.47v2.59c0 .91.55 1.45 1.34 1.45h.96c.1 0 .18-.07.18-.17V4.86c0-.54-.3-1.03-.76-1.3l-3.58-2.04A7.6 7.6 0 0 0 10.2.87l7 4c.58.34.93.94.93 1.6Zm-6.55.14L9.9 5.66a1.63 1.63 0 0 0-1.62 0L1.75 9.4c-.46.27-.75.76-.75 1.29v4.1c0 2.13.92 4.13 2.47 5.52v-8c0-.66.36-1.27.93-1.6l7.18-4.1Zm5.62 2.16-7.17-4.1a1.87 1.87 0 0 0-1.86 0l-7 4a7.47 7.47 0 0 1 3.6-4.88l3.58-2.05a1.51 1.51 0 0 1 1.5 0l6.55 3.74c.5.28.8.81.8 1.38v1.9Zm-10.32 9.8v-8.21l-1.67.95c-.5.29-.8.82-.8 1.39v7.48c0 .53.28 1.02.74 1.29l3.59 2.05a7.6 7.6 0 0 0 6.07.64l-7-4a1.84 1.84 0 0 1-.93-1.6ZM21.53 4.71C23.1 5.65 24 7.09 24 8.6v.53c0 .73-.59 1.37-1.27 1.37H21.7a.17.17 0 0 1-.18-.17l.01-5.62ZM24 16.29c0 1.82-.8 3.16-2.48 4.24-1.2.78-4.87 2.77-4.87 2.77-.46.26-1.03.26-1.5 0L8.6 19.54c-.49-.27-.79-.79-.79-1.35v-1.93l7.17 4.1c.58.33 1.29.33 1.86 0l3.77-2.15c.57-.33.93-.94.93-1.6v-2.09c0-.1.07-.17.17-.17h1.03c.68 0 1.27.64 1.27 1.37v.57Zm-3.57-1.94c.1 0 .17.08.17.17v1.73c0 .56-.3 1.07-.78 1.35l-3.1 1.77c-.5.3-1.12.3-1.62 0l-1.67-.95s3.02-1.74 4.03-2.3c.29-.16.56-.36.71-.73.24-.57.6-1.04 1.46-1.04h.8Z" fill="#fff"/></mask><g mask="url(#a)"><path fill="#333" d="M0 .52h24v24H0z"/></g></svg>