<svg xmlns="http://www.w3.org/2000/svg" width="2500" height="1002" viewBox="0.1 0.1 299.8 120.13"><path d="M38.87 26.3C17.72 26.3.1 35.29.1 62.36c0 21.44 11.85 34.94 39.31 34.94 32.33 0 34.4-21.3 34.4-21.3H58.15s-3.36 11.47-19.7 11.47c-13.3 0-22.86-8.98-22.86-21.58h59.86v-7.9c0-12.46-7.91-31.67-36.58-31.67zm-.55 10.11c12.66 0 21.3 7.76 21.3 19.38H15.92c0-12.34 11.27-19.38 22.39-19.38z" fill="#e53238"/><path d="M75.44.1v83.6c0 4.74-.34 11.4-.34 11.4h14.94s.54-4.78.54-9.15c0 0 7.38 11.54 27.45 11.54 21.13 0 35.49-14.67 35.49-35.7 0-19.55-13.19-35.28-35.46-35.28-20.85 0-27.33 11.26-27.33 11.26V.1h-15.3zm38.76 36.75c14.36 0 23.48 10.65 23.48 24.95 0 15.33-10.54 25.35-23.37 25.35-15.32 0-23.58-11.96-23.58-25.21 0-12.36 7.41-25.09 23.47-25.09z" fill="#0064d2"/><path d="M190.65 26.3c-31.82 0-33.86 17.43-33.86 20.21h15.84s.83-10.17 16.92-10.17c10.46 0 18.57 4.79 18.57 14v3.27h-18.57c-24.64 0-37.67 7.2-37.67 21.84 0 14.4 12.04 22.23 28.3 22.23 22.18 0 29.32-12.25 29.32-12.25 0 4.87.37 9.68.37 9.68h14.08s-.54-5.96-.54-9.76V52.43c0-21.58-17.41-26.12-32.77-26.12zm17.47 37.14v4.37c0 5.7-3.52 19.86-24.21 19.86-11.34 0-16.2-5.66-16.2-12.22 0-11.94 16.37-12.01 40.4-12.01z" fill="#f5af02"/><path d="M214.88 29.04h17.81l25.57 51.22 25.5-51.22h16.14l-46.46 91.19h-16.93l13.41-25.42-35.04-65.77z" fill="#86b817"/></svg>