<svg xmlns="http://www.w3.org/2000/svg" viewBox="0 0 1000 193.55"><path d="M63.35 190.56H25.67V96.63H0V66.05h25.67V44.28C25.67 18.5 37.02 0 74.6 0c7.95 0 20.43 1.6 20.43 1.6V30H81.92c-13.35 0-18.57 4.06-18.57 15.3v20.75h31.18l-2.78 30.58h-28.4zM149.81 63.6c-.55 0-1.11.02-1.67.04-34.94 0-50.93 26.28-50.93 63.59 0 47 20.74 65.8 51.2 65.8 17.43 0 28.88-7.33 35.84-21.02v18.57h35.84V66.06h-35.84V85.2c-5.68-12.32-17.45-21.46-34.44-21.6zm9.11 29.42c14.68 0 23.49 10.24 23.49 27.65l.03 17.78c0 11.74-7.28 25.47-23.52 25.47-24.97 0-24.3-26.96-24.3-35.94 0-30.21 13.3-34.96 24.3-34.96zm75.64 35.3c0-15.13-.72-64.64 63.78-64.64 25.9 0 36.7 8.24 36.7 8.24l-8.68 26.95s-10.8-5.95-24.87-5.95c-18.02 0-29.52 10.45-29.52 28.83l.02 13.18c0 17.66 11.1 29.45 29.54 29.45 12.82 0 24.63-6 24.63-6l8.67 26.39s-9.89 8.28-36.3 8.28c-61.42 0-63.96-44.42-63.96-64.73zM545.2 63.64c34.94 0 51.18 26.28 51.18 63.59 0 47-20.74 65.8-51.2 65.8-17.43 0-30.31-7.33-37.27-21.02v18.57l-35.4-.02V3.8L510.09.5v83.01c5.43-14.52 23.25-19.89 35.11-19.89zm-10.53 29.38c-14.68 0-24.58 10.24-24.58 27.65l-.03 17.78c-.02 11.74 6.85 25.47 24.6 25.47 24.98 0 24.31-26.96 24.31-35.94 0-30.21-13.3-34.96-24.3-34.96zM400.24 63.74c-39.63 0-60.55 21.6-60.55 60v7.14c0 49.83 29.38 62.67 64.41 62.67 34.05 0 49.46-9.53 49.46-9.53l-7.03-25.36s-18.13 7.72-37.92 7.72c-20.52 0-29.35-5.23-31.61-24.95h79.56v-20.35c0-41.65-23.48-57.34-56.32-57.34zm.96 25.4c13.72 0 22.6 8.4 22.12 27.91h-46.25c.8-20.53 10.39-27.92 24.13-27.92zm270.1-25.57c-40.7 0-62.13 22.93-62.13 64.03 0 56.39 36.93 65.47 62.19 65.47 36.98 0 61.58-19.91 61.58-64.96 0-46.88-27.66-64.54-61.65-64.54zm-.52 29.56c17.9 0 24.99 13.39 24.99 28.63v13.11c0 18.47-9.93 29.15-25.06 29.15-14.15 0-24.1-10-24.1-29.15v-13.1c0-20.44 11.84-28.64 24.17-28.64zm137.01-29.56c-40.7 0-62.12 22.93-62.12 64.03 0 56.39 36.93 65.47 62.19 65.47 36.97 0 61.57-19.91 61.57-64.96 0-46.88-27.66-64.54-61.64-64.54zm-.51 29.56c17.9 0 24.98 13.39 24.98 28.63v13.11c0 18.47-9.92 29.15-25.05 29.15-14.15 0-24.1-10-24.1-29.15v-13.1c0-20.44 11.84-28.64 24.17-28.64zm76.35 97.43V3.8L921.32.5V125.7l37.38-59.65h39.8l-39 61.78 40.5 62.73h-39.9l-38.78-60.91v60.91z" fill="#1877f2"/></svg>