<svg xmlns="http://www.w3.org/2000/svg" version="1.0" viewBox="5.13 16.1 1891.46 468.4"><path d="M16.9 17c-8 2.4-12.4 9.1-11.7 18 .6 8.5 2.6 10.5 19.5 19.8 8.1 4.5 15.1 8.3 15.5 8.4.4.2 4.6 16.5 9.3 36.3 4.7 19.8 9 37.2 9.6 38.7 1.6 3.8 8.1 9.5 12.3 10.6 9.8 2.7 20.6-5.5 20.6-15.6 0-2.5-4-21.5-9-42.3-5-20.8-9-38.3-9-38.9 0-.7 11.5-1 35.6-1h35.5l9.3 6.6 9.3 6.6 2.7 14.8c3 15.8 4.7 19.9 9.8 23 10.1 6.1 22.5 1.3 25.9-10 1.1-3.5.7-6.5-2.5-23.6-3.8-20.4-4.8-23.5-8.8-27-5.5-4.9-31.5-22.9-34.7-24-2.8-1-18.7-1.3-70.1-1.3-36.6.1-67.7.4-69.1.9zM80.5 160.9c-4.7 2.8-8.2 7.6-9 12-.5 3.2 3.2 19.9 19.5 87.7 11.1 46.1 20.7 84.9 21.5 86.3 1.5 2.9 3.9 5.3 7.3 7 3.3 1.7 212.1 58.1 215.1 58.1 3.8 0 10.8-3.6 64.6-32.9 27.3-14.9 49.2-27.4 50.7-29.1 1.5-1.6 3.1-4.6 3.7-6.7.5-2.1 2.6-21.5 4.6-43.2 3.5-37.7 3.6-39.5 2-43.7-2.8-7.3-10.8-12.3-18.1-11.1-1.9.3-27.4 11.2-56.6 24.3l-53.1 23.6-85-20.2c-65.6-15.5-85.9-20-88.6-19.5-8.6 1.6-14.3 8.6-14.3 17.5 0 8.1 4.7 14.2 12.7 16.5 16 4.5 174 41.5 177.4 41.5 3.1 0 14.1-4.4 45.6-18 22.9-9.9 42-18 42.5-18s.6 2.4.3 5.2c-.2 2.9-1 10.7-1.6 17.3l-1.2 12-43.5 23.7c-23.9 13.1-44.2 23.8-45 23.8-1.8.1-188.2-50.1-189.2-50.9-.7-.7-29.8-121.2-29.8-123.6 0-1.1.7-1.4 2.3-1 18.1 4.3 216.4 44.5 219.5 44.5 3.4 0 16.7-5.4 65.5-26.6 33.7-14.6 62.1-27.3 63.1-28.2 2.7-2.4 5.6-9.1 5.6-13.1 0-5.5-3.6-11.8-8.4-14.6-8.4-4.9-7.9-5.1-70.3 22-31 13.5-57.3 24.5-58.5 24.5-1.1 0-55.3-11-120.6-24.5C146 170 90.6 159 88.1 159c-2.7 0-5.9.8-7.6 1.9zM592 209.7c-3.6.2-6.9.8-7.4 1.4-.6.5-2.5.9-4.2.9-1.8 0-3.6.4-3.9 1-.3.5-1.7 1-3 1s-2.7.4-3 1c-.3.5-1.5 1-2.6 1-1 0-1.9.4-1.9 1 0 .5-.6 1-1.4 1-.7 0-1.9.7-2.6 1.5-.7.8-2.1 1.5-3.1 1.5-1.1 0-1.9.4-1.9.8 0 .5-1.2 1.5-2.7 2.3-1.6.8-3.5 2.2-4.4 3.1-.9 1-1.9 1.8-2.3 1.8-1.6 0-14.4 14.2-17.3 19.1-1 1.6-2.1 2.9-2.5 2.9-.4 0-.8.9-.8 2s-.4 2-1 2c-.5 0-1 .9-1 2s-.4 2-1 2c-.5 0-1 .6-1 1.4 0 .8-.7 2.7-1.5 4.3-2.4 4.7-5.5 16-5.5 20.2 0 2.2-.4 4.3-1 4.6-.6.3-1 5.2-1 11.1 0 6.3.4 10.4 1 10.4s1 2.8 1 6.4c0 3.5.4 6.6.8 6.8.4.1 1.5 2.8 2.4 5.8 1.8 6.1 4 12.2 4.8 13 .3.3 1.6 2.7 3 5.5 1.3 2.7 2.7 5.2 3 5.5.3.3 1.8 2.3 3.5 4.5 4.3 5.9 18.3 19.5 20 19.5.8 0 1.5.4 1.5.9 0 1.2 18 10.1 20.5 10.1 1.2 0 2.5.4 3 .9 2.6 2.4 29.1 3.3 37.5 1.4 9.4-2.2 23-8.4 23-10.4 0-.5.5-.9 1.1-.9.6 0 3.3-1.8 5.9-4 2.6-2.2 5.1-4 5.4-4 .3 0 .6 4.3.6 9.5v9.5h28v-92h-64v25h36v14l-6.2 6c-3.4 3.3-6.7 6-7.5 6-.7 0-1.3.4-1.3.9 0 1.2-7.6 6.1-9.5 6.1-.8 0-1.5.3-1.5.8 0 .8-7.1 3.2-9.8 3.2-1 0-2.3.5-2.9 1.1-1.8 1.8-26.3-.2-26.3-2.2 0-.5-.6-.9-1.3-.9-3.1 0-15.4-7.6-19.1-11.8-.6-.7-2.1-2.4-3.3-3.7-1.3-1.3-2.3-2.8-2.3-3.4 0-.5-.3-1.1-.7-1.3-.8-.3-4.2-7-6.8-13.3-.7-1.7-1.9-4.3-2.6-5.9-1-2-1.4-7.4-1.4-18.5.1-12.8.4-16.5 2-20.6 1-2.8 2.2-5.4 2.7-6 .4-.5.8-1.7.8-2.7 0-1 .5-1.8 1-1.8.6 0 1-.9 1-2s.3-2 .8-2c.4 0 1.4-1.4 2.1-3.2 1.5-3.4 12.3-14.8 14-14.8.5 0 1.1-.3 1.3-.8.3-.8 7.2-4.2 12.8-6.3 4.6-1.8 25.4-1.9 27.2-.2.6.7 2.5 1.3 4 1.3s2.8.4 2.8 1c0 .5.9 1 2 1s2 .4 2 1c0 .5.8 1 1.8 1 3.3 0 14.9 10.8 18.8 17.5 1.6 2.8 2.7 2.8 6 0 1.6-1.4 3.3-2.5 3.7-2.5.5 0 1.4-.6 2.2-1.3 2.4-2.3 5.5-4.7 6.1-4.7 1.5 0 8.4-6.6 8.4-8 0-.9-.9-2.6-2-3.8-1.1-1.2-2-2.6-2-3.1 0-1.5-13.3-15.1-14.7-15.1-.7 0-1.3-.5-1.3-1 0-.6-.7-1-1.5-1s-1.5-.5-1.5-1c0-.6-.5-1-1.1-1-.5 0-2.7-1.1-4.7-2.5s-4.5-2.5-5.4-2.5c-1 0-1.8-.5-1.8-1 0-.6-1.1-1-2.4-1-1.4 0-2.8-.5-3.1-1-.3-.6-2.3-1-4.4-1-2 0-4.1-.4-4.6-.9-1.2-1-21.2-2-30.5-1.4zM1400.7 210.7c-.4.3-.7 41.1-.7 90.5V391h35v-52.6l3.5-4c4.9-5.5 9.9-10.6 12.1-12.5 1-.9 3.3-3.3 4.9-5.2 3.7-4.5 4.9-4.6 6.7-.7.7 1.6 1.6 3 2 3 .5 0 .8.4.8 1 0 .9 1.3 2.6 5.5 7.4 2.3 2.7 5.5 7.6 5.5 8.6 0 .5.3 1 .8 1 .4 0 2 2 3.5 4.5 1.6 2.5 3.3 4.5 3.8 4.5s.9.6.9 1.3c0 .7.8 2.2 1.8 3.3 1 1 3.3 4.1 5.2 6.9 1.9 2.7 3.9 5.5 4.5 6.2 3 3.5 3.5 4.3 3.5 5.3 0 .5.5 1 1 1 .6 0 1 .7 1 1.5s.5 1.5 1 1.5c.6 0 1 .7 1 1.5s.3 1.5.8 1.5c.4 0 2.5 2.7 4.7 6s4.3 6 4.8 6c.4 0 .7.7.7 1.5 0 1.3 2.8 1.5 19 1.5 10.5 0 19-.3 19-.6 0-.8-2.2-4.8-2.9-5.4-.4-.3-2.8-3.4-5.3-7-2.6-3.6-5.2-7-5.8-7.7-.5-.7-1-1.6-1-2 0-.5-.9-1.5-2-2.3-1.1-.8-2-1.9-2-2.5 0-.9-1.4-2.8-6-8.2-.5-.7-1-1.6-1-2 0-.5-.9-1.5-2-2.3-1.1-.8-2-1.9-2-2.5 0-.5-1.2-2.3-2.6-4-1.4-1.6-3.4-4.4-4.5-6.2-1.1-1.8-2.5-3.3-3-3.3s-.9-.7-.9-1.5-.4-1.5-1-1.5c-.5 0-1-.7-1-1.5s-.4-1.5-1-1.5c-.5 0-1-.7-1-1.5s-.3-1.5-.7-1.5c-.5 0-1.9-1.7-3.3-3.8-2.4-3.5-2.9-4.2-5.7-7.6-.7-.8-1.3-1.9-1.3-2.5 0-.5-.3-1.1-.7-1.3-1.2-.5-10.3-12.5-10.3-13.5 0-.5-.9-1.5-2-2.3-3.8-2.7-1.9-7 6.7-15.4 2.4-2.2 4.3-4.6 4.3-5.1 0-.6 2.4-3.5 5.3-6.5 2.8-3.1 7.6-8.4 10.6-12 3-3.6 5.9-7 6.5-7.5.6-.6 3.1-3.5 5.6-6.5 2.4-3 5.8-6.9 7.5-8.5 1.6-1.7 4.6-5 6.5-7.5 1.9-2.5 4.6-5.9 6.2-7.5 1.5-1.7 3.7-4.1 4.8-5.5l2.2-2.5-18.4-.3-18.3-.3-6 6.4c-3.3 3.6-8.1 8.9-10.6 11.8-8.1 9.5-10.3 11.9-13.6 15.5-1.8 2-3.3 3.8-3.3 4 0 .3-1.5 2-3.2 3.8-1.8 1.8-5.1 5.5-7.3 8.1-2.2 2.7-5.3 6.2-7 8-1.6 1.7-5.2 5.7-8 9-2.7 3.3-5.7 6.7-6.7 7.6-1 .9-1.8 1.9-1.8 2.2 0 1-9.1 9.7-10.1 9.7-.5 0-.9-18.6-.9-43v-43h-16.8c-9.3 0-17.2.3-17.5.7zM1824 236v22h-17v25h17v40.9c0 26.3.4 41.2 1 41.6.6.3 1 2 1 3.7 0 5.3 2.3 10.1 7 14.8 4.8 4.8 8.1 7 10.5 7 .8 0 1.5.4 1.5 1 0 1.3 29.3 1.4 31.8.1.9-.5 4.9-1.9 8.7-3.1 7.8-2.4 12.3-4.9 10.8-5.9-.6-.3-1.3-2.2-1.6-4.1-1.7-10.6-4.7-20-6.4-20-.7 0-1.3.4-1.3.9 0 1.2-5.1 2.2-14.1 2.8l-7.7.4-3.6-3.6-3.6-3.6V283h28v-24.9l-13.7-.3-13.8-.3-.3-21.8-.2-21.7h-34v22zM855.5 256c-.3.5-2.1 1-3.8 1-4.9 0-19.9 4.2-21.7 6-.3.3-1.8 1.2-3.5 2-1.6.8-3.6 2.1-4.3 2.7-.7.7-1.6 1.3-2 1.3-1.3 0-11.7 10.5-13.1 13.3-.8 1.5-1.8 2.7-2.3 2.7-.4 0-.8.7-.8 1.5s-.4 1.5-.8 1.5c-1.1 0-5.7 10.3-7.1 15.7-.6 2.4-1.6 6-2.2 8-1.8 6.5-.3 29.1 2.6 36.8 1.6 4.5 7.9 16.5 8.6 16.5.4 0 1.1.9 1.4 2.1.7 2.1 11 12.9 12.3 12.9.5 0 1.7.8 2.8 1.8 2.6 2.4 11 6.8 15.9 8.3 2.2.6 4.8 1.5 5.7 2 2.3 1.2 37.3 1.2 39.6 0 .9-.5 3.7-1.5 6.2-2.2 2.5-.7 4.7-1.6 5-1.9.3-.3 2-1.2 3.9-2a20 20 0 0 0 5.7-3.7c1.3-1.3 2.7-2.3 3.2-2.3 1.2 0 10.1-9 12-12.3.9-1.5 2-2.7 2.4-2.7.4 0 .8-.5.8-1.1 0-.6.8-2.3 1.8-3.7 1.1-1.5 2.7-5.2 3.8-8.2 1-3 2.2-5.7 2.7-5.8.4-.2.7-2.4.7-4.8s.5-4.4 1-4.4c.6 0 1-4.7 1-12s-.4-12-1-12c-.5 0-1-1.5-1-3.3 0-3.3-4.3-15.2-6.1-17.2-.5-.5-.9-1.7-.9-2.7 0-1-.4-1.8-1-1.8a1 1 0 0 1-1-1c0-1.4-2.7-4.6-9.5-11.5-7.3-7.2-10.1-9.5-11.8-9.5-.6 0-2.3-.9-3.7-2-1.4-1.1-3-2-3.6-2-.6 0-2.5-.7-4.3-1.6-1.8-.9-6.2-2-9.9-2.6-3.7-.6-7.5-1.4-8.4-1.9-2.4-1.2-14.5-1.1-15.3.1zm10.5 28c0 .5 2 1 4.5 1s4.5.4 4.5 1c0 .5.7 1 1.7 1 2.1 0 7.9 4.3 12.4 9.3 3.4 3.7 5.8 8.6 8.7 17.8 1.5 4.4 1.6 19.5.2 20.4-.5.3-1 1.9-1 3.6 0 3.1-.6 4.4-5.8 12.7-3.1 4.9-11.3 12.1-13.8 12.2-.6 0-2.6.7-4.3 1.6-3.9 2-21.2 1.6-21.9-.4-.2-.7-1-1.2-1.8-1.2s-3.6-1.4-6.2-3.2c-6.1-4-11.8-12.7-15.1-22.9-1.3-4.2-1.5-20.2-.2-22.7.5-.9 1.4-3.5 2.1-5.7.7-2.2 2.3-5.4 3.6-7.2 1.3-1.7 2.4-3.5 2.4-3.8 0-1.2 8.4-8.5 9.7-8.5.7 0 1.3-.5 1.3-1 0-.6.9-1 2-1s2-.5 2-1c0-.6 2-1 4.5-1s4.5-.5 4.5-1c0-.6 1.4-1 3-1 1.7 0 3 .4 3 1zM1011 256c0 .5-1.5 1-3.2 1-4.2.1-11.2 1.7-15.8 3.7-8 3.5-12.6 5.9-14.4 7.5-1.1 1-2.3 1.8-2.8 1.8-.9 0-10.7 9.9-12.6 12.6-5 7.7-7.2 11.7-7.2 13.4 0 1.1-.4 2-1 2-.5 0-1 1-1 2.3 0 1.3-.4 2.7-.9 3.2-1.5 1.6-2.3 9.4-2.3 22s.8 20.1 2.3 21.1c.5.3.9 1.6.9 3 0 1.3.5 2.4 1 2.4.6 0 1 .7 1 1.5 0 1.7 4.5 10 7.4 13.6 1.2 1.4 3.2 4 4.6 5.8 1.4 1.8 4.5 4.7 7 6.4 2.5 1.7 4.7 3.4 5 3.7.9 1.2 10.5 5.8 14.5 7.1 2.2.6 4.8 1.5 5.7 2 1 .5 9.5.9 19 .9 15.9 0 21.1-.6 26-3.1 1-.5 2.7-.9 3.8-.9 1.1 0 2-.4 2-.9s1.5-1.5 3.3-2.2c7.1-2.9 20.7-14.6 22.2-19.2.4-.9 1.1-1.7 1.6-1.7s.9-.6.9-1.3c0-.6.9-2.3 2-3.7 1.1-1.4 2-3.3 2-4.3 0-.9.5-1.7 1-1.7.6 0 1-1.4 1-3 0-1.7.4-3 .8-3 1.5 0 3.4-13.1 3.4-23.5 0-10.1-1.7-21.1-3.4-22.1-.4-.3-.8-1.8-.8-3.5 0-1.6-.4-2.9-1-2.9-.5 0-1-.9-1-2s-.3-2-.8-2c-.4 0-1.4-1.5-2.2-3.3-1.7-3.9-2-4.2-9.5-12.1-6.5-6.8-12.2-10.9-19.8-14.4-5.9-2.8-15-5.2-19.4-5.2-1.7 0-3.5-.5-3.8-1-.3-.6-4-1-8.1-1-4.3 0-7.4.4-7.4 1zm11 28c0 .5 2 1 4.5 1s4.5.4 4.5 1c0 .5.9 1 2 1s2 .4 2 1c0 .5.6 1 1.3 1 1.8 0 11.7 9.8 11.7 11.6 0 .8.4 1.4.8 1.4.5 0 2 3.3 3.3 7.2 1.9 5.7 2.4 9.4 2.4 17 0 6.4-.4 10.1-1.3 11-.6.6-1.2 2.5-1.2 4s-.4 2.8-1 2.8c-.5 0-1 .9-1 2s-.4 2-1 2c-.5 0-1 .7-1 1.5 0 2-9.6 11.5-11.5 11.5-.8 0-1.5.4-1.5 1 0 .5-.8 1-1.8 1s-2.3.5-3 1.2c-2 2-17.5 2.3-21.3.4-1.7-.9-3.8-1.6-4.5-1.6-.8 0-2.4-.8-3.5-1.8-5.8-4.6-9.9-8.5-9.9-9.4 0-.5-.7-1.6-1.5-2.5-.9-.8-1.9-2.8-2.2-4.4-.3-1.6-.9-2.9-1.4-2.9-.5 0-.9-1.5-.9-3.4s-.4-3.8-1-4.1c-.5-.3-1-4.6-1-9.5s.5-9.2 1-9.5c.6-.3 1-1.7 1-3.1 0-1.3.4-3.2.9-4.2.5-.9 1.5-3.1 2.2-4.7.8-1.7 1.9-3.6 2.4-4.3 4.9-6.2 12.2-12.2 14.8-12.2 1 0 1.7-.5 1.7-1 0-.6 1.8-1 3.9-1 2.2 0 4.3-.5 4.6-1 .3-.6 1.9-1 3.6-1 1.6 0 2.9.4 2.9 1zM1300.9 255.4c-.3.4-4.2 1.3-8.5 2.1-11.9 2.2-13.4 2.7-13.4 3.6 0 .5-.6.9-1.4.9-1.7 0-11.4 5-14.6 7.6-3.5 2.8-11.2 10.6-13.7 14-2.9 3.8-7.8 14-8.8 18.2-.3 1.7-1.1 3.2-1.6 3.2s-.9 2.2-.9 4.9c0 2.8-.4 5.3-1 5.6-.6.3-1 4.8-1 10.1 0 5.6.4 9.4 1 9.4s1 2.2 1 4.9c0 2.8.4 5.2.9 5.5.5.3 1.2 1.8 1.5 3.3 1 4.2 6.8 15.5 9.1 17.9 1.1 1.1 3.1 3.6 4.5 5.6 1.3 2 3.7 4.3 5.2 5.2 1.5.9 3.4 2.3 4.2 3.2 2.4 2.4 13.6 8.4 15.7 8.4 1 0 1.9.4 1.9 1 0 .5 1.3 1 2.9 1 1.7 0 3.3.4 3.6 1 .4.6 8 1 19.5 1s19.1-.4 19.5-1c.3-.6 1.6-1 2.7-1 2.3 0 8.9-2.1 9.8-3.1.3-.3 2-1.1 3.9-1.9a20 20 0 0 0 5.7-3.7c1.3-1.3 2.7-2.3 3.2-2.3 1.2 0 11.2-10 11.2-11.2 0-.5 1.1-2 2.5-3.4s2.5-3.4 2.5-4.4c0-1.6-.7-2-3.5-2-1.9 0-3.5-.4-3.5-.9 0-.8-2.3-1.4-11.2-2.7-2.1-.4-3.8-1-3.8-1.4 0-.4-1.3-1-3-1.2-1.6-.3-3-.1-3 .4 0 .9-3.3 4.9-6.5 8-1.1 1.1-5.2 3.5-9.2 5.4-6.6 3.1-8.1 3.4-16.1 3.4-7.8 0-9.6-.4-15.1-3-3.4-1.7-8.2-5-10.6-7.5-5.4-5.4-10.5-15.4-10.5-20.7V335h104v-13c0-8-.4-13-1-13-.5 0-1-1.2-1-2.8 0-4-3.1-11.8-8.1-20.2-1.9-3.2-15.8-17.1-18.8-18.8-1.3-.8-3.9-2.2-5.8-3.3-1.8-1-4-1.9-4.8-1.9-.8 0-1.5-.4-1.5-.9 0-.9-1.3-1.2-13.5-3.8-8.2-1.7-19.7-2.7-20.6-1.9zm11.2 24.5c7.7 1.3 13.8 4.4 19 9.6 5.9 5.8 6.9 7.1 6.9 9 0 .8.5 1.5 1 1.5.6 0 1 1.1 1 2.5s.5 2.5 1.1 2.5c.6 0 .9 1.7.7 4.2l-.3 4.3-33 .3c-18.1.1-33.9 0-35-.2-1.8-.5-2-1.1-1.5-5.3.5-5.1 3.4-11.3 6.9-15 1.2-1.2 2.1-2.5 2.1-2.9 0-1.1 5.4-5.4 6.8-5.4.6 0 1.2-.5 1.2-1 0-.6.8-1 1.8-1s2.3-.5 2.8-1c.9-.9 7.6-2.6 11.4-2.9.8 0 4 .3 7.1.8zM1614 256.1c-1.4.4-6.5 1.5-11.5 2.4-4.9.9-9.4 2-9.9 2.6-.6.5-2 .9-3.2.9-1.3 0-2.6.4-2.9 1-.3.5-1.5 1-2.6 1-1 0-1.9.4-1.9 1 0 .5-.6 1-1.4 1-2.1 0-10.7 5.1-11.3 6.7-.3.8.4 3.3 1.6 5.5 1.1 2.2 2.1 4.6 2.1 5.3 0 .7.3 1.5.8 1.7.4.1 1.5 2 2.5 4.1l1.7 3.9 3.8-2.3c2-1.2 4.7-2.7 5.9-3.3 1.3-.6 2.3-1.4 2.3-1.9 0-.4.8-.7 1.8-.7s2.2-.4 2.8-.8c1.6-1.6 14.7-5.1 21-5.7 7.7-.8 17.6 1 22.4 4 4.4 2.8 9 7.2 9 8.5 0 .6.5 1 1 1 .6 0 1 1.3 1 2.9 0 1.7.5 3.3 1 3.6.6.3 1 4 1 8.2v7.6l-3.7-.7c-2.1-.3-6.9-1.3-10.8-2.2-11.6-2.8-26.1-2.9-35.8-.4-4.5 1.2-9.2 2.4-10.4 2.7-1.3.3-2.3.9-2.3 1.4 0 .5-.6.9-1.3.9-1.8 0-6.7 2.4-6.7 3.2 0 .5-.7.8-1.5.8s-1.5.4-1.5 1c0 .5-.5 1-1.2 1-1.5 0-8.8 8-8.8 9.6 0 .7-.5 1.4-1.1 1.6-.5.2-2.1 3.5-3.4 7.3-2.6 7.2-3.4 17.8-1.5 19 .6.3 1 1.5 1 2.6 0 3.7 5.2 13.1 10.3 18.5 2.8 3 7.3 6.4 10.6 8 3.1 1.5 6.4 3.1 7.3 3.6 2.6 1.2 32.8 1 32.8-.2 0-.6 1.4-1 3-1 1.7 0 3-.5 3-1 0-.6.6-1 1.4-1 .7 0 3.5-1.2 6.2-2.7 4.8-2.7 7.5-4.8 14-11.1 4.3-4.1 5.9-3.3 6.8 3.6.7 5.2 5.9 12.2 9 12.2.9 0 1.6.4 1.6 1 0 1.5 21.3 1.3 22.8-.2.8-.8 1.2-5.5 1.2-14.5 0-11.8-.2-13.4-1.7-14-3.1-1.1-5.3-3.5-5.3-5.9 0-1.3-.4-2.6-1-2.9-.6-.4-1-11.8-1-31s-.4-30.6-1-31c-.5-.3-1-1.3-1-2.1 0-2.3-4.6-11.5-7.5-14.9-4.8-5.6-6.3-7-9.1-8.5-1.6-.8-3.5-2.1-4.2-2.7-.7-.7-2.5-1.6-4-2-1.5-.3-3-1-3.3-1.5-.7-1-13.3-3.8-17.6-3.8-1.7 0-3.5-.5-3.8-1-.7-1.2-13.9-1.1-17.5.1zm27.5 73.3c1.7.4 4.5 1.5 6.3 2.4l3.2 1.7v8.6c0 5.8-.5 9.6-1.5 11.7-1.9 3.8-12.1 11.6-17.2 13.2-2.1.7-4.2 1.6-4.7 2.1-.6.5-5.2.9-10.3.9-8.3 0-9.8-.3-13.3-2.5-5.9-3.7-8.9-6.5-10.5-9.9-1.7-3.3-2-13.2-.5-14.1.6-.3 1-1.3 1-2.2 0-1.7 6.5-7.9 9.3-8.9.9-.3 1.7-1 1.7-1.5s1.1-.9 2.5-.9 2.5-.5 2.5-1.1c0-1.1 26.4-.7 31.5.5zM770 258.7c-2.5.9-4.7 1.9-5 2.2-.3.3-1.8 1.3-3.5 2.1-3.3 1.6-18.5 16.6-18.5 18.2 0 1-2.5 3.8-3.4 3.8-.3 0-.6-6.1-.6-13.5V258h-30v133h32v-79.6l2.9-4.5c2.9-4.6 9.3-10.9 11.1-10.9.5 0 1-.4 1-.9s2.1-1.7 4.8-2.7c2.6-1 5.2-2.1 5.7-2.4 1.5-1.1 7.2-2.1 14.8-2.7l6.7-.5V257l-6.7.1c-3.8 0-8.8.8-11.3 1.6zM1779 258.7c-2.5.8-4.7 1.8-5 2.2-.3.3-1.7 1.2-3.2 2-1.6.8-2.8 1.8-2.8 2.3 0 .4-.5.8-1 .8-1.8 0-15.6 14.8-16.8 18.1-.2.5-.8.9-1.3.9s-.9-6-.9-13.5V258h-30v133h32v-79.6l2.9-4.5c3.1-4.9 7.7-9.9 9.1-9.9.5 0 1.5-.6 2.2-1.4 3.8-3.7 15.1-7.3 26.1-8.3l5.7-.5V257h-6.2c-3.5.1-8.3.8-10.8 1.7zM1095.7 260c.3 1.1.9 2.3 1.4 2.6.5.3.9 1.6.9 2.9 0 1.3.5 2.7 1 3 .6.3 1 1.7 1 3.1 0 1.3.5 2.4 1 2.4.6 0 1 1.1 1 2.4 0 1.4.5 2.8 1 3.1.6.3 1 1.7 1 3.1 0 1.3.4 2.4.8 2.4.5 0 1.7 2.9 2.7 6.5 1.1 3.6 2.3 6.5 2.7 6.5.4 0 .8.7.8 1.5 0 2.4 2.4 9.5 3.2 9.5.5 0 .8 1.3.8 3 0 1.6.5 3 1 3 .6 0 1 1.1 1 2.4 0 1.4.5 2.8 1 3.1.6.3 1 1.7 1 3.1 0 1.3.4 2.4 1 2.4.5 0 1.2 1.6 1.6 3.5.3 1.9 1 3.5 1.5 3.5s.9 1.3.9 3c0 1.6.5 3 1 3 .6 0 1 1.1 1 2.4 0 1.4.5 2.8 1 3.1.6.3 1 1.7 1 3.1 0 1.3.5 2.4 1 2.4.6 0 1 1.1 1 2.4 0 1.4.5 2.8 1 3.1.6.3 1 1.4 1 2.4 0 .9 1.1 4.1 2.5 6.9 1.4 2.9 2.5 6.1 2.5 7.2 0 1.1.5 2 1 2 .6 0 1 1.3 1 3 0 1.6.5 3 1 3 .6 0 1 .9 1 2s.4 2.8.9 3.8c.5.9 1.2 2.5 1.5 3.4.5 1.6 2.3 1.8 18.8 1.8h18.3l1.8-3.1c.9-1.7 1.7-3.9 1.7-4.8 0-1 .3-2.1.7-2.5 1-.9 3.3-7.8 3.3-9.9 0-.9.5-1.7 1-1.7.6 0 1-.9 1-2s.4-2.8.9-3.8c1.7-3.4 3-6.8 4.7-12 .9-2.9 2-5.5 2.5-5.8.5-.3.9-1.6.9-2.9 0-1.3.4-2.6.8-2.9.4-.3 1.4-2.8 2.2-5.6.8-2.8 1.8-5.3 2.2-5.6.4-.3.8-1.5.8-2.8 0-1.2.4-2.6.9-3.2.9-1 5-11.5 5.8-15.2.3-1.2.9-2.2 1.4-2.2.5 0 .9-1.3.9-2.9 0-1.7.5-3.3 1-3.6.6-.3 1-1.7 1-3.1 0-1.3.5-2.4 1-2.4.6 0 1-1 1-2.3 0-1.3.4-2.7.9-3.3.4-.5 1.6-3.2 2.6-5.9 1-2.8 2.7-7.8 3.9-11.2 1.3-3.5 2.5-6.6 2.9-7 .4-.3.7-1.7.7-3V258H1199.3l-1.1 2.5c-.7 1.4-1.2 3.4-1.2 4.5 0 1-.4 2.2-1 2.5-.5.3-1 1.7-1 3s-.4 2.7-1 3c-.5.3-1 1.7-1 3s-.4 2.7-1 3c-.5.3-1 1.9-1 3.5s-.4 3.1-.9 3.4c-.5.3-1.2 2.2-1.5 4.1-.4 1.9-1.1 3.5-1.6 3.5-.6 0-1 1.3-1 2.9 0 1.7-.4 3.3-1 3.6-.5.3-1 1.9-1 3.5s-.4 3.2-1 3.5c-.5.3-1 1.7-1 3s-.4 2.7-1 3c-.5.3-1 1.9-1 3.6 0 1.6-.4 2.9-1 2.9-.5 0-1 1.3-1 2.8 0 1.6-.3 3.2-.7 3.6-.9.9-3.3 7.7-3.3 9.6 0 .8-.7 2.8-1.5 4.4-.8 1.5-1.5 3.7-1.5 4.7s-.4 2.1-1 2.4c-.5.3-1 1.9-1 3.5s-.4 3.2-1 3.5c-.5.3-1 1.6-1 2.9 0 2.1-2.7 5.6-4.3 5.6-.4 0-.7-1.4-.7-3 0-1.7-.4-3-1-3-.5 0-1-1.3-1-2.9 0-1.7-.4-3.3-1-3.6-.5-.3-1-1.9-1-3.5s-.4-3.1-.9-3.4c-.5-.3-1.7-3.5-2.6-7.1-1-3.6-2.2-6.8-2.7-7.1-.4-.3-.8-1.6-.8-2.9 0-1.3-.4-2.7-1-3-.5-.3-1-1.7-1-3.1 0-1.3-.4-3.2-.9-4.2-.5-.9-2.6-7.1-4.7-13.7-2-6.6-4.1-12.4-4.5-13-.5-.5-.9-2.1-.9-3.6s-.4-3.1-1-3.4c-.5-.3-1-1.9-1-3.5s-.4-3.2-1-3.5c-.5-.3-1-1.5-1-2.6 0-1-.4-2.7-.9-3.7-.5-.9-1.5-3.7-2.3-6.2l-1.5-4.5-17.1-.3c-16.7-.2-17-.2-16.5 1.8zM102.9 362.9c-9.9 3.9-16.9 10.6-21.7 20.9-3.6 7.7-3.7 20.7-.3 29.4 3.1 8 10.6 15.9 18.9 20 6.2 3.1 7.4 3.3 16.7 3.3 9.3 0 10.5-.2 16.7-3.3 8.3-4 15.8-11.9 18.9-20 1.8-4.4 2.3-7.7 2.4-14.7 0-8.1-.4-9.7-3.2-15.5-4.9-10.4-7.2-12.1-19.3-15.4-5.8-1.5-12.5-3.6-14.9-4.7-5.3-2.3-8.3-2.3-14.2 0zM436.5 369.6c-1.9 1.4-1.9 1.6-.2 2.5 3.7 2.1 8.6 7.1 11.5 11.7 7.3 11.4 7.9 24.3 1.9 36.5l-3.4 6.8 4.3-4.2c6.4-6.3 9.8-14.6 9.7-23.9-.1-8.7-1.9-14.3-6.8-21-3.7-5-10.3-10-13.2-10-1 0-2.7.8-3.8 1.6z"/><path d="M149 373c0 .4.6 1.3 1.4 1.9.7.6 2.6 3.9 4.1 7.2 5.2 11.7 4.4 26.3-2.2 37.9l-2.6 4.5 4.1-3.9c11-10.5 14.7-27.9 8.9-41.9-1.3-3-2.1-3.6-7.6-4.9-3.3-.9-6.1-1.2-6.1-.8zM405.6 386.3l-23.8 13.1.4 7c1.2 18.4 15.8 31.9 34.3 31.8 27.9-.1 43.9-30.6 28.3-53.8-3.6-5.3-11-11.4-13.6-11.3-.9 0-12.4 6-25.6 13.2zM290.9 414.8c-12.5 8-19.8 24.6-17 39a39.51 39.51 0 0 0 21.9 28c5 2.4 6.9 2.7 16.2 2.7 9.5 0 11.1-.3 16.2-2.8 7.9-3.9 14.3-10.4 18.1-18.5 2.9-6.1 3.2-7.6 3.2-16.2 0-8.3-.3-10.2-2.8-15.5-4.2-9-6-10.5-12.4-10.5-3.2 0-11.8-1.8-21.6-4.5-9-2.5-16.6-4.5-16.9-4.5-.2 0-2.4 1.3-4.9 2.8z"/><path d="M347.3 417.9c-3.5 1.7-4.1 3.2-1.9 5 .7.6 2.6 3.9 4.2 7.4 2.6 5.6 2.9 7.2 2.9 16.8 0 10-.2 10.9-3.5 17.6-2.9 5.8-3.1 6.8-1.5 5.7 8.3-5.5 14.6-21.8 13-33.9-.7-5.7-7-19.7-9-20-.5-.1-2.5.5-4.2 1.4z"/></svg>