<svg xmlns="http://www.w3.org/2000/svg" style="enable-background:new 0 0 652 652" xml:space="preserve" viewBox="20.1 261.3 600.1 121"><path d="M21.7 272.8c2.8-6.7 9.8-11.5 17.1-11.5h165.4c4.8-.1 9.6 1.7 13.1 4.9 4 3.6 6.3 9 6.2 14.4V344c-.1 9.5-8.4 18.1-17.9 18.3-20.1.1-40.2 0-60.3 0 2.7 6.7 5.4 13.3 8.1 20-12-6.6-23.8-13.4-35.9-19.9-26.4-.2-52.9 0-79.4-.1-9.5-.3-17.8-8.8-17.9-18.3-.1-20.7 0-41.4-.1-62 0-3.1.3-6.3 1.6-9.2" style="fill-rule:evenodd;clip-rule:evenodd;fill:#945c87"/><path d="M102.5 274.3c3-3.2 8.8-2.2 11.1 1.5 1.2 1.9 1.3 4.5.3 6.5-4.2 8.4-6 17.7-7.6 26.8-1.9 11.9-3.5 24-2.9 36.1.2 3.1-1.3 6.8-4.6 7.6-3.1.7-6-1.4-8-3.6-9-9.7-14.1-22.2-17.8-34.7-3.7 7.3-7.4 14.7-11 22-2.5 5-5.2 10.1-9.2 14.1-1.7 1.7-4.6 3.2-6.8 1.5-3.3-2.9-4.1-7.5-5.5-11.4-5.3-18.3-8.3-37.2-11.4-56-.7-3.1.6-6.9 3.7-8.1 2.5-.9 5.8-1.1 7.9.8 1.5 1.3 1.9 3.4 2.2 5.3 2.2 14.6 4.7 29.1 8.3 43.4 6-11.4 12-22.8 18-34.3.9-1.7 2-3.4 3.6-4.4 2.2-1.4 5.4-1.3 7.3.7 1.5 1.6 2.1 3.9 2.5 6 1.8 9.4 4.2 18.8 7.7 27.7 1.5-13.5 3.4-27.2 8.3-39.9 1.1-2.7 2.1-5.4 3.9-7.6m33.9 7.3c6.5-.8 13.5 1.4 17.9 6.3 3.6 4.1 5.6 9.4 6.3 14.7 1.1 9.1-.6 18.7-5 26.8-2.5 4.6-5.7 9.1-10.3 11.8-6.7 4.1-15.7 3.6-22.2-.7-5.2-3.6-8.1-9.6-9.3-15.6-2.4-13.7 1.7-28.9 12-38.4 3-2.7 6.7-4.4 10.6-4.9m1.3 14c-3.1 1-5.1 3.9-6.8 6.5-4.2 6.8-5.4 15.7-2 23 .9 1.9 2.3 4 4.6 4.4 2.4.4 4.6-1 6.3-2.5 3.8-3.3 5.7-8.2 6.7-13.1 1-5.5.5-11.6-2.7-16.4a5.62 5.62 0 0 0-6.1-1.9m50.6-14c6.3-.8 13.2 1.2 17.6 5.9 4 4.3 6.1 10 6.7 15.8.9 8.8-.7 18-4.9 25.8-2.5 4.7-5.8 9.3-10.6 12.1-6.4 3.9-15 3.5-21.4-.3-4.3-2.6-7.2-7-8.9-11.7-4.5-14.3-.7-31.1 9.7-41.9 3.4-3 7.5-5.2 11.8-5.7m1.4 14c-3.4 1.2-5.4 4.5-7.2 7.4-3.8 6.7-4.8 15.4-1.3 22.5.9 2 2.6 3.9 4.9 4 2.5.1 4.7-1.5 6.5-3.2 3.9-3.8 5.6-9.2 6.2-14.5.6-4.9-.2-10.2-3.1-14.4-1.2-1.7-3.8-2.5-6-1.8" style="fill-rule:evenodd;clip-rule:evenodd;fill:#fff"/><path d="M257.7 283.5a38.1 38.1 0 0 1 16.8.2v13.5c-4.5-1.1-9.6-2.1-13.9 0-5.2 2.6-8.1 8.5-8.1 14.1-.3 5.6 1.6 11.9 6.6 15.1 4.6 3 10.5 2.4 15.5 1v13.5c-6.7 1.9-14 1.7-20.5-.7-7.8-2.9-14-9.7-16.4-17.7-1.8-6.1-2-12.6-.6-18.8 2.3-9.9 10.7-18 20.6-20.2m40.6-.7c6.8-.8 14.2.3 19.7 4.6 5.3 4.1 7.9 10.8 8.9 17.2.9 7.1.7 14.5-1.5 21.3-1.9 5.8-5.8 11.2-11.4 13.9-5.7 2.7-12.4 2.9-18.5 1.5-5.6-1.3-10.6-5-13.4-10.1-3.9-6.8-4.6-14.9-4.3-22.6.3-6.6 2-13.5 6.4-18.6 3.6-4.1 8.8-6.6 14.1-7.2m2.1 12.9c-2.9.7-4.6 3.6-5.3 6.3-1.4 5.4-1.2 11-.8 16.5.4 3 .7 6.2 2.8 8.6 2.8 3.2 8.5 2.8 11-.5 1.7-2.1 2.2-4.8 2.5-7.4.6-4.6.7-9.3 0-13.9-.5-2.8-1.3-5.7-3.3-7.8a7.32 7.32 0 0 0-6.9-1.8m266.7-12c5.8-1.5 11.9-1.3 17.7-.1.1 4.5 0 9 .1 13.6-4.4-1.1-9.3-2.1-13.6-.2-5 2.3-8 7.6-8.4 12.9-.6 6 1 12.8 6.3 16.3 4.6 3.2 10.6 2.6 15.7 1.1-.1 4.5.1 9.1-.1 13.6-7.1 1.8-14.9 1.6-21.6-1.3-7.4-3.2-13.2-10-15.3-17.8-1.6-6-1.8-12.4-.3-18.5 2.2-9.4 10.1-17.1 19.5-19.6m-231.3.4h19.3c2.3 10.4 4.5 20.9 6.5 31.4 1.8-10.6 4.3-21 6.8-31.4h19.8c2.6 18.9 5.1 37.8 7.6 56.6h-15.1c-1.4-12.9-2.6-25.9-4.1-38.8-3.1 12.9-6.3 25.9-9.4 38.8h-10.3c-3.3-12.9-6.5-25.9-9.9-38.9l-3.9 38.9h-14.5l7.2-56.6m69.2 0h19.3c2.3 10.4 4.5 20.9 6.5 31.4 1.9-10.5 4.3-21 6.8-31.4h19.7c2.6 18.9 5.1 37.8 7.6 56.6h-15.1c-1.4-12.9-2.7-25.9-4.1-38.8-3.1 12.9-6.2 25.9-9.4 38.8H426l-9.9-38.9-3.9 38.9h-14.5c2.5-18.8 4.9-37.7 7.3-56.6m64.3.2c10.3-.2 20.7 0 31-.1v12.1c-5.2.1-10.4 0-15.6 0v10.4h13.5v11.7h-13.5v10.4h15.7v12.1h-31c-.1-18.9.1-37.7-.1-56.6m35.4-.2c6.5 0 12.9-.1 19.4 0 6.1.2 12.6 1.7 17.1 6 4.1 3.8 5.5 10.1 3.9 15.4-1.3 4.3-4.5 7.8-8.5 9.7 4 8.5 8.1 17 12.2 25.5h-16.1c-4.2-8.7-8.3-17.4-12.6-26-.1 8.7 0 17.4 0 26h-15.3c-.1-18.8-.1-37.7-.1-56.6M520 295v13.5c2.8-.2 5.8-.3 8.1-2 2.7-2 2.4-6.1.7-8.7-2.1-2.5-5.8-2.5-8.8-2.8m69.2-10.8h30.9v12.1h-15.7v10.4h13.5v11.7h-13.5v10.4h15.8v12.1h-31c-.1-19 0-37.9 0-56.7" style="fill-rule:evenodd;clip-rule:evenodd"/></svg>