<svg xmlns="http://www.w3.org/2000/svg" width="109" height="120" fill="none"><g clip-path="url(#a)"><path fill="#A50E0E" d="m108.73 77.14-7.4-4.88v5.57l7.4 2.07v-2.76ZM.37 77.14l7.4-4.88v5.57L.37 79.9v-2.76Z"/><path fill="#ECB20C" d="M7.77 30v60l46.78 30 46.78-30V30L54.55 0 7.77 30Z"/><path fill="url(#b)" d="m37.57 49.64 16.98-36.7V0L7.77 30l29.8 19.64Z"/><path fill="url(#c)" d="m76.68 72.26-22.13 34.8V120l46.78-30-10.1-6.47-14.55-11.27Z"/><path fill="url(#d)" d="m53.74 91.7-35.88-8.17L7.77 90l46.78 30v-12.94l-.8-15.37Z"/><path fill="url(#e)" d="m55.35 28.85 35.89 7.62L101.33 30 54.55 0v12.94l.8 15.91Z"/><path fill="url(#f)" d="m39.18 70.67-19.8-33.14L7.78 30v60l10.08-6.47 21.32-12.86Z"/><path fill="url(#g)" d="m69.92 70.67 19.8-33.14 11.6-7.53v60l-10.08-6.47-21.32-12.86Z"/><path fill="url(#h)" d="M17.86 36.47v47.06l36.69 23.53 36.69-23.53V36.47L54.55 12.94 17.86 36.47Z"/><path fill="url(#i)" d="M35.46 93.31H5.03a4.66 4.66 0 0 1-4.66-4.66V76.8h30.05a5.04 5.04 0 0 1 5.04 5.04V93.3Z"/><path fill="url(#j)" d="M104.07 94.35H73.64V82.87a5.04 5.04 0 0 1 5.04-5.04h30.05V89.7a4.66 4.66 0 0 1-4.66 4.66Z"/><path fill="url(#k)" d="M82.98 102.6H26.12a2.53 2.53 0 0 1-2.53-2.53V82.43c0-1.4 1.13-2.53 2.53-2.53h56.86c1.4 0 2.53 1.13 2.53 2.53v17.64c0 1.4-1.13 2.53-2.53 2.53Z"/><path fill="#F6F6F8" d="M54.55 107.76a16.51 16.51 0 1 0 0-33.02 16.51 16.51 0 0 0 0 33.02Z"/><path fill="url(#l)" d="M54.55 104.64a13.39 13.39 0 1 0 0-26.78 13.39 13.39 0 0 0 0 26.78Z"/><path fill="#57E0EA" d="m54.55 81.25 3.25 6.58 7.26 1.06L59.81 94l1.24 7.24-6.5-3.42-6.5 3.42L49.3 94l-5.25-5.12 7.26-1.06 3.25-6.58Z"/><path fill="#5483F7" d="m54.55 81.25.42 9.79 2.83-3.2 3.63.52 3.63.53-10.09 2.15L59.81 94l.62 3.62.62 3.62-6.08-10.21-.42 6.8-3.25 1.7-3.25 1.7 6.92-10.2L49.3 94l-2.63-2.56-2.62-2.56 10.93 2.15-3.67-3.2 1.63-3.3 1.62-3.29Z"/><path fill="#fff" d="m27.95 36.63.89-3.54a2.58 2.58 0 0 1 1.88-1.88l3.54-.88c.1-.03.1-.16 0-.19l-3.54-.88a2.58 2.58 0 0 1-1.88-1.88l-.89-3.54c-.02-.1-.16-.1-.18 0l-.88 3.54A2.58 2.58 0 0 1 25 29.26l-3.55.88c-.1.03-.1.16 0 .19l3.55.88a2.58 2.58 0 0 1 1.88 1.88l.88 3.54c.02.1.16.1.18 0ZM91.01 75.47l.66-2.66a1.94 1.94 0 0 1 1.41-1.4l2.66-.67c.07-.02.07-.12 0-.14l-2.66-.66a1.94 1.94 0 0 1-1.4-1.41L91 65.87c-.02-.07-.12-.07-.14 0l-.66 2.66a1.94 1.94 0 0 1-1.41 1.4l-2.66.67c-.07.02-.07.12 0 .14l2.66.66a1.94 1.94 0 0 1 1.4 1.41l.67 2.66c.02.07.12.07.14 0Z"/><path fill="#5271E5" d="M43.58 63.45c8.05-7.32 13.46-13.16 13.46-17.84 0-2.94-1.64-4.54-4.2-4.54-2.2 0-3.94 1.47-5.45 3.11l-4.2-4.15c3.16-3.34 6.1-4.98 10.69-4.98 6.23 0 10.56 3.99 10.56 10.13 0 5.54-4.76 11.64-9.7 16.62 1.6-.22 3.81-.43 5.24-.43h5.93v6.5H43.58v-4.42Z"/></g><defs><linearGradient id="b" x1="31.31" x2="38.28" y1="15.18" y2="23.8" gradientUnits="userSpaceOnUse"><stop stop-color="#98EEFF"/><stop offset="1" stop-color="#5EA9D3"/></linearGradient><linearGradient id="c" x1="76.5" x2="71.46" y1="102.93" y2="95.19" gradientUnits="userSpaceOnUse"><stop stop-color="#98EEFF"/><stop offset="1" stop-color="#5EA9D3"/></linearGradient><linearGradient id="d" x1="30.53" x2="38.92" y1="105.67" y2="96.82" gradientUnits="userSpaceOnUse"><stop stop-color="#4F7EEF"/><stop offset="1" stop-color="#5C9AFA"/></linearGradient><linearGradient id="e" x1="78.39" x2="70" y1="14.54" y2="23.5" gradientUnits="userSpaceOnUse"><stop stop-color="#4F7EEF"/><stop offset="1" stop-color="#5C9AFA"/></linearGradient><linearGradient id="f" x1="7.77" x2="19.33" y1="60" y2="60" gradientUnits="userSpaceOnUse"><stop stop-color="#376CD2"/><stop offset="1" stop-color="#4D8CE0"/></linearGradient><linearGradient id="g" x1="101.33" x2="89.77" y1="60" y2="60" gradientUnits="userSpaceOnUse"><stop stop-color="#376CD2"/><stop offset="1" stop-color="#4D8CE0"/></linearGradient><linearGradient id="h" x1="54.55" x2="54.55" y1="107.06" y2="12.94" gradientUnits="userSpaceOnUse"><stop stop-color="#80BDE4"/><stop offset="1" stop-color="#C5EAFA"/></linearGradient><linearGradient id="i" x1=".37" x2="35.46" y1="85.06" y2="85.06" gradientUnits="userSpaceOnUse"><stop stop-color="#BE4244"/><stop offset="1" stop-color="#D33730"/></linearGradient><linearGradient id="j" x1="73.64" x2="108.73" y1="86.09" y2="86.09" gradientUnits="userSpaceOnUse"><stop stop-color="#BE4244"/><stop offset="1" stop-color="#D33730"/></linearGradient><linearGradient id="k" x1="54.55" x2="54.55" y1="102.6" y2="79.9" gradientUnits="userSpaceOnUse"><stop stop-color="#FF544A"/><stop offset="1" stop-color="#F7726E"/></linearGradient><linearGradient id="l" x1="54.55" x2="54.55" y1="104.64" y2="77.86" gradientUnits="userSpaceOnUse"><stop stop-color="#80BDE4"/><stop offset="1" stop-color="#C5EAFA"/></linearGradient><clipPath id="a"><path fill="#fff" d="M0 0h108.37v120H0z" transform="translate(.37)"/></clipPath></defs></svg>