<svg xmlns="http://www.w3.org/2000/svg" width="110" height="120" fill="none"><g clip-path="url(#a)"><path fill="#A50E0E" d="m109.1 77.14-7.4-4.88v5.57l7.4 2.07v-2.76ZM.73 77.14l7.41-4.88v5.57L.74 79.9v-2.76Z"/><path fill="#ECB20C" d="M8.14 30v60l46.78 30 46.77-30V30L54.92 0 8.14 30Z"/><path fill="url(#b)" d="m37.93 49.64 16.99-36.7V0L8.14 30l29.8 19.64Z"/><path fill="url(#c)" d="m77.05 72.26-22.13 34.8V120l46.77-30-10.09-6.47-14.55-11.27Z"/><path fill="url(#d)" d="m54.1 91.7-35.87-8.17L8.14 90l46.78 30v-12.94l-.81-15.37Z"/><path fill="url(#e)" d="m55.72 28.85 35.88 7.62L101.7 30 54.91 0v12.94l.8 15.91Z"/><path fill="url(#f)" d="m39.55 70.67-19.8-33.14L8.13 30v60l10.09-6.47 21.32-12.86Z"/><path fill="url(#g)" d="M70.28 70.67 90.1 37.53l11.6-7.53v60L91.6 83.53 70.28 70.67Z"/><path fill="url(#h)" d="M18.23 36.47v47.06l36.69 23.53L91.6 83.53V36.47L54.92 12.94l-36.7 23.53Z"/><path fill="#D56E1F" d="M44.53 59.46h6.97V40.8h-6.04v-4.86A22.12 22.12 0 0 0 53.57 33h5.78v26.46h5.9v6.35H44.54v-6.35Z"/><path fill="url(#i)" d="M35.82 93.31H5.4a4.66 4.66 0 0 1-4.66-4.66V76.8H30.8a5.04 5.04 0 0 1 5.03 5.04V93.3Z"/><path fill="url(#j)" d="M104.44 94.35H74V82.87a5.04 5.04 0 0 1 5.04-5.04h30.05V89.7a4.66 4.66 0 0 1-4.66 4.66Z"/><path fill="url(#k)" d="M83.35 102.6H26.49a2.53 2.53 0 0 1-2.54-2.53V82.43c0-1.4 1.14-2.53 2.54-2.53h56.86c1.4 0 2.53 1.13 2.53 2.53v17.64c0 1.4-1.14 2.53-2.53 2.53Z"/><path fill="#F6F6F8" d="M54.92 107.76a16.51 16.51 0 1 0 0-33.02 16.51 16.51 0 0 0 0 33.02Z"/><path fill="url(#l)" d="M54.92 104.64a13.39 13.39 0 1 0 0-26.78 13.39 13.39 0 0 0 0 26.78Z"/><path fill="#FFB05A" d="m54.92 81.25 3.24 6.58 7.27 1.06L60.17 94l1.24 7.24-6.5-3.42-6.5 3.42L49.67 94 44.4 88.9l7.27-1.06 3.25-6.58Z"/><path fill="#D17A21" d="m54.92 81.25.42 9.79 2.82-3.2 3.64.52 3.63.53-10.1 2.15L60.18 94l.62 3.62.62 3.62-6.07-10.21-.42 6.8-3.25 1.7-3.25 1.7 6.92-10.2L49.66 94l-2.63-2.56-2.63-2.56 10.94 2.15-3.67-3.2 1.62-3.3 1.63-3.29Z"/><path fill="#fff" d="m28.32 36.63.88-3.54a2.58 2.58 0 0 1 1.89-1.88l3.54-.88c.1-.03.1-.16 0-.19l-3.54-.88a2.58 2.58 0 0 1-1.89-1.88l-.88-3.54c-.02-.1-.16-.1-.18 0l-.89 3.54a2.58 2.58 0 0 1-1.88 1.88l-3.54.88c-.1.03-.1.16 0 .19l3.54.88a2.58 2.58 0 0 1 1.88 1.88l.89 3.54c.02.1.16.1.18 0ZM91.38 75.47l.66-2.66a1.94 1.94 0 0 1 1.41-1.4l2.66-.67c.07-.02.07-.12 0-.14l-2.66-.66a1.94 1.94 0 0 1-1.41-1.41l-.66-2.66c-.02-.07-.12-.07-.14 0l-.66 2.66a1.94 1.94 0 0 1-1.42 1.4l-2.65.67c-.07.02-.07.12 0 .14l2.65.66a1.94 1.94 0 0 1 1.42 1.41l.66 2.66c.02.07.12.07.14 0Z"/></g><defs><linearGradient id="b" x1="31.48" x2="38.19" y1="14.94" y2="23.23" gradientUnits="userSpaceOnUse"><stop stop-color="#EFEDB3"/><stop offset="1" stop-color="#F8AB30"/></linearGradient><linearGradient id="c" x1="77.57" x2="72.53" y1="103.99" y2="96.25" gradientUnits="userSpaceOnUse"><stop stop-color="#F8AB30"/><stop offset="1" stop-color="#EFEDB3"/></linearGradient><linearGradient id="d" x1="30.61" x2="41.94" y1="106.18" y2="91.54" gradientUnits="userSpaceOnUse"><stop stop-color="#E1783A"/><stop offset="1" stop-color="#EB9130"/></linearGradient><linearGradient id="e" x1="78.76" x2="70.37" y1="14.53" y2="23.49" gradientUnits="userSpaceOnUse"><stop stop-color="#E1783A"/><stop offset="1" stop-color="#EB9130"/></linearGradient><linearGradient id="f" x1="8.14" x2="19.87" y1="60" y2="60" gradientUnits="userSpaceOnUse"><stop stop-color="#E46F26"/><stop offset="1" stop-color="#FFA835"/></linearGradient><linearGradient id="g" x1="101.69" x2="90.14" y1="60" y2="60" gradientUnits="userSpaceOnUse"><stop stop-color="#E46F26"/><stop offset="1" stop-color="#FFA835"/></linearGradient><linearGradient id="h" x1="54.92" x2="54.92" y1="107.06" y2="12.94" gradientUnits="userSpaceOnUse"><stop stop-color="#ED9448"/><stop offset="1" stop-color="#F5CC75"/></linearGradient><linearGradient id="i" x1=".73" x2="35.82" y1="85.06" y2="85.06" gradientUnits="userSpaceOnUse"><stop stop-color="#BE4244"/><stop offset="1" stop-color="#D33730"/></linearGradient><linearGradient id="j" x1="74.01" x2="109.1" y1="86.09" y2="86.09" gradientUnits="userSpaceOnUse"><stop stop-color="#BE4244"/><stop offset="1" stop-color="#D33730"/></linearGradient><linearGradient id="k" x1="54.92" x2="54.92" y1="102.6" y2="79.9" gradientUnits="userSpaceOnUse"><stop stop-color="#FF544A"/><stop offset="1" stop-color="#F7726E"/></linearGradient><linearGradient id="l" x1="54.92" x2="54.92" y1="104.64" y2="77.86" gradientUnits="userSpaceOnUse"><stop stop-color="#ED9448"/><stop offset="1" stop-color="#F5CC75"/></linearGradient><clipPath id="a"><path fill="#fff" d="M0 0h108.37v120H0z" transform="translate(.73)"/></clipPath></defs></svg>