<svg xmlns="http://www.w3.org/2000/svg" width="109" height="120" fill="none"><g clip-path="url(#a)"><path fill="#A50E0E" d="m108.37 77.14-7.41-4.88v5.57l7.4 2.07v-2.76ZM0 77.14l7.4-4.88v5.57L0 79.9v-2.76Z"/><path fill="#ECB20C" d="M7.4 30v60l46.78 30 46.78-30V30L54.18 0 7.41 30Z"/><path fill="url(#b)" d="m37.2 49.64 16.98-36.7V0L7.41 30l29.8 19.64Z"/><path fill="url(#c)" d="m76.31 72.26-22.13 34.8V120l46.78-30-10.09-6.47-14.56-11.27Z"/><path fill="url(#d)" d="M53.37 91.7 17.5 83.52 7.41 90l46.77 30v-12.94l-.8-15.37Z"/><path fill="url(#e)" d="m54.98 28.85 35.9 7.62L100.95 30 54.18 0v12.94l.8 15.91Z"/><path fill="url(#f)" d="M38.82 70.67 19 37.53 7.4 30v60l10.08-6.47 21.33-12.86Z"/><path fill="url(#g)" d="m69.55 70.67 19.8-33.14L100.97 30v60l-10.09-6.47-21.32-12.86Z"/><path fill="url(#h)" d="M17.5 36.47v47.06l36.68 23.53 36.7-23.53V36.47l-36.7-23.53L17.5 36.47Z"/><path fill="#F28500" d="m43.2 59.59 3.48-4.76c1.92 1.82 4.13 3.06 6.59 3.06 2.93 0 4.85-1.23 4.85-3.61 0-2.72-1.45-4.34-8.08-4.34v-5.31c5.4 0 7.1-1.66 7.1-4.17 0-2.16-1.27-3.35-3.61-3.35-2.13 0-3.74.97-5.65 2.63l-3.83-4.63c2.93-2.47 6.08-3.91 9.82-3.91 6.54 0 10.83 3.06 10.83 8.7 0 3.16-1.7 5.62-5.1 6.98v.21c3.53 1.07 6.13 3.62 6.13 7.7 0 5.9-5.4 9.22-11.7 9.22-5 0-8.54-1.75-10.83-4.42Z"/><path fill="url(#i)" d="M35.09 93.31H4.66A4.66 4.66 0 0 1 0 88.65V76.8h30.05a5.04 5.04 0 0 1 5.04 5.04V93.3Z"/><path fill="url(#j)" d="M103.7 94.35H73.29V82.87a5.04 5.04 0 0 1 5.03-5.04h30.06V89.7a4.66 4.66 0 0 1-4.66 4.66Z"/><path fill="url(#k)" d="M82.61 102.6H25.75a2.53 2.53 0 0 1-2.53-2.53V82.43c0-1.4 1.14-2.53 2.53-2.53h56.86c1.4 0 2.54 1.13 2.54 2.53v17.64c0 1.4-1.14 2.53-2.54 2.53Z"/><path fill="#F6F6F8" d="M54.18 107.76a16.51 16.51 0 1 0 0-33.02 16.51 16.51 0 0 0 0 33.02Z"/><path fill="#FFE066" d="M54.18 104.64a13.39 13.39 0 1 0 0-26.78 13.39 13.39 0 0 0 0 26.78Z"/><path fill="#FCC11A" d="m54.18 81.25 3.25 6.58 7.27 1.06L59.44 94l1.24 7.24-6.5-3.42-6.5 3.42L48.94 94l-5.26-5.12 7.26-1.06 3.25-6.58Z"/><path fill="#F38B00" d="m54.18 81.25.43 9.79 2.82-3.2 3.63.52 3.64.53-10.1 2.15L59.45 94l.62 3.62.62 3.62-6.07-10.21-.43 6.8-3.25 1.7-3.24 1.7 6.92-10.2L48.93 94l-2.63-2.56-2.63-2.56 10.94 2.15-3.68-3.2 1.63-3.3 1.62-3.29Z"/><path fill="#fff" d="m27.59 36.63.88-3.54a2.58 2.58 0 0 1 1.88-1.88l3.54-.88c.1-.03.1-.16 0-.19l-3.54-.88a2.58 2.58 0 0 1-1.88-1.88l-.88-3.54c-.03-.1-.16-.1-.19 0l-.88 3.54a2.58 2.58 0 0 1-1.88 1.88l-3.54.88c-.1.03-.1.16 0 .19l3.54.88a2.58 2.58 0 0 1 1.88 1.88l.88 3.54c.03.1.16.1.19 0ZM90.64 75.47l.67-2.66a1.94 1.94 0 0 1 1.4-1.4l2.66-.67c.08-.02.08-.12 0-.14l-2.65-.66a1.94 1.94 0 0 1-1.41-1.41l-.67-2.66c-.01-.07-.12-.07-.13 0l-.67 2.66a1.94 1.94 0 0 1-1.4 1.4l-2.66.67c-.07.02-.07.12 0 .14l2.65.66a1.94 1.94 0 0 1 1.41 1.41l.67 2.66c.01.07.12.07.13 0Z"/></g><defs><linearGradient id="b" x1="30.94" x2="37.92" y1="15.18" y2="23.8" gradientUnits="userSpaceOnUse"><stop stop-color="#FFE622"/><stop offset="1" stop-color="#FCC523"/></linearGradient><linearGradient id="c" x1="76.13" x2="71.09" y1="102.94" y2="95.2" gradientUnits="userSpaceOnUse"><stop stop-color="#FFE622"/><stop offset="1" stop-color="#FCC523"/></linearGradient><linearGradient id="d" x1="30.16" x2="38.55" y1="105.67" y2="96.82" gradientUnits="userSpaceOnUse"><stop stop-color="#F38600"/><stop offset="1" stop-color="#EDA416"/></linearGradient><linearGradient id="e" x1="78.02" x2="69.63" y1="14.55" y2="23.51" gradientUnits="userSpaceOnUse"><stop stop-color="#F38600"/><stop offset="1" stop-color="#EDA416"/></linearGradient><linearGradient id="f" x1="7.41" x2="18.96" y1="60" y2="60" gradientUnits="userSpaceOnUse"><stop stop-color="#EDB516"/><stop offset="1" stop-color="#FCC616"/></linearGradient><linearGradient id="g" x1="100.96" x2="89.4" y1="60" y2="60" gradientUnits="userSpaceOnUse"><stop stop-color="#EDB516"/><stop offset="1" stop-color="#FCC616"/></linearGradient><linearGradient id="h" x1="54.18" x2="54.18" y1="107.06" y2="12.94" gradientUnits="userSpaceOnUse"><stop stop-color="#FFD12D"/><stop offset="1" stop-color="#FCED6F"/></linearGradient><linearGradient id="i" x1="0" x2="35.09" y1="85.06" y2="85.06" gradientUnits="userSpaceOnUse"><stop stop-color="#BE4244"/><stop offset="1" stop-color="#D33730"/></linearGradient><linearGradient id="j" x1="73.28" x2="108.37" y1="86.09" y2="86.09" gradientUnits="userSpaceOnUse"><stop stop-color="#BE4244"/><stop offset="1" stop-color="#D33730"/></linearGradient><linearGradient id="k" x1="54.18" x2="54.18" y1="102.6" y2="79.9" gradientUnits="userSpaceOnUse"><stop stop-color="#FF544A"/><stop offset="1" stop-color="#F7726E"/></linearGradient><clipPath id="a"><path fill="#fff" d="M0 0h108.37v120H0z"/></clipPath></defs></svg>