<svg xmlns="http://www.w3.org/2000/svg" width="124" height="124" fill="none"><path fill="#1C1C1C" d="M124 62A62 62 0 1 1 0 62a62 62 0 0 1 124 0ZM3.7 62a58.3 58.3 0 1 0 116.6 0A58.3 58.3 0 0 0 3.7 62Z"/><circle cx="62" cy="62" r="56" fill="#1C1C1C"/><g clip-path="url(#a)"><path fill="#585757" d="M89.8 80 79.6 61A19.2 19.2 0 0 0 62 34a19.2 19.2 0 0 0-17.5 27.2L34.2 79.9a1.8 1.8 0 0 0 1.9 2.6l8.8-2 3 8.3a1.7 1.7 0 0 0 3.2.3l9-16.7a19.4 19.4 0 0 0 3.7 0l9.1 16.7a1.7 1.7 0 0 0 3.2-.3l3-8.3 8.8 2c.7.1 1.4-.1 1.8-.7.4-.5.5-1.3.1-1.9Zm-40 4-2.2-6.2a1.7 1.7 0 0 0-2-1.1l-6.5 1.5 7.4-13.5c2.5 3.3 6 5.8 10 7l-6.7 12.2Zm-3.5-30.8a15.7 15.7 0 1 1 31.4 0 15.7 15.7 0 0 1-31.4 0Zm32 23.5c-.8-.2-1.6.3-2 1.1L74.2 84l-6.7-12.3c4.1-1.2 7.7-3.7 10.1-7.1L85 78.2l-6.5-1.5Z"/><circle cx="62" cy="53" r="17" fill="#585757"/><path fill="#E8E8E8" d="M60.4 57.1V56a3.6 3.6 0 0 1 1-2.6l.9-.8.9-.8.7-.8.2-1v-.6l-.3-.7-.7-.5-1.2-.2c-.6 0-1 0-1.3.2a2 2 0 0 0-.8.6l-.3.8V51h-3.3l-.1-.3v-.5c0-.6 0-1.1.2-1.6l.7-1.4 1.3-1a6 6 0 0 1 1.7-.7 8.8 8.8 0 0 1 5.6.5c.4.2.8.5 1.1.9.4.3.6.7.8 1.2.2.5.2 1 .2 1.5 0 .7 0 1.3-.3 1.8-.2.5-.4 1-.8 1.3a7 7 0 0 1-1 1 30.3 30.3 0 0 0-1.9 1.6 2 2 0 0 0-.3 1.1v.7h-3Zm-.2 4.9v-3.4h3.4V62h-3.4Z"/></g><defs><clipPath id="a"><path fill="#fff" d="M0 0h56v56H0z" transform="translate(34 34)"/></clipPath></defs></svg>